<?xml version="1.0" encoding="UTF-8" standalone="no"?>
<svg
   t="1779870231807"
   class="icon"
   viewBox="0 0 1025 1024"
   version="1.1"
   p-id="9722"
   width="128.125"
   height="128"
   id="svg2"
   sodipodi:docname="arrow-up.svg"
   inkscape:version="1.4.3 (0d15f75, 2025-12-25)"
   xmlns:inkscape="http://www.inkscape.org/namespaces/inkscape"
   xmlns:sodipodi="http://sodipodi.sourceforge.net/DTD/sodipodi-0.dtd"
   xmlns="http://www.w3.org/2000/svg"
   xmlns:svg="http://www.w3.org/2000/svg">
  <defs
     id="defs2" />
  <sodipodi:namedview
     id="namedview2"
     pagecolor="#ffffff"
     bordercolor="#000000"
     borderopacity="0.25"
     inkscape:showpageshadow="2"
     inkscape:pageopacity="0.0"
     inkscape:pagecheckerboard="0"
     inkscape:deskcolor="#d1d1d1"
     inkscape:zoom="8.8828125"
     inkscape:cx="64.056288"
     inkscape:cy="64"
     inkscape:window-width="2560"
     inkscape:window-height="1351"
     inkscape:window-x="-9"
     inkscape:window-y="-9"
     inkscape:window-maximized="1"
     inkscape:current-layer="svg2" />
  <path
     d="m 130.35935,689.23664 c -0.0932,-5.39816 1.87292,-10.82971 5.92022,-15.01939 l 331.4497,-343.04581 c 21.5522,-22.30542 57.2326,-22.91976 79.53977,-1.36844 0.10811,0.10459 0.21533,0.21006 0.32168,0.31728 l 340.93735,343.80869 c 8.2027,8.27214 8.14733,21.62779 -0.12568,29.83049 -8.27214,8.20271 -21.62867,8.14646 -29.83137,-0.12568 L 517.82702,360.0202 c -2.68501,-2.53121 -6.18828,-3.88822 -9.8849,-3.82494 -3.75551,0.065 -7.26141,1.58816 -9.87172,4.289 L 166.6207,703.53095 c -8.09548,8.3776 -21.4485,8.60699 -29.82698,0.51327 -4.1888,-4.0473 -6.34121,-9.4103 -6.43437,-14.80758 z"
     fill="#272536"
     p-id="9723"
     id="path1"
     style="stroke-width:0.85839" />
  <path
     d="M 512.5,512"
     p-id="9724"
     id="path2" />
  <path
     id="path3"
     style="stroke-width:0.838973"
     d="m 507.40692,302.88088 c -18.43653,0.16197 -36.71595,7.88924 -49.54056,21.16159 -6.76853,6.92576 -13.45794,13.92855 -20.20089,20.87941 -101.561,105.12135 -203.13126,210.23411 -304.68648,315.36083 -8.00592,8.52854 -11.36427,21.10124 -8.75083,32.49451 1.92863,8.75569 7.25707,16.68806 14.61461,21.80598 7.67545,5.42404 17.51934,7.6442 26.7801,6.03442 7.42444,-1.23154 14.4442,-4.82382 19.71079,-10.21154 11.19013,-11.50757 22.31362,-23.08118 33.47683,-34.61542 96.49407,-99.87194 192.98813,-199.74389 289.48218,-299.61583 110.60909,111.53296 221.21039,223.07377 331.82433,334.60183 8.39618,8.31273 21.05092,11.9717 32.59688,9.51603 8.32995,-1.69275 15.97375,-6.44799 21.20102,-13.14684 6.08942,-7.68226 8.81966,-17.91684 7.32847,-27.60942 -1.12963,-7.86741 -4.91996,-15.33107 -10.6794,-20.8199 -17.50003,-17.71228 -35.06325,-35.36468 -52.58715,-53.05548 -93.59047,-94.37601 -187.17795,-188.75519 -280.77566,-283.12387 -12.42283,-12.01545 -29.41141,-19.16306 -46.69035,-19.62225 -1.03416,-0.0353 -2.0692,-0.042 -3.10389,-0.034 z" />
</svg>
