<?xml version="1.0" standalone="no"?><!DOCTYPE svg PUBLIC "-//W3C//DTD SVG 1.1//EN" "http://www.w3.org/Graphics/SVG/1.1/DTD/svg11.dtd"><svg t="1779872468999" class="icon" viewBox="0 0 1026 1024" version="1.1" xmlns="http://www.w3.org/2000/svg" p-id="31375" xmlns:xlink="http://www.w3.org/1999/xlink" width="128.25" height="128"><path d="M809.317804 834.023295H250.888519A80.505824 80.505824 0 0 1 170.382696 753.943428V386.768719a21.297837 21.297837 0 0 1 21.297836-21.297837h674.289518a21.297837 21.297837 0 0 1 21.297837 21.297837v367.174709A80.079867 80.079867 0 0 1 809.317804 834.023295z m-596.339435-425.956739v345.876872a37.484193 37.484193 0 0 0 37.91015 37.484193H809.317804a37.058236 37.058236 0 0 0 37.484193-37.484193V408.066556z" p-id="31376" fill="#111111"></path><path d="M650.009983 621.044925a21.297837 21.297837 0 0 1-21.297837-21.297837v-208.718802l-61.33777-160.159734H122.675541l87.321131 145.251248a21.297837 21.297837 0 0 1-36.632279 21.723794l-106.489185-177.62396a22.14975 22.14975 0 0 1 0-21.297837 21.297837 21.297837 0 0 1 18.31614-10.648918h497.091514a20.445923 20.445923 0 0 1 19.59401 13.630615l68.153078 177.198004a24.279534 24.279534 0 0 1 0 7.667221v212.978369a21.297837 21.297837 0 0 1-20.019967 21.297837z" p-id="31377" fill="#111111"></path><path d="M865.97005 408.066556h-212.978369a20.87188 20.87188 0 0 1-17.464227-9.371049 21.297837 21.297837 0 0 1-2.129783-19.594009l71.134775-177.623961a20.87188 20.87188 0 0 1 19.59401-13.204658h212.978369a20.445923 20.445923 0 0 1 17.464227 9.371048 19.168053 19.168053 0 0 1 2.129783 19.59401L885.990017 394.861897a21.297837 21.297837 0 0 1-20.019967 13.204659z m-181.457571-42.595674H851.913478l54.096505-134.60233h-167.400998z" p-id="31378" fill="#111111"></path></svg>