<?xml version="1.0" encoding="UTF-8" standalone="no"?>
<svg
   t="1779872468999"
   class="icon"
   viewBox="0 0 1026 1024"
   version="1.1"
   p-id="31375"
   width="128.25"
   height="128"
   id="svg3"
   sodipodi:docname="box-open.svg"
   inkscape:version="1.4.3 (0d15f75, 2025-12-25)"
   xmlns:inkscape="http://www.inkscape.org/namespaces/inkscape"
   xmlns:sodipodi="http://sodipodi.sourceforge.net/DTD/sodipodi-0.dtd"
   xmlns="http://www.w3.org/2000/svg"
   xmlns:svg="http://www.w3.org/2000/svg">
  <defs
     id="defs3" />
  <sodipodi:namedview
     id="namedview3"
     pagecolor="#ffffff"
     bordercolor="#000000"
     borderopacity="0.25"
     inkscape:showpageshadow="2"
     inkscape:pageopacity="0.0"
     inkscape:pagecheckerboard="0"
     inkscape:deskcolor="#d1d1d1"
     inkscape:zoom="8.8828125"
     inkscape:cx="64.168865"
     inkscape:cy="64"
     inkscape:window-width="2560"
     inkscape:window-height="1351"
     inkscape:window-x="-9"
     inkscape:window-y="-9"
     inkscape:window-maximized="1"
     inkscape:current-layer="svg3" />
  <path
     id="path1"
     style="stroke-width:0.969766"
     d="m 847.70508,360.06836 c -155.55468,-0.0137 -311.10938,-0.002 -466.66406,-0.006 -60.02477,0.004 -120.04994,-0.007 -180.07446,0.005 -3.19823,0.0681 -6.38399,0.59155 -9.41407,1.62525 -3.30175,1.12617 -6.40735,2.81367 -9.14481,4.97861 -2.61241,2.09561 -4.90077,4.59525 -6.69938,7.42445 -1.88624,2.93457 -3.24854,6.1951 -4.04545,9.59125 -0.56565,2.46332 -0.79341,4.98984 -0.77345,7.51554 -0.0291,19.06043 -0.004,38.12143 -0.0119,57.18209 0.005,99.57494 -0.006,199.15011 0.009,298.72491 0.15129,11.42265 2.49672,22.81832 6.96495,33.33623 6.58529,15.62267 17.81646,29.24321 31.90829,38.6718 14.27965,9.63055 31.44866,14.90273 48.67376,14.92693 9.67175,0.0701 19.34415,0.006 29.01619,0.0292 171.08572,-0.003 342.17179,0.007 513.25729,-0.005 7.61142,-0.27037 15.19765,-1.43634 22.49643,-3.62837 16.59531,-4.90253 31.63029,-14.89871 42.59678,-28.28237 9.6979,-11.77367 16.22387,-26.12893 18.70482,-41.18022 0.86308,-5.07772 1.20368,-10.23037 1.19772,-15.37763 0.0249,-8.90769 -0.006,-17.81566 0.008,-26.72351 -10e-6,-109.62114 0.007,-219.2426 -0.0109,-328.86355 -0.092,-4.13866 -0.98602,-8.26299 -2.71623,-12.02832 -1.48122,-3.34216 -3.62213,-6.37526 -6.18618,-8.97542 -2.81158,-2.8069 -6.1739,-5.06745 -9.84556,-6.5875 -3.08216,-1.30234 -6.395,-2.05203 -9.73026,-2.28111 -3.17101,-0.11939 -6.34438,-0.0842 -9.51687,-0.0727 z m -607.89649,60.92773 c 195.67839,0 391.35677,0 587.03516,0 -0.002,108.7841 0.0104,217.56828 -0.0126,326.35232 -0.0908,7.88518 -3.94843,15.64651 -10.2547,20.40192 -4.90756,3.80124 -11.19575,5.62345 -17.3722,5.39029 -180.38424,-0.004 -360.76851,0.005 -541.15272,-0.007 -7.61506,-0.0959 -15.13569,-3.5959 -20.00134,-9.47515 -4.30687,-5.05816 -6.47296,-11.77598 -6.2397,-18.39102 -6.3e-4,-108.0905 -0.001,-216.18099 -0.002,-324.27149 2.66667,0 5.33334,0 8,0 z" />
  <path
     id="path2"
     style="stroke-width:0.969766"
     d="m 567.73242,188.22656 c -156.68489,-0.0125 -313.36979,-0.002 -470.054686,0.004 -7.364841,0.12177 -14.640805,3.01065 -20.057128,8.00643 -2.611209,2.4055 -4.834555,5.26005 -6.437728,8.43043 -1.623233,3.26333 -2.695466,6.80842 -3.10152,10.43232 -0.415295,3.47062 -0.218526,7.0166 0.549102,10.4255 0.841416,3.94995 2.589336,7.65082 4.76331,11.03599 34.02081,56.74377 68.03241,113.49366 102.07107,170.22635 2.21587,3.43424 5.08708,6.44881 8.47355,8.74461 3.36552,2.34688 7.23884,3.93711 11.25302,4.76087 3.39814,0.66854 6.91308,0.77535 10.34054,0.2673 4.30182,-0.61397 8.46604,-2.181 12.11886,-4.53091 3.44724,-2.22761 6.4459,-5.14313 8.74022,-8.54874 2.43356,-3.6096 4.09751,-7.73817 4.80018,-12.03687 0.68913,-4.04531 0.52869,-8.2365 -0.44841,-12.22132 -0.8466,-3.69421 -2.55326,-7.1213 -4.56543,-10.31105 -24.80781,-41.24815 -49.60023,-82.50565 -74.40589,-123.75513 135.71875,0 271.4375,0 407.15625,0 18.8084,49.1057 37.61493,98.21211 56.42188,147.31836 3.4e-4,67.0326 -0.008,134.06554 0.0109,201.09792 0.0755,3.15635 0.59511,6.29862 1.62103,9.2873 1.08819,3.20129 2.7058,6.22022 4.78696,8.88749 2.13351,2.76023 4.75487,5.13533 7.69568,7.01259 2.91829,1.84743 6.14107,3.20536 9.50683,3.98813 2.41768,0.53412 4.89679,0.80701 7.37126,0.79034 3.15919,-0.25323 6.29692,-0.88052 9.2521,-2.04472 5.23834,-2.01906 9.88698,-5.53683 13.26996,-10.01695 3.90486,-5.14299 6.09603,-11.55221 6.16389,-18.0098 0.0338,-21.02105 0.005,-42.04312 0.0147,-63.06457 0,-47.80859 0,-95.61718 0,-143.42578 0.50104,-3.29063 0.25004,-6.62858 -0.15647,-9.91344 -0.47821,-1.68968 -1.24499,-3.30536 -1.83557,-4.96622 -21.698,-56.40824 -43.37855,-112.82304 -65.10277,-169.22103 -1.67803,-4.27874 -4.41179,-8.12476 -7.84361,-11.17428 -2.54082,-2.26352 -5.48551,-4.08426 -8.64962,-5.33649 -3.09514,-1.25921 -6.41949,-1.96665 -9.75724,-2.0965 -4.65472,-0.0732 -9.31018,-0.0498 -13.96527,-0.042 z" />
  <path
     id="path3"
     style="stroke-width:0.969766"
     d="m 911.13477,188.22656 c -64.65488,-0.007 -129.31029,-0.0133 -193.96485,0.01 -7.22486,0.0662 -14.38963,2.85031 -19.73896,7.71054 -3.56606,3.17309 -6.31792,7.23808 -8.00923,11.69884 -0.63994,1.53358 -1.35861,3.3153 -2.02078,4.97238 -22.32251,55.78173 -44.67994,111.55068 -66.99352,167.33602 -1.78001,4.79266 -2.3444,10.02692 -1.59941,15.0857 0.93641,6.41388 3.98071,12.49343 8.55498,17.08639 3.87352,3.89853 8.83448,6.70753 14.18011,7.99405 4.73593,1.24648 9.66815,0.78022 14.50728,0.87392 66.65017,-0.002 133.3007,0.0128 199.95064,-0.0169 7.29984,-0.0767 14.52507,-2.91594 19.93056,-7.8206 3.56951,-3.18397 6.32451,-7.24802 8.05474,-11.70282 11.00645,-27.59687 22.02251,-55.31708 33.03647,-82.97002 12.09663,-30.40666 24.21889,-60.8046 36.29949,-91.21672 1.18976,-3.75292 1.68073,-7.73362 1.28041,-11.65718 -0.48692,-5.39025 -2.63875,-10.56997 -5.93254,-14.84856 -1.84721,-2.6721 -4.18279,-5.00075 -6.80883,-6.90784 -3.12392,-2.23957 -6.66724,-3.9088 -10.41473,-4.78484 -2.64389,-0.677 -5.38459,-0.87341 -8.10706,-0.82419 -4.06805,-0.0449 -8.13656,-0.0235 -12.20477,-0.0179 z m -167.36133,60.92969 c 45.26107,0 90.52213,0 135.7832,0 -14.85876,36.96847 -29.71435,73.93822 -44.57422,110.90625 -47.06315,0 -94.1263,0 -141.18945,0 14.85876,-36.96847 29.71434,-73.93822 44.57422,-110.90625 1.80208,0 3.60416,0 5.40625,0 z" />
</svg>
