<?xml version="1.0" encoding="UTF-8" standalone="no"?>
<svg
   class="icon"
   viewBox="0 0 1024 1024"
   version="1.1"
   width="128"
   height="128"
   id="svg3"
   sodipodi:docname="C_square.svg"
   inkscape:version="1.4.3 (0d15f75, 2025-12-25)"
   xmlns:inkscape="http://www.inkscape.org/namespaces/inkscape"
   xmlns:sodipodi="http://sodipodi.sourceforge.net/DTD/sodipodi-0.dtd"
   xmlns="http://www.w3.org/2000/svg"
   xmlns:svg="http://www.w3.org/2000/svg">
  <defs
     id="defs3" />
  <sodipodi:namedview
     id="namedview3"
     pagecolor="#ffffff"
     bordercolor="#000000"
     borderopacity="0.25"
     inkscape:showpageshadow="2"
     inkscape:pageopacity="0.0"
     inkscape:pagecheckerboard="0"
     inkscape:deskcolor="#d1d1d1"
     inkscape:zoom="8.8828125"
     inkscape:cx="63.943712"
     inkscape:cy="64"
     inkscape:window-width="2560"
     inkscape:window-height="1351"
     inkscape:window-x="-9"
     inkscape:window-y="-9"
     inkscape:window-maximized="1"
     inkscape:current-layer="svg3" />
  <path
     d="M 875.17147,875.17147 H 148.82853 V 148.82853 h 726.34294 z"
     fill-opacity="0"
     id="path1"
     style="stroke-width:0.937217" />
  <path
     id="path2"
     d="m 122.11785,137.11332 c 0,254.92294 0,509.84588 0,764.76883 259.92143,0 519.84287,0 779.7643,0 0,-259.92143 0,-519.84287 0,-779.7643 -259.92143,0 -519.84287,0 -779.7643,0 0,4.99849 0,9.99699 0,14.99547 z m 726.34294,38.42589 c 0,224.30719 0,448.61439 0,672.92158 -224.30719,0 -448.61439,0 -672.92158,0 0,-224.30719 0,-448.61439 0,-672.92158 224.30719,0 448.61439,0 672.92158,0 z"
     style="stroke-width:0.937217" />
  <path
     id="path3"
     d="m 513.57789,309.56486 c -4.08288,0.0365 -8.16818,0.22063 -12.22202,0.72547 -4.05424,0.43635 -8.07076,1.18249 -12.04542,2.0846 -3.99889,0.96432 -7.95916,2.09918 -11.82175,3.51817 -3.65178,1.28693 -7.20871,2.83052 -10.68787,4.52799 -11.25335,5.38306 -22.10288,11.94507 -31.05884,20.71332 -2.94794,2.76808 -5.78951,5.64845 -8.54199,8.61017 -2.50389,2.6941 -4.90842,5.47524 -7.26143,8.30156 -2.57098,3.15855 -5.06607,6.3788 -7.43734,9.69075 -1.80607,2.52514 -3.55984,5.09178 -5.23416,7.70634 -2.20974,3.42322 -4.29082,6.92796 -6.27155,10.48784 -3.06185,5.69601 -6.12304,11.39466 -8.92813,17.22279 -1.64215,3.36684 -3.20658,6.77317 -4.72609,10.19688 -1.79537,4.07371 -3.50513,8.18316 -5.13475,12.32592 -1.76187,4.54103 -3.45493,9.11008 -5.00099,13.72968 -1.2687,3.66477 -2.41304,7.37278 -3.53734,11.08366 -1.32202,4.68472 -2.63694,9.3714 -3.78015,14.10369 -1.10324,4.31679 -2.0472,8.67337 -2.99808,13.02557 -0.95622,4.70904 -1.89985,9.42049 -2.67592,14.16323 -0.77413,4.35771 -1.37956,8.7441 -2.00211,13.12531 -0.76977,6.48034 -1.64679,12.9486 -2.34642,19.43678 -0.5294,4.94481 -0.97693,9.89696 -1.33509,14.85714 -0.32834,4.36847 -0.56091,8.74503 -0.76337,13.12092 -0.19891,5.06208 -0.34942,10.1253 -0.37509,15.19151 -0.14071,12.55941 0.45305,25.18259 2.74197,37.55311 0.64077,3.37832 1.12033,6.78674 1.93443,10.13074 0.58752,2.73764 1.33691,5.44058 2.11338,8.12954 0.89841,2.98514 1.89472,5.93717 2.99968,8.85227 1.22093,3.16392 2.53652,6.29443 4.01735,9.34672 1.56516,3.35427 3.2145,6.66861 5.04059,9.88925 1.91481,3.3034 3.95401,6.5383 6.18357,9.63878 2.4545,3.43669 5.09878,6.73611 7.92955,9.87037 2.05154,2.27321 4.19912,4.46099 6.34776,6.64266 9.79252,9.65008 21.4635,17.2375 33.80784,23.20687 12.93713,6.85535 27.22767,10.99444 41.75255,12.65222 12.14818,1.40302 24.4327,1.2277 36.60549,0.23748 17.27924,-1.46691 34.39279,-5.26352 50.52411,-11.66691 13.66394,-5.36409 26.59932,-12.48664 38.72839,-20.73156 4.31037,-2.99197 8.51679,-6.13436 12.56903,-9.46843 3.49169,-2.83214 6.84441,-5.83038 10.13515,-8.89268 4.03745,-3.84222 7.95045,-7.81884 11.64174,-11.99637 2.59628,-2.86995 5.0019,-5.90631 7.48407,-8.87433 4.71512,-5.82396 9.32617,-11.73297 13.75554,-17.77768 2.54356,-3.40631 4.96214,-6.90359 7.44507,-10.35402 1.12762,-2.88531 2.35111,-5.73841 3.41194,-8.64652 0.44393,-1.57295 0.83812,-3.15572 0.99051,-4.78701 0.2435,-2.15792 0.19131,-4.35558 -0.0463,-6.51466 -0.76096,-6.83649 -4.31956,-13.19751 -9.41085,-17.76468 -2.23415,-2.02252 -4.67779,-3.84324 -7.39949,-5.15648 -6.97672,-3.62763 -14.82202,-6.10263 -22.76145,-5.52334 -4.7648,0.30474 -9.3522,1.91574 -13.53078,4.17155 -1.53326,0.77059 -2.97125,1.7301 -4.38447,2.69779 -1.51717,1.14011 -3.00212,2.31824 -4.33307,3.67547 -2.28091,2.19995 -4.15396,4.77868 -6.18076,7.20712 -1.90238,2.50156 -3.77803,5.0224 -5.52628,7.63502 -2.92747,3.46007 -5.98968,6.8032 -9.17845,10.02363 -3.13386,3.32606 -6.35204,6.573 -9.67933,9.70547 -2.91997,2.74005 -5.89453,5.42564 -8.96844,7.99038 -8.28114,6.19124 -16.83985,12.06808 -26.02022,16.85646 -4.88406,2.71707 -9.97521,5.0529 -15.19448,7.04894 -4.60973,1.73921 -9.33277,3.16668 -14.08842,4.44696 -6.26037,1.59874 -12.69356,2.52258 -19.1512,2.73616 -4.38143,0.15845 -8.80226,0.0544 -13.10261,-0.87464 -3.79322,-0.74349 -7.44159,-2.08342 -10.97636,-3.62605 -5.5598,-2.62783 -9.90008,-7.18322 -13.62625,-11.96964 -6.28278,-6.11336 -10.33661,-14.13546 -13.07528,-22.37422 -2.96646,-7.40351 -3.90025,-15.42223 -4.3896,-23.32549 -0.45856,-7.83019 -0.29767,-15.67826 -0.30632,-23.5174 0.0498,-8.70935 0.4297,-17.42204 1.39501,-26.08087 0.98366,-9.47159 2.19784,-18.91797 3.24751,-28.38179 2.91874,-20.71042 7.29506,-41.30296 14.50678,-60.97249 4.71661,-13.18182 10.06815,-26.21267 17.19782,-38.29336 2.77076,-4.6324 5.80983,-9.10699 9.10983,-13.37807 3.44885,-4.38965 7.18005,-8.56022 11.22253,-12.41206 2.58802,-2.48056 5.28446,-4.85668 8.112,-7.05976 4.56327,-3.18541 9.42567,-6.22282 14.9129,-7.48184 2.87414,-0.68684 5.85271,-0.33527 8.73823,0.076 1.43576,0.28453 2.98775,0.34537 4.208,1.24411 2.34031,1.40755 4.63154,2.90301 6.95326,4.33657 4.44077,3.42007 9.19988,6.49926 13.02763,10.64119 3.48294,3.58075 6.91737,7.21795 10.19532,10.98515 2.44043,4.01272 5.48336,7.74632 9.36357,10.44247 2.88735,2.97653 6.2382,5.56291 10.06766,7.20093 4.52131,2.64598 9.85565,3.43186 15.02481,3.39515 2.26056,-0.0188 4.51873,-0.11821 6.75692,-0.45273 1.79214,-0.22483 3.5666,-0.62067 5.31791,-1.05476 1.96483,-0.54756 3.90924,-1.15477 5.78677,-1.95723 1.70164,-0.65887 3.31525,-1.53431 4.93965,-2.3575 4.29514,-2.64808 8.00316,-6.31409 10.41002,-10.77167 2.66065,-4.88302 3.78989,-10.55347 3.41889,-16.08605 -0.24259,-3.27551 -1.50925,-6.3694 -3.13931,-9.18729 -0.90243,-2.19453 -1.72848,-4.437 -2.67717,-6.60225 -6.7482,-7.41393 -13.564,-14.77643 -20.71448,-21.80498 -7.62024,-7.02662 -16.2007,-12.90059 -24.84435,-18.5774 -9.96059,-5.58314 -20.08169,-11.0497 -30.93544,-14.70589 -3.70606,-1.25793 -7.48624,-2.29711 -11.32085,-3.08176 -3.24177,-0.69616 -6.52568,-1.19228 -9.82316,-1.53739 -3.2067,-0.34555 -6.43299,-0.51043 -9.65846,-0.52383 -0.48104,-0.004 -0.96222,-0.025 -1.44322,-0.0127 z"
     style="stroke-width:0.937217" />
</svg>
