<?xml version="1.0" standalone="no"?>
<!DOCTYPE svg PUBLIC "-//W3C//DTD SVG 1.1//EN" "http://www.w3.org/Graphics/SVG/1.1/DTD/svg11.dtd">
<svg class="icon" viewBox="0 0 1024 1024" version="1.1" xmlns="http://www.w3.org/2000/svg" xmlns:xlink="http://www.w3.org/1999/xlink" width="128" height="128">
  <path d="M899.5 899.5h-775v-775h775v775z" fill-opacity="0" ></path><path d="M137 137v750h750V137H137m-25-25h800v800H112V112z" fill="" ></path><path d="M660 603c0-5.225-2.775-9.517-8-13-5.225-2.9-10.775-5-16-5-4.644 0-7.678 1.839-10 3a23.867 23.867 0 0 0-7 6 128.86 128.86 0 0 0-9 12c-3.483 4.064-6.517 7.517-10 11a252.589 252.589 0 0 1-22 21c-9.289 6.967-19.131 13.775-29 19a141.124 141.124 0 0 1-31 13 111.177 111.177 0 0 1-33 5 64.867 64.867 0 0 1-26-5c-9.289-3.483-16.614-9.872-23-18-6.967-6.967-12.936-16.808-17-29-4.644-11.611-6-26.164-6-43 0-10.45-0.161-22.647 1-36 1.161-12.772 2.839-24.97 4-36 3.483-24.964 8.453-47.1 16-68 6.967-19.739 14.711-37.067 24-51a139.571 139.571 0 0 1 30-33c10.45-7.547 20.131-12 30-12a58.209 58.209 0 0 1 14 2c4.064 1.742 7.936 4.678 12 7 5.225 4.064 10.356 7.356 15 12s9.936 10.356 14 15c2.322 4.064 4.678 6.839 7 8 2.322 2.322 4.517 4.839 8 6 2.322 1.742 5.517 2 9 2a32.692 32.692 0 0 0 16-4c4.644-2.9 7-7.194 7-13 0-1.742-0.839-2.678-2-5l-2-5c-5.806-6.386-12.033-13.033-19-20-7.547-6.967-15.292-12.194-24-18-9.289-5.225-19.131-10.517-29-14a87.975 87.975 0 0 0-30-5 97.627 97.627 0 0 0-39 8c-12.772 5.806-23.292 11.872-32 20a180.911 180.911 0 0 0-38 50 319.376 319.376 0 0 0-25 60 379 379 0 0 0-13 65 450.26 450.26 0 0 0-4 59c0 12.192 0.678 24.389 3 36a117.383 117.383 0 0 0 11 35 104.057 104.057 0 0 0 21 30c8.708 9.289 20.647 17.614 34 24 17.417 9.289 36.1 13 57 13 22.061 0 41.583-3.194 59-9s32.067-13.711 46-23a189.474 189.474 0 0 0 36-32 472.602 472.602 0 0 0 27-35l2-5a10.783 10.783 0 0 0 1-5z" fill="" ></path>
</svg>
