<?xml version="1.0" standalone="no"?>
<!DOCTYPE svg PUBLIC "-//W3C//DTD SVG 1.1//EN" "http://www.w3.org/Graphics/SVG/1.1/DTD/svg11.dtd">
<svg class="icon" viewBox="0 0 1024 1024" version="1.1" xmlns="http://www.w3.org/2000/svg" xmlns:xlink="http://www.w3.org/1999/xlink" width="128" height="128">
  <path d="M832 192v640H192V192h640m32-64H160c-17.6 0-32 14.4-32 32v704c0 17.6 14.4 32 32 32h704c17.6 0 32-14.4 32-32V160c0-17.6-14.4-32-32-32zM750.4 318.4l-45.6-45.6L512 467.2 318.4 273.6l-45.6 45.6L467.2 512 273.6 705.6l45.6 45.6L512 557.6l193.6 193.6 45.6-45.6L557.6 512l192.8-193.6z"  ></path>
</svg>
