<?xml version="1.0" encoding="UTF-8" standalone="no"?>
<svg
   class="icon"
   viewBox="0 0 1024 1024"
   version="1.1"
   width="128"
   height="128"
   id="svg1"
   sodipodi:docname="close_cancel.svg"
   inkscape:version="1.4.3 (0d15f75, 2025-12-25)"
   xmlns:inkscape="http://www.inkscape.org/namespaces/inkscape"
   xmlns:sodipodi="http://sodipodi.sourceforge.net/DTD/sodipodi-0.dtd"
   xmlns="http://www.w3.org/2000/svg"
   xmlns:svg="http://www.w3.org/2000/svg">
  <defs
     id="defs1" />
  <sodipodi:namedview
     id="namedview1"
     pagecolor="#ffffff"
     bordercolor="#000000"
     borderopacity="0.25"
     inkscape:showpageshadow="2"
     inkscape:pageopacity="0.0"
     inkscape:pagecheckerboard="0"
     inkscape:deskcolor="#d1d1d1"
     inkscape:zoom="8.8828125"
     inkscape:cx="63.943712"
     inkscape:cy="64"
     inkscape:window-width="2560"
     inkscape:window-height="1351"
     inkscape:window-x="-9"
     inkscape:window-y="-9"
     inkscape:window-maximized="1"
     inkscape:current-layer="svg1" />
  <path
     id="path1"
     style="stroke-width:1.14264"
     d="m 162.76953,130.43359 c -8.90779,0.18292 -17.72796,4.02757 -23.72166,10.65746 -6.66297,7.20298 -9.66336,17.47043 -8.31516,27.15029 0.96424,7.42366 4.51269,14.48056 9.95211,19.63294 108.02564,108.02628 216.05123,216.0526 324.0769,324.07884 C 358.11,620.42049 251.4461,728.87597 144.79883,837.34766 c -6.60179,6.86333 -9.81417,16.68695 -8.91587,26.13128 0.73996,8.67053 4.99615,17.01638 11.75023,22.53757 7.93805,6.63107 19.05113,9.04372 29.07879,6.67452 6.3599,-1.43819 12.23033,-4.83959 16.69279,-9.58799 C 299.60285,776.90431 405.80358,670.70821 512,564.50781 c 106.33721,106.34118 212.67871,212.67806 319.01758,319.01758 7.69504,5.64809 16.90387,9.56499 26.51433,10.01864 5.86913,0.2501 12.10583,-0.92005 16.76772,-4.69945 1.58783,-1.23353 2.78691,-2.8636 3.93965,-4.48382 5.79343,-5.58714 9.34787,-13.36187 9.91772,-21.37863 0.76889,-9.48935 -2.61785,-19.30432 -9.37472,-26.06404 C 772.27106,728.5931 665.75096,620.27672 559.23828,511.95312 667.33402,403.85681 775.42968,295.76041 883.52539,187.66406 c 5.64806,-7.69516 9.56495,-16.90385 10.01864,-26.51433 0.25056,-5.86961 -0.91989,-12.10537 -4.69945,-16.76772 -1.23353,-1.58783 -2.8636,-2.78691 -4.48382,-3.93965 -5.57766,-5.78335 -13.33544,-9.33606 -21.33769,-9.91486 -9.46921,-0.7786 -19.26608,2.58139 -26.03435,9.30106 C 728.65279,248.14943 620.3287,356.48237 512,464.81055 403.67391,356.48483 295.35213,248.15467 187.01902,139.83607 c -6.35143,-6.3001 -15.33785,-9.65663 -24.24949,-9.40248 z" />
</svg>
