<?xml version="1.0" standalone="no"?>
<!DOCTYPE svg PUBLIC "-//W3C//DTD SVG 1.1//EN" "http://www.w3.org/Graphics/SVG/1.1/DTD/svg11.dtd">
<svg class="icon" viewBox="0 0 1024 1024" version="1.1" xmlns="http://www.w3.org/2000/svg" xmlns:xlink="http://www.w3.org/1999/xlink" width="128" height="128">
  <path d="M563.2 512l279.272727-279.272727c13.963636-18.618182 13.963636-41.890909 0-51.2-13.963636-13.963636-37.236364-13.963636-51.2 0l-279.272727 279.272727-279.272727-279.272727c-13.963636-13.963636-37.236364-13.963636-51.2 0-13.963636 13.963636-13.963636 37.236364 0 51.2l279.272727 279.272727-274.618182 279.272727c-13.963636 13.963636-13.963636 37.236364 0 51.2 13.963636 13.963636 37.236364 13.963636 51.2 0l274.618182-274.618182 274.618182 274.618182c18.618182 13.963636 41.890909 13.963636 51.2 0 13.963636-13.963636 13.963636-37.236364 0-51.2l-274.618182-279.272727z"></path>
</svg>
