<?xml version="1.0" encoding="UTF-8" standalone="no"?>
<svg
   t="1779625559925"
   class="icon"
   viewBox="0 0 1026 1024"
   version="1.1"
   p-id="33532"
   width="128.25"
   height="128"
   id="svg2"
   sodipodi:docname="complete.svg"
   inkscape:version="1.4.3 (0d15f75, 2025-12-25)"
   xmlns:inkscape="http://www.inkscape.org/namespaces/inkscape"
   xmlns:sodipodi="http://sodipodi.sourceforge.net/DTD/sodipodi-0.dtd"
   xmlns="http://www.w3.org/2000/svg"
   xmlns:svg="http://www.w3.org/2000/svg">
  <defs
     id="defs2" />
  <sodipodi:namedview
     id="namedview2"
     pagecolor="#ffffff"
     bordercolor="#000000"
     borderopacity="0.25"
     inkscape:showpageshadow="2"
     inkscape:pageopacity="0.0"
     inkscape:pagecheckerboard="0"
     inkscape:deskcolor="#d1d1d1"
     inkscape:zoom="8.8828125"
     inkscape:cx="64.168865"
     inkscape:cy="64"
     inkscape:window-width="2560"
     inkscape:window-height="1351"
     inkscape:window-x="-9"
     inkscape:window-y="-9"
     inkscape:window-maximized="1"
     inkscape:current-layer="svg2" />
  <path
     id="path1"
     style="stroke-width:0.757256"
     d="m 502.28516,116.4043 c -5.50093,0.1939 -11.0026,0.37608 -16.49338,0.77571 -4.70108,0.27743 -9.39099,0.72727 -14.07853,1.17155 -5.04152,0.54909 -10.08112,1.11363 -15.09864,1.85525 -4.7008,0.63092 -9.37803,1.43134 -14.05242,2.23016 -5.05291,0.93363 -10.10123,1.88961 -15.11573,3.01422 -4.57463,0.96668 -9.11373,2.09791 -13.65102,3.22429 -4.9693,1.3067 -9.9328,2.63415 -14.84955,4.12864 -4.49101,1.3031 -8.93272,2.77248 -13.37472,4.23154 -4.82728,1.66227 -9.64814,3.34232 -14.40904,5.18798 -4.44257,1.65864 -8.82595,3.47385 -13.20646,5.28825 -4.69128,2.01443 -9.37134,4.05362 -13.98251,6.2466 -4.24671,1.95682 -8.4245,4.06186 -12.59862,6.16761 -4.55584,2.37415 -9.1001,4.76933 -13.56407,7.3132 -4.092,2.26435 -8.09754,4.68268 -12.10796,7.08714 -4.36774,2.70567 -8.72215,5.43212 -12.98442,8.30217 -3.91153,2.56302 -7.72845,5.26881 -11.54618,7.96834 -4.10038,2.98583 -8.19191,5.98337 -12.17572,9.12416 -3.78905,2.90597 -7.47287,5.94773 -11.15302,8.98929 -3.89385,3.3018 -7.77199,6.6215 -11.53724,10.07015 -3.48696,3.11569 -6.86137,6.35622 -10.23473,9.59353 -3.63479,3.58375 -7.26054,7.17635 -10.75691,10.89626 -3.27039,3.38941 -6.41624,6.89764 -9.56569,10.39875 -3.36021,3.84287 -6.70303,7.70047 -9.91502,11.66887 -3.00974,3.62253 -5.88636,7.35444 -8.76532,11.08091 -3.08568,4.10832 -6.15101,8.23134 -9.07858,12.45454 -2.69324,3.7818 -5.2465,7.66208 -7.80645,11.53458 -2.78809,4.35533 -5.55905,8.72119 -8.18111,13.1792 -2.42061,4.00044 -4.69177,8.09022 -6.97263,12.17111 -2.40991,4.46298 -4.80662,8.93282 -7.04421,13.48542 -2.15031,4.22706 -4.14274,8.53326 -6.13879,12.83446 -2.07034,4.62987 -4.12712,9.26551 -6.01999,13.97149 -1.82899,4.37513 -3.50045,8.81521 -5.16868,13.2534 -1.74434,4.83349 -3.46783,9.67416 -5.02828,14.57078 -1.4755,4.43689 -2.78782,8.92714 -4.10598,13.41252 -1.37087,4.91755 -2.72497,9.83955 -3.90766,14.80642 -1.15016,4.56696 -2.13173,9.17537 -3.12159,13.779 -1.00262,5.00522 -1.98509,10.01408 -2.79516,15.05471 -0.80756,4.63976 -1.44517,9.30818 -2.09027,13.97257 -0.62661,5.06641 -1.23632,10.13466 -1.66881,15.22201 -0.4593,4.68688 -0.74865,9.38948 -1.04415,14.08882 -0.24899,5.09972 -0.47766,10.20013 -0.53123,15.30631 -0.10981,4.70688 -0.0506,9.41693 0.006,14.124 0.13113,5.13683 0.28359,10.27271 0.6115,15.4014 0.24133,4.67041 0.64905,9.33148 1.05073,13.99016 0.51242,5.11216 1.04921,10.22142 1.75565,15.31102 0.57932,4.60726 1.33166,9.19166 2.06994,13.77543 0.89882,5.092 1.81618,10.18045 2.90613,15.23565 0.928,4.58331 2.02347,9.13177 3.11182,13.67897 1.26433,4.97994 2.55283,9.95335 4.00602,14.88215 1.26583,4.50172 2.69961,8.95514 4.1219,13.40913 1.63137,4.8725 3.28488,9.73724 5.10162,14.54438 1.60038,4.39384 3.35495,8.73085 5.10668,13.06583 1.98977,4.7377 4.00103,9.46597 6.16947,14.1253 1.92022,4.26214 3.99439,8.454 6.06181,12.64594 2.29407,4.48698 4.59399,8.97074 7.05888,13.36706 2.27596,4.19815 4.70268,8.31357 7.1311,12.4245 2.68817,4.41804 5.39387,8.82503 8.24681,13.13927 2.51455,3.90302 5.17231,7.71274 7.81892,11.52664 2.95144,4.12471 5.91493,8.24055 9.02254,12.24981 2.87551,3.8128 5.88586,7.52293 8.89736,11.22834 3.24812,3.89527 6.51465,7.77466 9.9099,11.54321 3.10739,3.53845 6.34282,6.96347 9.57124,10.39076 3.57598,3.69009 7.16762,7.36425 10.88135,10.91656 3.3391,3.27328 6.79767,6.42362 10.24798,9.57846 3.84045,3.414 7.69364,6.81317 11.66208,10.07856 3.57303,3.01546 7.25429,5.90136 10.92994,8.78972 4.05751,3.09858 8.1245,6.18438 12.29829,9.12567 3.81429,2.7625 7.72755,5.38693 11.63522,8.01438 4.30312,2.80729 8.62119,5.59084 13.02788,8.23371 3.97938,2.45455 8.04772,4.76318 12.11159,7.07376 4.41479,2.42991 8.83398,4.85133 13.33958,7.11007 4.2686,2.21466 8.61617,4.2752 12.96254,6.3313 4.64145,2.12429 9.29272,4.22618 14.01207,6.17287 4.30003,1.83726 8.66763,3.51374 13.02853,5.19949 4.81889,1.78507 9.64505,3.54967 14.52923,5.14955 4.42571,1.50912 8.90372,2.86288 13.37856,4.21709 4.93821,1.42072 9.88163,2.82228 14.87084,4.0547 4.52513,1.17694 9.09163,2.192 13.65464,3.20893 5.02955,1.04996 10.06339,2.07778 15.12957,2.93741 4.56742,0.83496 9.16524,1.49789 13.75809,2.17376 5.12669,0.67646 10.25528,1.33594 15.40457,1.81798 4.6499,0.49453 9.31716,0.81666 13.98065,1.15016 5.09756,0.29127 10.19585,0.56312 15.30148,0.65905 4.70579,0.15 9.41613,0.12724 14.12359,0.11036 5.13768,-0.0886 10.27469,-0.19762 15.40588,-0.48284 4.70542,-0.20433 9.40291,-0.57525 14.09757,-0.94473 5.05031,-0.46412 10.09836,-0.94943 15.12781,-1.60687 4.67717,-0.55034 9.33323,-1.27258 13.98745,-1.98667 5.06774,-0.84964 10.13172,-1.71929 15.16381,-2.76269 4.58959,-0.89248 9.14621,-1.95026 13.70177,-2.99967 4.9585,-1.21727 9.91252,-2.45181 14.82169,-3.85735 4.51157,-1.22682 8.97628,-2.62184 13.44159,-4.00512 4.91693,-1.60301 9.82756,-3.22446 14.68106,-5.01226 4.40745,-1.56023 8.75695,-3.2818 13.10485,-4.99884 4.72304,-1.93915 9.43979,-3.89282 14.0862,-6.01066 4.3097,-1.89711 8.55025,-3.94934 12.78903,-5.99841 4.56574,-2.28495 9.12411,-4.58405 13.59957,-7.04259 4.15593,-2.21387 8.23169,-4.57659 12.30782,-6.93275 4.41157,-2.6341 8.81187,-5.28631 13.12134,-8.08549 3.92636,-2.47862 7.7577,-5.10577 11.59425,-7.71977 4.22971,-2.97448 8.44961,-5.96234 12.56429,-9.09514 3.75604,-2.786 7.41052,-5.70768 11.0659,-8.62324 3.99846,-3.27983 7.98264,-6.57652 11.85403,-10.00638 3.51106,-3.0375 6.91245,-6.2006 10.31721,-9.35581 3.67115,-3.5 7.32971,-7.01277 10.86509,-10.6508 3.35131,-3.35551 6.57864,-6.83333 9.80604,-10.30719 3.42304,-3.7874 6.831,-7.58798 10.10748,-11.5037 3.06754,-3.57236 6.00604,-7.2544 8.94482,-10.93251 3.13207,-4.0319 6.25123,-8.07347 9.22716,-12.22281 2.79429,-3.79067 5.45209,-7.681 8.10868,-11.56854 2.84198,-4.281 5.66707,-8.57282 8.34511,-12.959 2.48424,-3.96194 4.82788,-8.0113 7.1732,-12.05624 2.53193,-4.50859 5.04227,-9.02867 7.40335,-13.62969 2.16905,-4.10419 4.18769,-8.28699 6.21029,-12.46451 2.1769,-4.65508 4.33459,-9.31867 6.33239,-14.05408 1.87056,-4.28526 3.58437,-8.63797 5.30604,-12.98444 1.81186,-4.77289 3.60848,-9.55131 5.23721,-14.39048 1.55967,-4.4442 2.95886,-8.94382 4.36009,-13.43977 1.46211,-4.925 2.90189,-9.85624 4.17604,-14.83383 1.21547,-4.51567 2.26679,-9.07478 3.32215,-13.62974 1.09163,-5.02044 2.16187,-10.04509 3.06264,-15.1039 0.87799,-4.59324 1.58564,-9.21807 2.30171,-13.83862 0.71009,-5.05583 1.40512,-10.11354 1.92151,-15.19351 0.53761,-4.6779 0.9051,-9.37446 1.27585,-14.06778 0.33568,-5.1278 0.64857,-10.25674 0.78884,-15.39423 0.18575,-4.70492 0.20568,-9.41573 0.22356,-14.12362 -0.0424,-5.10468 -0.12055,-10.2085 -0.3557,-15.30845 -0.16368,-4.60394 -0.48434,-9.2019 -0.80521,-13.79696 -0.41803,-5.08711 -0.86954,-10.17086 -1.47994,-15.23902 -0.50209,-4.58062 -1.15678,-9.14427 -1.8172,-13.70419 -0.79154,-5.04303 -1.61443,-10.08065 -2.59705,-15.09053 -0.83956,-4.53068 -1.82969,-9.03331 -2.82231,-13.53233 -1.16081,-4.97003 -2.35175,-9.93257 -3.69987,-14.85568 -1.16957,-4.4565 -2.48873,-8.87342 -3.80963,-13.28683 -1.51298,-4.84069 -3.05456,-9.67186 -4.75061,-14.45207 -1.50287,-4.39091 -3.15672,-8.72974 -4.81008,-13.06555 -1.87751,-4.74658 -3.78267,-9.48167 -5.8386,-14.15434 -1.81076,-4.23676 -3.76322,-8.41263 -5.71793,-12.5843 -2.22073,-4.5951 -4.47162,-9.17499 -6.86485,-13.68325 -2.11774,-4.09216 -4.373,-8.11286 -6.62829,-12.13022 -2.53731,-4.39153 -5.0985,-8.76863 -7.80177,-13.06067 -2.42808,-3.95427 -4.99155,-7.8249 -7.55376,-11.69289 -2.85295,-4.19358 -5.73144,-8.36916 -8.74246,-12.45142 -2.69246,-3.73935 -5.51258,-7.38618 -8.33262,-11.02949 -3.21605,-4.04817 -6.45734,-8.07559 -9.82267,-12.00123 -2.94169,-3.50323 -6.00124,-6.90716 -9.0607,-10.30733 -3.45876,-3.75343 -6.94268,-7.48294 -10.54151,-11.10303 -3.21328,-3.30199 -6.5392,-6.49391 -9.86348,-9.68338 -3.72629,-3.48806 -7.47468,-6.95178 -11.33009,-10.29739 -3.44819,-3.0562 -6.99988,-5.99518 -10.55075,-8.93057 -3.9476,-3.18405 -7.91105,-6.34782 -11.97821,-9.37868 -3.68948,-2.81567 -7.47426,-5.50579 -11.25774,-8.19272 -4.19747,-2.90362 -8.41427,-5.77828 -12.71871,-8.52178 -3.85964,-2.51732 -7.80263,-4.90664 -11.74648,-7.28871 -4.40005,-2.58691 -8.81687,-5.1442 -13.31186,-7.56348 -4.03353,-2.22726 -8.14231,-4.31758 -12.24966,-6.40432 -4.57814,-2.25679 -9.17048,-4.48365 -13.83147,-6.56527 -4.18668,-1.9234 -8.43709,-3.7076 -12.68771,-5.48367 -4.73221,-1.91383 -9.47663,-3.79586 -14.27815,-5.52999 -4.31691,-1.61179 -8.68836,-3.0766 -13.05774,-4.53823 -4.86015,-1.55991 -9.72996,-3.088 -14.64594,-4.46381 -4.42335,-1.28844 -8.88936,-2.42946 -13.35413,-3.56379 -4.96191,-1.19946 -9.93125,-2.36546 -14.93573,-3.37536 -4.50606,-0.96007 -9.04394,-1.76958 -13.58008,-2.57247 -5.03726,-0.83021 -10.07921,-1.6289 -15.14492,-2.2672 -4.56517,-0.62417 -9.15096,-1.09609 -13.73413,-1.56457 -5.08347,-0.45811 -10.16953,-0.88137 -15.26721,-1.14687 -4.59831,-0.28893 -9.2061,-0.41993 -13.81099,-0.55159 -5.10413,-0.0827 -10.20832,-0.13246 -15.31246,-0.0206 -0.97191,0.012 -1.94383,0.0241 -2.91574,0.0361 z m 21.41796,64.55273 c 5.02151,0.23093 10.04277,0.46564 15.05174,0.89893 4.16997,0.31934 8.33086,0.76608 12.48569,1.2396 4.6689,0.57161 9.32808,1.2115 13.96931,1.97765 4.06796,0.65281 8.12129,1.40649 12.16227,2.20845 4.64956,0.94496 9.27985,1.97588 13.88675,3.1111 3.9313,0.96367 7.84306,2.0148 11.73672,3.12035 4.52118,1.29939 9.01724,2.68 13.48063,4.1662 3.84661,1.2731 7.66625,2.63324 11.46535,4.04134 4.41589,1.65886 8.80075,3.39554 13.14396,5.23666 3.71872,1.56921 7.40365,3.22293 11.06491,4.92152 4.26202,2.00154 8.49015,4.07168 12.66531,6.24904 3.61407,1.87181 7.18549,3.82951 10.73023,5.82911 4.09041,2.33215 8.13743,4.73696 12.12743,7.23725 3.42404,2.13561 6.80055,4.35056 10.14833,6.60352 3.88907,2.65019 7.73415,5.36231 11.51083,8.17068 3.25311,2.39953 6.44524,4.88405 9.60997,7.39858 3.69342,2.97276 7.34031,6.00109 10.90817,9.1238 3.0519,2.6547 6.03969,5.38541 8.99677,8.14502 3.43177,3.24173 6.81073,6.5372 10.10471,9.91915 2.82897,2.88711 5.59069,5.84231 8.31727,8.82602 3.16571,3.50629 6.27498,7.06155 9.29273,10.69625 2.59456,3.10602 5.11538,6.27564 7.5999,9.4701 2.89429,3.76674 5.72439,7.58082 8.46096,11.46387 2.32323,3.27149 4.56183,6.60473 6.76614,9.95718 2.58544,3.98361 5.10308,8.00935 7.52221,12.09629 2.0648,3.4716 4.05243,6.99116 5.9914,10.53441 2.23892,4.14133 4.41953,8.31269 6.48503,12.54351 1.79756,3.64981 3.51023,7.34325 5.17556,11.05506 1.91702,4.32497 3.7576,8.68199 5.49219,13.08346 1.49656,3.77576 2.91048,7.58623 4.26922,11.41361 1.55321,4.42313 3.03136,8.87093 4.39837,13.35529 1.1903,3.86487 2.28941,7.75947 3.34384,11.66338 1.21751,4.60886 2.35106,9.23811 3.37709,13.89346 0.87005,3.93115 1.65729,7.88249 2.39322,11.84082 0.83737,4.62992 1.59112,9.27324 2.23591,13.93401 0.56794,4.02894 1.03933,8.07311 1.46223,12.11966 0.46433,4.65307 0.84906,9.31249 1.11922,13.98103 0.2479,4.07483 0.39747,8.15725 0.4978,12.23818 0.0963,4.79359 0.10264,9.58719 0.005,14.3808 -0.0965,4.12144 -0.24863,8.24423 -0.49927,12.35938 -0.3015,5.32363 -0.76808,10.63572 -1.31449,15.93915 -0.54953,4.83764 -1.14858,9.66875 -1.89179,14.48088 -0.60343,4.01047 -1.29962,8.00868 -2.04688,11.99469 -0.88977,4.65254 -1.87423,9.28496 -2.95405,13.8971 -0.95095,4.0063 -1.95298,8.00326 -3.05405,11.97116 -1.41678,5.18437 -2.9835,10.32599 -4.63899,15.43856 -1.53594,4.59995 -3.121,9.18251 -4.84062,13.71742 -1.42325,3.79484 -2.93741,7.55733 -4.49929,11.29708 -1.81182,4.30419 -3.70449,8.57239 -5.69365,12.79765 -1.71448,3.64417 -3.49866,7.25783 -5.34024,10.8394 -2.21569,4.2951 -4.53519,8.53384 -6.92329,12.73532 -2.65867,4.62218 -5.40801,9.19314 -8.28687,13.68212 -2.23732,3.54348 -4.58677,7.01683 -6.96012,10.47011 -2.69521,3.86242 -5.44518,7.68507 -8.29591,11.4345 -2.43888,3.22322 -4.94941,6.3945 -7.50307,9.52742 -3.01498,3.68206 -6.1078,7.29762 -9.27082,10.85324 -2.80901,3.1225 -5.64664,6.22319 -8.57215,9.23734 -3.6768,3.83736 -7.46925,7.56179 -11.32462,11.21881 -3.52484,3.29491 -7.09204,6.54279 -10.74828,9.69175 -3.07678,2.66013 -6.20899,5.25917 -9.38034,7.8057 -3.6831,2.95198 -7.43155,5.81881 -11.23338,8.61607 -3.31514,2.40963 -6.65362,4.79191 -10.0528,7.082 -4.40156,2.99708 -8.89324,5.85795 -13.42771,8.64867 -4.12158,2.48166 -8.26888,4.91879 -12.48904,7.22973 -3.60255,1.99938 -7.25647,3.90931 -10.93241,5.7698 -4.26821,2.1442 -8.57952,4.19806 -12.93141,6.16681 -4.73552,2.11832 -9.50771,4.15884 -14.33988,6.04815 -4.0993,1.65321 -8.25876,3.156 -12.424,4.63312 -4.48745,1.55648 -8.99945,3.03747 -13.54715,4.40856 -3.86759,1.16724 -7.75865,2.26409 -11.6655,3.29218 -4.62925,1.21614 -9.28551,2.3198 -13.96044,3.34566 -5.1522,1.10217 -10.32472,2.11478 -15.52519,2.96443 -4.25962,0.73515 -8.5435,1.33169 -12.82889,1.89347 -4.66559,0.586 -9.34005,1.08774 -14.02599,1.48039 -4.01658,0.33843 -8.0417,0.60028 -12.0679,0.79262 -4.72417,0.22334 -9.45112,0.33994 -14.18041,0.36721 -4.18774,0.003 -8.37842,-0.0322 -12.56363,-0.18732 -5.34779,-0.1645 -10.68804,-0.49913 -16.0218,-0.91075 -4.82395,-0.42567 -9.64309,-0.89653 -14.44616,-1.5185 -4.07164,-0.50017 -8.12986,-1.11746 -12.18067,-1.76274 -4.58831,-0.76842 -9.16414,-1.60346 -13.71674,-2.56236 -4.0621,-0.82916 -8.10157,-1.77428 -12.12993,-2.75281 -4.59263,-1.14668 -9.16367,-2.37296 -13.70459,-3.71036 -3.85045,-1.12234 -7.67568,-2.33677 -11.48408,-3.59374 -4.53755,-1.52789 -9.0497,-3.12665 -13.52119,-4.83882 -3.79427,-1.44886 -7.56158,-2.97406 -11.30163,-4.55742 -4.38214,-1.86928 -8.72532,-3.8249 -13.02654,-5.87358 -3.59128,-1.71621 -7.15587,-3.49362 -10.68395,-5.33624 -4.18828,-2.19638 -8.33686,-4.46492 -12.43058,-6.83315 -3.49953,-2.01712 -6.95528,-4.11367 -10.38197,-6.2519 -3.98964,-2.51418 -7.93335,-5.09813 -11.81563,-7.77535 -3.30595,-2.2738 -6.56159,-4.62369 -9.78846,-7.00811 -3.77729,-2.82518 -7.50814,-5.70996 -11.16495,-8.68977 -3.1478,-2.54377 -6.23162,-5.16891 -9.28589,-7.82385 -3.54625,-3.12089 -7.04192,-6.29701 -10.45556,-9.56272 -2.93193,-2.78254 -5.79501,-5.6397 -8.62544,-8.52507 -3.30912,-3.41343 -6.56006,-6.88108 -9.72543,-10.42846 -2.67987,-2.9852 -5.28675,-6.03791 -7.85927,-9.11581 -2.99661,-3.63096 -5.93998,-7.30416 -8.78389,-11.05626 -2.45675,-3.21017 -4.82708,-6.48794 -7.17009,-9.78169 -2.6987,-3.85554 -5.34036,-7.74937 -7.87593,-11.71443 -2.22822,-3.4443 -4.3639,-6.9499 -6.46579,-10.47235 -2.38647,-4.05891 -4.70647,-8.15516 -6.9226,-12.30976 -1.92688,-3.58499 -3.77,-7.2169 -5.565,-10.86951 -2.07171,-4.26546 -4.07053,-8.56455 -5.96523,-12.9117 -1.61982,-3.69694 -3.15753,-7.4318 -4.64417,-11.18411 -1.7188,-4.39291 -3.35929,-8.81466 -4.8947,-13.27512 -1.32617,-3.82864 -2.56682,-7.68874 -3.75619,-11.5619 -1.3596,-4.50339 -2.64594,-9.02735 -3.81897,-13.5831 -1.02626,-3.9499 -1.96152,-7.92521 -2.847,-11.90887 -0.99416,-4.57106 -1.91004,-9.15752 -2.71279,-13.76622 -0.71285,-4.024 -1.3321,-8.06627 -1.90008,-12.11307 -0.62719,-4.62817 -1.17404,-9.2656 -1.60683,-13.91615 -0.39103,-4.02976 -0.68132,-8.07072 -0.92787,-12.11165 -0.26158,-4.75326 -0.44491,-9.5093 -0.51139,-14.26947 -0.0649,-4.05096 -0.034,-8.10514 0.0456,-12.15568 0.1147,-4.76031 0.31526,-9.51685 0.62438,-14.26861 0.26206,-4.00566 0.60501,-8.00802 1.00434,-12.00226 0.48669,-4.68168 1.05703,-9.35297 1.73686,-14.01066 0.57763,-4.01043 1.24505,-8.00971 1.96467,-11.99696 0.85972,-4.64586 1.80035,-9.27507 2.85155,-13.88152 0.87967,-3.90366 1.85602,-7.78706 2.87248,-11.65714 1.22553,-4.55151 2.51608,-9.08417 3.92975,-13.58111 1.19789,-3.87249 2.49815,-7.71467 3.83427,-11.54139 1.58166,-4.4382 3.22696,-8.85232 4.99218,-13.22106 1.50269,-3.76875 3.10428,-7.49951 4.74185,-11.21136 1.94598,-4.33563 3.95649,-8.6408 6.07954,-12.89281 1.78086,-3.59618 3.65194,-7.14934 5.55883,-10.68006 2.28521,-4.16893 4.63182,-8.30264 7.08604,-12.37464 2.07446,-3.46224 4.23133,-6.87698 6.42476,-10.26488 2.59247,-3.9526 5.24635,-7.86317 8.00053,-11.70511 2.35549,-3.30674 4.78978,-6.55936 7.2625,-9.77915 2.86261,-3.68992 5.78149,-7.33438 8.79569,-10.90184 2.6185,-3.12778 5.32044,-6.18739 8.04952,-9.21879 3.18112,-3.48893 6.41682,-6.92609 9.7405,-10.27981 2.86074,-2.90453 5.79019,-5.74373 8.75339,-8.54339 3.44687,-3.22669 6.94914,-6.39179 10.52652,-9.47336 3.06054,-2.64594 6.18152,-5.22471 9.33407,-7.76007 3.67914,-2.93027 7.40465,-5.79993 11.20173,-8.57599 3.24303,-2.3867 6.54578,-4.69477 9.87065,-6.96568 3.94661,-2.6617 7.93612,-5.25698 11.98968,-7.75312 3.43078,-2.12612 6.91428,-4.17014 10.41914,-6.17139 4.1397,-2.33782 8.31712,-4.60563 12.55004,-6.77048 3.56975,-1.83314 7.18198,-3.58747 10.81426,-5.29304 4.28072,-1.98608 8.59167,-3.90349 12.95109,-5.71085 3.71226,-1.55275 7.46408,-3.01484 11.22864,-4.43549 4.44982,-1.64731 8.9232,-3.22699 13.43697,-4.69077 3.82013,-1.25232 7.67252,-2.41106 11.53427,-3.52763 4.56834,-1.28997 9.1548,-2.51065 13.77248,-3.612 3.88925,-0.94146 7.80395,-1.78344 11.72292,-2.5911 4.66705,-0.92595 9.34661,-1.78176 14.04828,-2.51354 4.03448,-0.64163 8.08583,-1.18736 12.14052,-1.68397 4.67457,-0.55084 9.35734,-1.01764 14.05083,-1.37443 4.03514,-0.31797 8.07979,-0.53457 12.1236,-0.70583 4.75831,-0.17975 9.51816,-0.27329 14.27994,-0.25784 3.51862,-0.0194 7.03671,0.13073 10.55476,0.18701 z" />
  <path
     id="path2"
     style="stroke-width:0.757256"
     d="m 683.41406,358.75977 c -2.68156,0.065 -5.3631,0.38516 -7.94978,1.11055 -2.27653,0.56911 -4.45421,1.47469 -6.55022,2.52226 -2.15658,1.14243 -4.2038,2.50406 -6.06226,4.08742 -5.66402,5.13246 -11.3283,10.26462 -16.99242,15.39695 0.9707,0 1.9414,0 2.9121,0 -67.72461,67.8724 -135.44921,135.74479 -203.17382,203.61719 -28.75099,-28.74294 -57.4861,-57.5022 -86.24701,-86.23493 -1.57267,-1.55625 -3.27502,-2.98828 -5.12882,-4.1966 -2.20786,-1.469 -4.59054,-2.67183 -7.09316,-3.55125 -2.1081,-0.77775 -4.30977,-1.28487 -6.53201,-1.61008 -2.20835,-0.31897 -4.44739,-0.36668 -6.67478,-0.24894 -2.40329,0.17383 -4.78893,0.59825 -7.10547,1.26172 -2.14741,0.66301 -4.25011,1.48482 -6.22536,2.55892 -1.92182,1.03571 -3.75516,2.24269 -5.42807,3.64494 -2.04473,1.68594 -3.88544,3.61609 -5.45294,5.75369 -1.33599,1.76554 -2.45525,3.69177 -3.39717,5.6952 -0.96092,2.03246 -1.66788,4.17656 -2.20916,6.35769 -0.54101,2.36425 -0.82957,4.78726 -0.86738,7.21222 0.0136,2.24739 0.18396,4.49873 0.64103,6.70067 0.44283,2.17041 1.07244,4.3084 1.95197,6.34161 1.0283,2.47819 2.38448,4.81161 3.99296,6.95775 2.19679,2.95445 4.99069,5.3868 7.54307,8.02354 34.64868,34.64216 69.2847,69.29771 103.94128,103.93151 1.91213,1.83593 4.00102,3.49741 6.30902,4.80964 2.03574,1.2455 4.25386,2.16283 6.51129,2.92473 2.30636,0.71593 4.68806,1.19402 7.09402,1.40342 2.64559,0.20059 5.31544,0.1281 7.93126,-0.33304 2.29771,-0.33929 4.53366,-1.01765 6.69914,-1.8499 1.96891,-0.78993 3.85366,-1.77748 5.63886,-2.92524 2.47313,-1.59122 4.6451,-3.59299 6.69351,-5.69383 79.56279,-79.56678 159.13388,-159.12587 238.69148,-238.69747 1.52451,-1.60707 2.93943,-3.32237 4.1279,-5.19273 1.41792,-2.23571 2.59484,-4.62619 3.4199,-7.14419 0.77016,-2.18106 1.2211,-4.46226 1.51057,-6.75452 0.24571,-2.42766 0.25647,-4.88465 -0.0293,-7.30917 -0.32183,-2.66531 -0.94794,-5.29324 -1.92356,-7.79609 -0.78756,-2.13764 -1.8702,-4.15414 -3.08233,-6.08029 -1.32959,-2.00955 -2.86358,-3.88898 -4.58973,-5.57105 -1.91679,-1.82661 -4.02042,-3.46351 -6.32919,-4.76607 -2.01219,-1.20711 -4.19263,-2.10745 -6.41507,-2.85038 -2.3342,-0.71651 -4.74446,-1.20788 -7.18022,-1.39848 -0.98958,-0.0279 -1.98087,-0.14189 -2.97017,-0.10737 z" />
</svg>
