<?xml version="1.0" encoding="UTF-8" standalone="no"?>
<svg
   t="1779625559925"
   class="icon"
   viewBox="0 0 1026 1024"
   version="1.1"
   p-id="33532"
   width="128.25"
   height="128"
   id="svg2"
   sodipodi:docname="complete.svg"
   inkscape:version="1.4.3 (0d15f75, 2025-12-25)"
   xmlns:inkscape="http://www.inkscape.org/namespaces/inkscape"
   xmlns:sodipodi="http://sodipodi.sourceforge.net/DTD/sodipodi-0.dtd"
   xmlns="http://www.w3.org/2000/svg"
   xmlns:svg="http://www.w3.org/2000/svg">
  <defs
     id="defs2" />
  <sodipodi:namedview
     id="namedview2"
     pagecolor="#ffffff"
     bordercolor="#000000"
     borderopacity="0.25"
     inkscape:showpageshadow="2"
     inkscape:pageopacity="0.0"
     inkscape:pagecheckerboard="0"
     inkscape:deskcolor="#d1d1d1"
     inkscape:zoom="8.8828125"
     inkscape:cx="64.168865"
     inkscape:cy="64"
     inkscape:window-width="2560"
     inkscape:window-height="1351"
     inkscape:window-x="-9"
     inkscape:window-y="-9"
     inkscape:window-maximized="1"
     inkscape:current-layer="svg2" />
  <path
     id="path1"
     style="stroke-width:0.757256"
     d="m 509.14844,124.3125 c -3.56891,0.0593 -7.13887,0.066 -10.70508,0.23242 -0.78007,0.0341 -1.86538,0.0742 -2.76266,0.11067 -26.5776,1.09931 -53.0354,4.98978 -78.82516,11.5036 -1.58537,0.3868 -3.15742,0.82555 -4.7364,1.23729 -0.39095,0.10121 -1.15905,0.31347 -1.69435,0.45719 -21.64462,5.86357 -42.77401,13.62716 -63.07323,23.1561 -0.80619,0.37558 -1.86991,0.8804 -2.77503,1.30563 -20.04948,9.61347 -39.2816,20.9339 -57.39464,33.83213 -1.47354,1.02613 -2.91232,2.10068 -4.36548,3.1552 -0.31002,0.22383 -0.96569,0.7136 -1.40803,1.03924 -14.9998,11.08963 -29.19506,23.26981 -42.43377,36.41194 -0.31851,0.31365 -0.89673,0.89542 -1.3147,1.31175 -15.21105,15.21239 -29.132,31.71493 -41.60118,49.24531 -14.09097,19.8018 -26.30216,40.93886 -36.4408,63.02645 -7.70066,16.80083 -14.21124,34.14779 -19.43824,51.87547 -0.23532,0.78424 -0.54635,1.85471 -0.81074,2.74888 -1.24326,4.38966 -2.43462,8.79452 -3.54473,13.21987 -0.0687,0.30225 -0.28219,1.16685 -0.40645,1.68489 -3.7011,15.07993 -6.4746,30.38741 -8.33183,45.80339 -0.0497,0.4007 -0.13919,1.19259 -0.20413,1.74302 -1.04954,8.9702 -1.76181,17.97957 -2.17673,27.00112 -0.0116,0.38672 -0.049,1.19973 -0.0705,1.74964 -0.48741,11.55735 -0.41887,23.13563 0.12515,34.68982 0.0186,0.27758 0.0623,1.19849 0.0906,1.7234 0.55342,10.27567 1.50018,20.5305 2.87036,30.72972 0.19566,1.39563 0.39307,3.02835 0.62284,4.51185 0.10682,0.72144 0.26551,1.77681 0.33804,2.27834 0.72021,4.75024 1.53721,9.48471 2.4278,14.2059 0.0495,0.27509 0.22772,1.17833 0.3267,1.69489 2.41589,12.49338 5.48345,24.85783 9.10689,37.05511 0.0279,0.0686 0.33544,1.09656 0.46692,1.5205 3.30317,10.87482 7.07474,21.60807 11.32409,32.14943 0.22145,0.55718 0.57346,1.42242 0.84499,2.09776 1.09592,2.70083 2.25796,5.37434 3.40306,8.05458 0.1107,0.23793 0.48435,1.09776 0.69625,1.57503 10.25968,23.28475 22.83662,45.54362 37.45157,66.37155 13.63952,19.40154 29.04739,37.56178 45.99521,54.15298 16.20829,15.87931 33.81607,30.3309 52.55363,43.1279 1.67691,1.14204 3.24254,2.19125 4.94592,3.33895 15.48066,10.19945 31.66572,19.33393 48.44058,27.22914 22.55113,10.63162 46.12768,19.09074 70.30161,25.19273 3.33968,0.8563 6.69679,1.64389 10.06054,2.40039 0.8324,0.18996 1.95176,0.43733 2.89438,0.64934 10.75777,2.30257 21.6035,4.20624 32.51773,5.59676 0.44181,0.0586 1.25743,0.15749 1.84239,0.23151 5.44583,0.69048 10.87362,1.23089 16.33925,1.6806 0.29337,0.0254 1.19689,0.0908 1.72459,0.13151 22.21774,1.7136 44.58448,1.49225 66.76544,-0.64159 22.16274,-2.1248 44.13795,-6.17942 65.60763,-12.07196 0.33031,-0.0893 1.15582,-0.32515 1.67589,-0.47061 2.25474,-0.6286 4.5065,-1.26981 6.74794,-1.9454 0.2951,-0.0948 1.14809,-0.35078 1.65728,-0.50744 5.88165,-1.7701 11.70686,-3.7236 17.49702,-5.77186 0.29977,-0.10603 1.12812,-0.41065 1.63065,-0.59286 12.32557,-4.44776 24.41744,-9.54237 36.22481,-15.22355 0.63798,-0.31371 1.56069,-0.75468 2.30796,-1.11724 13.94811,-6.82878 27.48014,-14.50324 40.51626,-22.9433 0.24403,-0.15426 0.98313,-0.63704 1.41731,-0.92052 18.53191,-12.15653 36.03827,-25.87825 52.23266,-41.01103 16.74421,-15.63865 32.09834,-32.76192 45.82024,-51.10935 15.19886,-20.31033 28.38484,-42.12283 39.33304,-65.00567 1.75736,-3.6901 3.45609,-7.40821 5.11667,-11.14289 0.1002,-0.24355 0.47871,-1.10024 0.68601,-1.57975 2.58106,-5.9713 5.03914,-11.99682 7.3179,-18.09017 0.15836,-0.41618 0.44194,-1.18769 0.64826,-1.73995 3.13929,-8.44025 5.96651,-16.99665 8.49627,-25.63895 0.1118,-0.3734 0.33302,-1.15362 0.48671,-1.68274 7.36117,-25.51381 12.07752,-51.78873 14.07187,-78.26796 0.84174,-11.31686 1.20975,-22.67046 1.05666,-34.01805 -0.004,-0.38731 -0.0199,-1.20056 -0.0284,-1.75092 -0.0114,-0.67613 -0.0228,-1.35225 -0.0341,-2.02838 -0.0118,-0.26151 -0.0325,-1.19941 -0.0478,-1.72124 -0.11234,-4.17606 -0.29085,-8.35056 -0.53622,-12.52095 -0.0162,-0.30176 -0.077,-1.19793 -0.11032,-1.72788 -1.3921,-21.91308 -4.65631,-43.70766 -9.74515,-65.06704 -0.0925,-0.39549 -0.2818,-1.16713 -0.41136,-1.7066 -7.30615,-30.12966 -18.25009,-59.37682 -32.52178,-86.8996 -11.77529,-22.73625 -25.81274,-44.30235 -41.84369,-64.26738 -0.70411,-0.87252 -1.6545,-2.04401 -2.20081,-2.72509 -0.80042,-0.97167 -1.60084,-1.94333 -2.40126,-2.915 -0.0764,-0.0803 -0.74244,-0.87771 -1.03464,-1.22045 -18.78485,-22.36293 -40.12128,-42.57999 -63.44974,-60.15064 -0.50599,-0.38427 -1.27971,-0.9609 -1.88842,-1.41896 -17.38058,-12.93014 -35.84777,-24.39927 -55.14283,-34.24706 -0.90699,-0.4575 -2.05262,-1.04671 -3.05273,-1.55274 -7.50379,-3.71572 -15.10323,-7.24117 -22.82617,-10.47851 -0.62302,-0.25733 -1.5374,-0.64425 -2.27224,-0.95131 -8.04062,-3.31015 -16.18331,-6.37516 -24.42698,-9.14244 -0.74157,-0.25192 -1.76982,-0.59404 -2.62147,-0.88059 -4.91697,-1.59657 -10.04225,-3.19132 -14.90002,-4.55886 -12.41837,-3.54418 -25.01753,-6.45342 -37.72851,-8.73438 -0.70005,-0.12079 -1.7069,-0.30291 -2.52472,-0.44724 -16.79946,-2.8949 -33.78926,-4.67812 -50.82294,-5.34963 -0.31109,-0.006 -1.19984,-0.0395 -1.73259,-0.0561 -5.39968,-0.20247 -10.80379,-0.25135 -16.20686,-0.22906 z m 4.00976,48.45703 c 11.11325,0.0409 22.22438,0.62582 33.2803,1.75418 41.21579,4.18854 81.635,16.02923 118.6021,34.7292 36.26516,18.31938 69.18865,43.22121 96.67404,73.14396 28.07654,30.50432 50.47005,66.2152 65.71083,104.77064 14.68993,37.08908 22.76194,76.78519 23.70439,116.66709 0.92216,37.80087 -4.54279,75.74721 -16.10365,111.74901 -11.6262,36.30941 -29.44825,70.62018 -52.44844,101.0255 -24.5981,32.55052 -55.12897,60.60034 -89.65329,82.3428 -32.99312,20.82138 -69.61176,35.87243 -107.70816,44.28216 -32.51443,7.19278 -66.08979,9.55501 -99.29156,6.99305 -32.41687,-2.49684 -64.46596,-9.68722 -94.84205,-21.27998 -37.12628,-14.14733 -71.72032,-34.89499 -101.69183,-60.97535 -27.23949,-23.67645 -50.65265,-51.73811 -69.07477,-82.77302 -19.60371,-32.9994 -33.54368,-69.3498 -41.01991,-106.99827 -8.2755,-41.46701 -8.67764,-84.48446 -1.1918,-126.10075 7.2105,-40.2982 21.80775,-79.25868 42.85666,-114.37166 20.51248,-34.29431 47.15812,-64.89989 78.2897,-89.95249 31.80437,-25.61869 68.27225,-45.42867 107.08858,-58.12738 34.36697,-11.27891 70.54792,-16.99023 106.71729,-16.8785 l 0.0703,-1.9e-4 z" />
  <path
     id="path2"
     style="stroke-width:0.757256"
     d="m 683.55859,366.75977 c -2.0482,0.0574 -4.10146,0.29008 -6.07617,0.85351 -0.27606,0.067 -1.06272,0.28392 -1.52382,0.45335 -3.5141,1.186 -6.70726,3.22514 -9.35704,5.81032 0.36208,0.10605 1.86186,-0.25987 1.17059,0.28315 -74.0564,74.21793 -148.11368,148.43498 -222.16863,222.65435 -30.75467,-30.75005 -61.49233,-61.51497 -92.26813,-92.24355 -5.66425,-5.55077 -14.09539,-8.08544 -21.87812,-6.54008 -7.70118,1.39018 -14.53984,6.7016 -17.83501,13.79435 -3.22466,6.72731 -3.1556,14.90964 0.18492,21.58102 1.59086,3.37294 4.14324,6.14623 6.81467,8.69569 35.49886,35.49399 70.9835,71.0034 106.50144,106.47816 5.00014,4.84003 12.14658,7.34406 19.07397,6.64626 5.56266,-0.50688 10.88249,-3.03595 14.8379,-6.97239 65.89004,-65.86878 131.75919,-131.75917 197.6412,-197.63626 14.25247,-14.26809 28.53599,-28.50615 42.76907,-42.79302 5.04499,-5.28 7.50158,-12.90089 6.43532,-20.13018 -1.00014,-7.4595 -5.70355,-14.30028 -12.32049,-17.8902 -3.64805,-2.04415 -7.82722,-3.06016 -12.00167,-3.04448 z" />
</svg>
