<?xml version="1.0" encoding="UTF-8" standalone="no"?>
<svg
   class="icon"
   viewBox="0 0 1024 1024"
   version="1.1"
   width="128"
   height="128"
   id="svg2"
   sodipodi:docname="copy.svg"
   inkscape:version="1.4.3 (0d15f75, 2025-12-25)"
   xmlns:inkscape="http://www.inkscape.org/namespaces/inkscape"
   xmlns:sodipodi="http://sodipodi.sourceforge.net/DTD/sodipodi-0.dtd"
   xmlns="http://www.w3.org/2000/svg"
   xmlns:svg="http://www.w3.org/2000/svg">
  <defs
     id="defs2" />
  <sodipodi:namedview
     id="namedview2"
     pagecolor="#ffffff"
     bordercolor="#000000"
     borderopacity="0.25"
     inkscape:showpageshadow="2"
     inkscape:pageopacity="0.0"
     inkscape:pagecheckerboard="0"
     inkscape:deskcolor="#d1d1d1"
     inkscape:zoom="8.8828125"
     inkscape:cx="63.943712"
     inkscape:cy="64"
     inkscape:window-width="2560"
     inkscape:window-height="1351"
     inkscape:window-x="-9"
     inkscape:window-y="-9"
     inkscape:window-maximized="1"
     inkscape:current-layer="svg2" />
  <path
     id="path1"
     d="m 352.67969,107.13867 c -16.4906,0.18132 -32.88493,5.23872 -46.60698,14.3872 -15.69996,10.37449 -27.89332,25.96752 -34.06775,43.7528 -3.43189,9.75877 -5.00979,20.13678 -4.82527,30.47289 0.008,29.90033 -0.0168,59.8009 0.0126,89.70109 0.1578,8.84608 4.33404,17.49814 11.12231,23.16374 6.37837,5.45243 15.01766,8.10035 23.35719,7.22532 9.09799,-0.84599 17.64971,-5.972 22.7559,-13.53798 3.78463,-5.48005 5.64699,-12.19284 5.43167,-18.83537 0.008,-30.09209 -0.0166,-60.1846 0.0124,-90.27643 0.12955,-7.54418 4.11965,-14.86886 10.34733,-19.11681 4.26667,-2.99265 9.52558,-4.4443 14.72071,-4.25481 159.56638,0.003 319.1329,-0.006 478.69919,0.005 7.28185,0.0402 14.40955,3.66406 18.78089,9.47981 3.37728,4.39054 5.08403,9.97143 4.89063,15.49609 -0.003,159.60297 0.006,319.20607 -0.005,478.80895 -0.0413,7.50441 -3.89112,14.8442 -10.01504,19.17387 -4.32539,3.15027 -9.72666,4.69453 -15.06085,4.4957 -30.54282,0.008 -61.08583,-0.0156 -91.62852,0.0117 -8.65864,0.17234 -17.13246,4.17768 -22.78975,10.72957 -5.56387,6.29636 -8.35966,14.90431 -7.60848,23.26846 0.70057,9.04111 5.62047,17.61221 13.0164,22.84431 5.53561,3.99547 12.4033,6.02623 19.21738,5.82758 30.75426,-0.008 61.5087,0.0155 92.26285,-0.0117 15.92403,-0.21674 31.74932,-4.96867 45.15372,-13.56907 15.20805,-9.68881 27.28882,-24.2065 33.9729,-40.96065 4.32062,-10.72574 6.38137,-22.32619 6.18319,-33.88126 -0.004,-159.51249 0.007,-319.02502 -0.005,-478.53748 -0.018,-1.97108 -0.10013,-3.94173 -0.25247,-5.90705 -0.0149,-0.21775 -0.088,-1.12642 -0.13886,-1.61097 -1.52108,-16.22029 -7.79736,-31.94389 -17.82406,-44.78051 -11.44112,-14.77141 -27.75245,-25.72238 -45.80956,-30.56676 -8.09214,-2.21982 -16.50756,-3.156 -24.89041,-3.00465 -159.34647,0.004 -318.69299,-0.007 -478.03943,0.005 -0.12332,8.2e-4 -0.24663,0.002 -0.36994,0.002 z" />
  <path
     id="path2"
     d="m 195.30273,264.50781 c -16.50133,0.18365 -32.90827,5.24287 -46.63458,14.40595 -15.79179,10.43874 -28.02762,26.16327 -34.16307,44.08015 -3.34836,9.65821 -4.88981,19.91244 -4.7043,30.12679 0.004,159.44648 -0.007,318.893 0.005,478.33944 0.10743,16.69519 5.22171,33.31215 14.52236,47.17739 10.39594,15.63872 25.97994,27.77016 43.73612,33.90774 9.69336,3.39288 19.99478,4.96107 30.25689,4.78481 159.47981,-0.004 318.95966,0.007 478.43944,-0.005 16.07041,-0.10823 32.06956,-4.84405 45.60941,-13.50108 15.27375,-9.69488 27.39813,-24.2622 34.09659,-41.07245 4.2925,-10.69003 6.35118,-22.2434 6.16394,-33.75549 -0.004,-159.54191 0.007,-319.08387 -0.005,-478.62576 -0.11144,-16.66144 -5.20077,-33.24674 -14.46935,-47.09385 -10.40695,-15.70043 -26.0436,-27.87219 -43.85802,-34.01483 -7.0034,-2.43302 -14.3241,-3.94675 -21.71612,-4.51126 -0.22312,-0.01 -1.12884,-0.0847 -1.62222,-0.1069 -5.41186,-0.27052 -10.83349,-0.091 -16.24965,-0.1431 -156.34648,0.004 -312.693,-0.007 -469.03944,0.005 -0.12266,8.2e-4 -0.24532,0.002 -0.36799,0.002 z m 1.16797,62.68164 c 159.93305,0.003 319.86623,-0.006 479.79919,0.005 7.27693,0.0414 14.39822,3.66007 18.77113,9.46809 3.37967,4.39324 5.09732,9.97771 4.89843,15.50781 -0.003,159.59321 0.006,319.18654 -0.004,478.77966 -0.0309,7.61225 -3.99257,15.05366 -10.25755,19.36762 -4.28256,3.03956 -9.58283,4.51129 -14.81663,4.32342 -159.56638,-0.003 -319.1329,0.006 -478.69919,-0.005 -7.50731,-0.0409 -14.84852,-3.89582 -19.17777,-10.02286 -3.1487,-4.32339 -4.69108,-9.72163 -4.49375,-15.05304 0.003,-159.56638 -0.006,-319.1329 0.005,-478.69919 0.0388,-7.5682 3.9576,-14.96701 10.16766,-19.28476 4.00214,-2.84918 8.89782,-4.391 13.80823,-4.38676 z" />
</svg>
