<?xml version="1.0" encoding="UTF-8" standalone="no"?>
<svg
   class="icon"
   viewBox="0 0 1024 1024"
   version="1.1"
   width="128"
   height="128"
   id="svg1"
   sodipodi:docname="delete.svg"
   inkscape:version="1.4.3 (0d15f75, 2025-12-25)"
   xmlns:inkscape="http://www.inkscape.org/namespaces/inkscape"
   xmlns:sodipodi="http://sodipodi.sourceforge.net/DTD/sodipodi-0.dtd"
   xmlns="http://www.w3.org/2000/svg"
   xmlns:svg="http://www.w3.org/2000/svg">
  <defs
     id="defs1" />
  <sodipodi:namedview
     id="namedview1"
     pagecolor="#ffffff"
     bordercolor="#000000"
     borderopacity="0.25"
     inkscape:showpageshadow="2"
     inkscape:pageopacity="0.0"
     inkscape:pagecheckerboard="0"
     inkscape:deskcolor="#d1d1d1"
     inkscape:zoom="8.8828125"
     inkscape:cx="63.943712"
     inkscape:cy="64"
     inkscape:window-width="2560"
     inkscape:window-height="1351"
     inkscape:window-x="-9"
     inkscape:window-y="-9"
     inkscape:window-maximized="1"
     inkscape:current-layer="svg1" />
  <path
     d="m 784.46257,855.4084 c 0,32.66475 -26.56987,59.23462 -59.13938,59.23462 H 298.77681 C 266.11206,914.54779 239.63743,888.07315 239.5422,855.4084 V 227.06435 H 784.46257 Z M 357.9162,120.78488 c 0,-6.85674 5.33302,-12.18976 12.18976,-12.18976 h 284.55471 c 6.85674,0 12.09453,5.33302 12.09453,12.18976 v 35.71219 h -308.839 z m 604.05976,35.71219 H 737.41772 v -35.71219 c 0,-45.521135 -37.14068,-82.757043 -82.75705,-82.757043 H 370.10596 c -45.61637,0.09523 -82.66182,37.045443 -82.75705,82.757043 v 35.71219 H 62.028811 c -19.80836,0 -35.712188,15.90383 -35.712188,35.61696 0,19.71312 15.903828,35.71218 35.712188,35.71218 H 168.21305 V 855.4084 c 0,72.09101 58.47276,130.56376 130.56376,130.56376 h 426.45115 c 72.091,0 130.56376,-58.47275 130.56376,-130.56376 V 227.06435 h 106.27947 c 19.71313,0 35.71219,-15.90382 35.71219,-35.71218 0,-19.80837 -15.99906,-34.8551 -35.80742,-34.8551 z M 512.00238,807.60169 c 19.71313,0 35.71219,-15.90383 35.71219,-35.71219 V 392.48321 c 0,-19.71313 -15.90383,-35.71219 -35.71219,-35.71219 -19.71312,0 -35.71218,15.90383 -35.71218,35.71219 V 771.8895 c 0,19.71313 15.99906,35.71219 35.71218,35.71219 m -166.18071,0 c 19.71313,0 35.71219,-15.90383 35.71219,-35.71219 V 392.48321 c 0,-19.71313 -15.90383,-35.71219 -35.71219,-35.71219 -19.71313,0 -35.71219,15.90383 -35.71219,35.71219 V 771.8895 c 0.76186,19.71313 16.76092,35.71219 35.71219,35.71219 m 332.36143,0 c 19.71313,0 35.71219,-15.90383 35.71219,-35.71219 V 392.48321 c 0,-19.71313 -15.90383,-35.71219 -35.71219,-35.71219 -19.71313,0 -35.71219,15.90383 -35.71219,35.71219 V 771.8895 c 0.0952,19.71313 15.99906,35.71219 35.71219,35.71219"
     id="path1"
     style="stroke-width:0.952325" />
</svg>
