<?xml version="1.0" standalone="no"?><!DOCTYPE svg PUBLIC "-//W3C//DTD SVG 1.1//EN" "http://www.w3.org/Graphics/SVG/1.1/DTD/svg11.dtd"><svg t="1779871805440" class="icon" viewBox="0 0 1024 1024" version="1.1" xmlns="http://www.w3.org/2000/svg" p-id="14883" xmlns:xlink="http://www.w3.org/1999/xlink" width="128" height="128"><path d="M679.381333 150.037333a96.021333 96.021333 0 0 0-92.949333 65.258667c-2.538667 7.509333-4.8 15.04-6.677333 22.656A750.698667 750.698667 0 0 0 512 234.837333c-14.912 0-38.976 0.490667-67.754667 3.114667a292.928 292.928 0 0 0-6.656-22.613333 96.021333 96.021333 0 0 0-110.592-63.210667c-47.146667 9.962667-114.474667 29.312-167.573333 72.405333a32 32 0 0 0-1.664 1.472c-16.768 15.637333-28.330667 36.736-42.602667 66.496-14.250667 29.76-29.056 67.2-42.666666 109.866667-27.2 85.354667-49.578667 191.509333-49.578667 296.725333a32 32 0 0 0 4.138667 15.701334c50.026667 88.789333 158.656 122.453333 225.194666 135.872a95.893333 95.893333 0 0 0 96.426667-38.037334l26.368-36.586666c39.424 8.256 85.056 13.717333 136.96 13.717333s97.536-5.461333 136.96-13.717333l26.325333 36.544a95.893333 95.893333 0 0 0 96.469334 38.037333c66.538667-13.418667 175.125333-47.082667 225.152-135.893333a32 32 0 0 0 4.138666-15.68c0-105.216-22.336-211.370667-49.536-296.725334-13.610667-42.666667-28.458667-80.106667-42.709333-109.866666-14.293333-29.76-25.834667-50.858667-42.581333-66.496a32 32 0 0 0-1.685334-1.472c-53.077333-43.093333-120.405333-62.442667-167.573333-72.405334a95.082667 95.082667 0 0 0-17.578667-2.048z m-1.621333 63.957334c1.941333 0.064 3.946667 0.298667 5.952 0.704 41.685333 8.832 100.224 27.584 139.328 58.837333 2.624 2.666667 15.573333 20.586667 28.053333 46.592 12.672 26.453333 26.602667 61.482667 39.402667 101.632 24.725333 77.525333 44.224 174.336 45.589333 267.370667-35.413333 53.824-121.898667 87.637333-177.002666 98.752a31.082667 31.082667 0 0 1-31.829334-12.714667l-12.373333-17.130667c12.8-4.352 24.853333-8.853333 35.584-13.418666 53.632-22.784 83.285333-47.616 83.285333-47.616a32 32 0 1 0-41.536-48.704s-20.224 17.685333-66.773333 37.461333c-46.506667 19.754667-117.333333 40-213.44 40-96.128 0-166.912-20.245333-213.461333-40-46.528-19.776-66.752-37.461333-66.752-37.461333a32 32 0 0 0-20.458667-7.957334 32 32 0 0 0-21.077333 56.661334s29.653333 24.832 83.285333 47.616c10.730667 4.565333 22.784 9.066667 35.584 13.44l-12.373333 17.152a31.146667 31.146667 0 0 1-31.872 12.757333c-55.104-11.114667-141.610667-44.970667-177.002667-98.794667 1.365333-93.034667 20.864-189.845333 45.589333-267.392 12.8-40.128 26.773333-75.178667 39.466667-101.610666 12.458667-26.005333 25.386667-43.946667 27.989333-46.592 39.104-31.253333 97.664-50.026667 139.328-58.837334a31.146667 31.146667 0 0 1 36.629334 20.885334c1.365333 4.096 2.346667 7.893333 3.413333 11.712-47.68 9.450667-100.906667 25.898667-151.296 55.829333a32 32 0 1 0 32.682667 54.997333c92.949333-55.210667 207.829333-59.328 250.325333-59.328 42.496 0 157.376 4.117333 250.325333 59.328a32 32 0 1 0 32.682667-54.997333c-50.432-29.952-103.637333-46.378667-151.338667-55.829333 1.066667-3.84 2.048-7.637333 3.413334-11.754667a30.933333 30.933333 0 0 1 30.677333-21.589333zM374.08 469.333333a84.48 73.92 90 0 0 0 168.96 84.48 73.92 90 0 0 0-168.96z m275.413333 0a85.333333 74.666667 90 0 0 0 170.666667 85.333333 74.666667 90 0 0 0-170.666667z" p-id="14884"></path></svg>