<?xml version="1.0" standalone="no"?>
<!DOCTYPE svg PUBLIC "-//W3C//DTD SVG 1.1//EN" "http://www.w3.org/Graphics/SVG/1.1/DTD/svg11.dtd">
<svg class="icon" viewBox="0 0 1024 1024" version="1.1" xmlns="http://www.w3.org/2000/svg" xmlns:xlink="http://www.w3.org/1999/xlink" width="128" height="128">
  <path d="M489.28 758.72a32 32 0 0 0 45.44 0L716.8 576a32 32 0 0 0-44.8-44.8l-128 128V96a32 32 0 0 0-64 0v562.88l-128-128A32 32 0 0 0 307.2 576z" fill=""></path><path d="M928 512a32 32 0 0 0-32 32v256a96 96 0 0 1-96 96H224a96 96 0 0 1-96-96v-256a32 32 0 0 0-64 0v256a160 160 0 0 0 160 160h576a160 160 0 0 0 160-160v-256a32 32 0 0 0-32-32z" fill=""></path>
</svg>
