<?xml version="1.0" standalone="no"?><!DOCTYPE svg PUBLIC "-//W3C//DTD SVG 1.1//EN" "http://www.w3.org/Graphics/SVG/1.1/DTD/svg11.dtd"><svg t="1779611469340" class="icon" viewBox="0 0 1024 1024" version="1.1" xmlns="http://www.w3.org/2000/svg" p-id="16082" xmlns:xlink="http://www.w3.org/1999/xlink" width="128" height="128"><path d="M170.666667 938.666667c-46.933333 0-85.333333-38.4-85.333334-85.333334v-256c0-25.6 17.066667-42.666667 42.666667-42.666666s42.666667 17.066667 42.666667 42.666666v238.933334c0 8.533333 8.533333 17.066667 21.333333 17.066666h644.266667c12.8 0 21.333333-8.533333 21.333333-21.333333V597.333333c0-25.6 17.066667-42.666667 42.666667-42.666666s42.666667 17.066667 42.666666 42.666666v256c0 46.933333-38.4 85.333333-85.333333 85.333334H170.666667z m281.6-209.066667l-149.333334-149.333333c-17.066667-17.066667-17.066667-42.666667 0-59.733334 17.066667-17.066667 42.666667-17.066667 59.733334 0l106.666666 106.666667V128c0-25.6 17.066667-42.666667 42.666667-42.666667s42.666667 17.066667 42.666667 42.666667v499.2l106.666666-106.666667c17.066667-17.066667 42.666667-17.066667 59.733334 0 17.066667 17.066667 17.066667 42.666667 0 59.733334l-149.333334 149.333333c-17.066667 17.066667-38.4 25.6-59.733333 25.6-21.333333 0-42.666667-8.533333-59.733333-25.6z" p-id="16083"></path></svg>