<?xml version="1.0" encoding="UTF-8" standalone="no"?>
<svg
   class="icon"
   viewBox="0 0 1024 1024"
   version="1.1"
   width="128"
   height="128"
   id="svg2"
   sodipodi:docname="download.svg"
   inkscape:version="1.4.3 (0d15f75, 2025-12-25)"
   xmlns:inkscape="http://www.inkscape.org/namespaces/inkscape"
   xmlns:sodipodi="http://sodipodi.sourceforge.net/DTD/sodipodi-0.dtd"
   xmlns="http://www.w3.org/2000/svg"
   xmlns:svg="http://www.w3.org/2000/svg">
  <defs
     id="defs2" />
  <sodipodi:namedview
     id="namedview2"
     pagecolor="#ffffff"
     bordercolor="#000000"
     borderopacity="0.25"
     inkscape:showpageshadow="2"
     inkscape:pageopacity="0.0"
     inkscape:pagecheckerboard="0"
     inkscape:deskcolor="#d1d1d1"
     inkscape:zoom="8.8828125"
     inkscape:cx="63.943712"
     inkscape:cy="64"
     inkscape:window-width="2560"
     inkscape:window-height="1351"
     inkscape:window-x="-9"
     inkscape:window-y="-9"
     inkscape:window-maximized="1"
     inkscape:current-layer="svg2" />
  <path
     id="path1"
     style="stroke-width:0.871341"
     d="m 511.62891,113.6543 c -2.27557,0.0529 -4.54908,0.26614 -6.77867,0.72551 -2.64883,0.55912 -5.25147,1.36275 -7.70446,2.5153 -2.20833,0.96595 -4.27974,2.22462 -6.23883,3.62505 -1.86698,1.34566 -3.57412,2.89971 -5.16476,4.56187 -1.6992,1.86178 -3.23766,3.87768 -4.52907,6.04381 -1.35572,2.30731 -2.50925,4.74115 -3.30562,7.2994 -0.80344,2.34163 -1.27445,4.7855 -1.56892,7.24057 -0.38297,3.97082 -0.16254,7.97129 -0.22139,11.95567 0,154.34948 0,308.69896 0,463.04844 -32.77897,-32.78027 -65.56055,-65.55794 -98.33789,-98.33984 -1.69906,-1.24702 -3.41402,-2.4697 -5.27243,-3.47158 -2.01086,-1.10071 -4.13627,-1.97017 -6.3059,-2.70684 -2.41417,-0.71599 -4.88401,-1.28401 -7.39681,-1.49795 -2.76463,-0.28257 -5.55635,-0.21785 -8.3099,0.14916 -2.26986,0.30022 -4.49649,0.85938 -6.67608,1.55755 -2.40224,0.85521 -4.75292,1.88843 -6.92907,3.22391 -2.36356,1.40183 -4.54961,3.09038 -6.52338,5.00134 -1.82541,1.75291 -3.43659,3.72309 -4.86378,5.81081 -1.49677,2.29818 -2.80117,4.72948 -3.73568,7.31202 -0.9223,2.31538 -1.48573,4.75499 -1.91242,7.20605 -0.41029,2.95653 -0.54572,5.96301 -0.21988,8.93586 0.1999,2.4176 0.73873,4.79372 1.42072,7.11834 0.76799,2.39598 1.74487,4.73278 2.98577,6.92363 1.02723,1.84125 2.23584,3.57516 3.54596,5.22201 53.06314,53.24552 106.11819,106.49952 159.18702,159.73913 2.00676,1.95168 4.21091,3.69874 6.60947,5.14544 2.17234,1.32322 4.49265,2.41226 6.89715,3.24226 2.65977,0.92886 5.42797,1.51077 8.22775,1.80761 3.01874,0.27195 6.07053,0.20443 9.06628,-0.27513 2.51371,-0.39232 4.98816,-1.05952 7.36109,-1.97684 2.61567,-1.00394 5.09422,-2.33465 7.41119,-3.907 2.64311,-1.79875 4.93768,-4.03879 7.16354,-6.32101 52.37916,-52.5617 104.75586,-105.12588 157.13657,-157.68604 1.23169,-1.76661 2.44072,-3.54743 3.41269,-5.47369 1.05285,-2.03968 1.87439,-4.18893 2.54651,-6.38295 0.65698,-2.39319 1.13012,-4.8428 1.30939,-7.31973 0.18468,-2.7314 0.1086,-5.48471 -0.34058,-8.18798 -0.33634,-2.38056 -0.99064,-4.70659 -1.8018,-6.9673 -0.79618,-2.15426 -1.82713,-4.21235 -2.99131,-6.19124 -1.34098,-2.12624 -2.84799,-4.15627 -4.58519,-5.97646 -1.88748,-1.98564 -3.98603,-3.7713 -6.28466,-5.2646 -1.95956,-1.33467 -4.08885,-2.4043 -6.27377,-3.31957 -2.12598,-0.87046 -4.34274,-1.49401 -6.58862,-1.97255 -2.47609,-0.45156 -4.99475,-0.70576 -7.5129,-0.65314 -2.76949,0.0553 -5.53268,0.40773 -8.21469,1.10573 -2.27316,0.54787 -4.46972,1.38321 -6.5901,2.36552 -2.07404,0.98387 -4.03214,2.19311 -5.90007,3.52663 -1.27639,0.90855 -2.25555,2.17645 -3.40702,3.23619 -31.84718,31.84718 -63.69436,63.69437 -95.54155,95.54155 -0.003,-157.2377 0.006,-314.47564 -0.004,-471.71319 -0.038,-2.02931 -0.23119,-4.04415 -0.56433,-6.046 -0.48205,-2.47351 -1.15099,-4.91904 -2.1211,-7.24763 -1.03518,-2.50126 -2.32273,-4.9009 -3.90546,-7.09946 -1.34551,-1.96116 -2.94082,-3.74243 -4.65712,-5.38638 -1.66632,-1.58715 -3.5081,-2.97937 -5.43529,-4.23586 -2.11265,-1.31335 -4.34769,-2.43388 -6.67684,-3.30912 -2.14125,-0.77323 -4.34225,-1.38792 -6.58904,-1.75572 -2.08302,-0.35082 -4.19007,-0.50167 -6.30052,-0.50156 z" />
  <path
     id="path2"
     style="stroke-width:0.871341"
     d="m 149.15039,504.00781 c -2.27557,0.0529 -4.54908,0.26615 -6.77866,0.72551 -2.68481,0.56532 -5.3199,1.38745 -7.80326,2.56071 -2.14201,0.94824 -4.16017,2.16356 -6.06261,3.52819 -1.85113,1.32041 -3.54788,2.84865 -5.11984,4.49111 -1.5546,1.65551 -2.9331,3.46822 -4.17118,5.37222 -1.31448,2.11247 -2.43145,4.34912 -3.31108,6.67684 -0.77361,2.14179 -1.38768,4.3436 -1.75571,6.59099 -0.73955,4.23648 -0.4504,8.55121 -0.50938,12.82943 0.005,72.20946 -0.0109,144.41914 0.008,216.62845 0.0428,3.49825 0.14976,6.9939 0.4181,10.48282 0.28395,3.75031 0.69508,7.49341 1.27749,11.21002 0.443,3.09645 1.04486,6.17098 1.69551,9.22953 0.74557,3.45268 1.64939,6.86517 2.61487,10.26217 1.10786,3.66513 2.31415,7.30008 3.68031,10.87795 1.34906,3.51166 2.80777,6.98379 4.43072,10.37876 1.31367,2.83781 2.76238,5.61474 4.2658,8.35591 1.86493,3.38317 3.87497,6.68347 5.98689,9.91726 1.92726,2.88053 3.92334,5.7119 6.03301,8.46215 2.3301,3.0359 4.76965,5.98938 7.33596,8.8294 2.00704,2.26697 4.1205,4.44221 6.26963,6.57398 2.49014,2.45911 5.08502,4.8043 7.72882,7.09649 2.95113,2.49003 5.97932,4.88786 9.10429,7.15714 3.07478,2.22501 6.22591,4.3478 9.46966,6.32011 2.59648,1.62017 5.27162,3.11696 7.9683,4.56273 3.44183,1.82686 6.95792,3.50932 10.52599,5.07341 3.18899,1.35696 6.40716,2.63874 9.67782,3.78631 3.58134,1.25332 7.20646,2.38674 10.877,3.35136 2.95061,0.81246 5.9412,1.48605 8.93862,2.10017 3.43012,0.69686 6.88564,1.24114 10.35312,1.71409 3.83301,0.46901 7.67917,0.82532 11.53694,1.01381 7.1342,0.32115 14.27956,0.15159 21.41901,0.1945 162.65219,-0.003 325.3045,0.005 487.95662,-0.004 3.53139,-0.0479 7.06094,-0.14176 10.58296,-0.41604 2.95238,-0.21817 5.90273,-0.52139 8.83592,-0.92349 3.82903,-0.50839 7.6333,-1.18766 11.41117,-1.98808 3.3849,-0.7417 6.74246,-1.5909 10.07236,-2.54983 3.70545,-1.08717 7.37405,-2.30289 10.98445,-3.67535 2.74273,-1.02538 5.44803,-2.1593 8.12348,-3.34828 3.22525,-1.43945 6.38075,-3.02173 9.50618,-4.66529 3.35955,-1.83705 6.67001,-3.76245 9.89117,-5.83412 3.18953,-2.05718 6.31083,-4.22348 9.32757,-6.52805 2.45275,-1.82962 4.82153,-3.77456 7.14681,-5.76251 2.65642,-2.27859 5.20834,-4.67054 7.71108,-7.11608 2.69961,-2.71508 5.32416,-5.50459 7.81994,-8.40939 2.47488,-2.87524 4.84677,-5.84163 7.08234,-8.9076 1.85395,-2.47864 3.58688,-5.04932 5.26995,-7.64601 1.89486,-2.94218 3.65767,-5.96302 5.35839,-9.02084 1.82926,-3.40092 3.55863,-6.85489 5.13747,-10.37986 1.52897,-3.43689 2.95176,-6.92365 4.2052,-10.47144 1.06772,-2.90405 1.99461,-5.86133 2.86495,-8.82959 0.97595,-3.36054 1.8058,-6.75795 2.56329,-10.17381 0.77251,-3.75014 1.44626,-7.52058 1.94618,-11.31769 0.49198,-3.72824 0.86128,-7.47499 1.05265,-11.23157 0.3862,-6.53082 0.21812,-13.07823 0.25651,-19.61708 -0.005,-70.67781 0.0104,-141.35606 -0.008,-212.03359 -0.0559,-2.30833 -0.26831,-4.61662 -0.74838,-6.87602 -0.56244,-2.686 -1.40421,-5.31484 -2.57827,-7.79737 -0.95541,-2.13739 -2.17938,-4.14785 -3.54117,-6.05052 -1.31774,-1.81774 -2.81795,-3.49905 -4.44538,-5.04646 -1.65077,-1.55332 -3.46177,-2.92584 -5.36063,-4.16323 -2.11344,-1.31635 -4.35303,-2.4334 -6.68272,-3.313 -2.14155,-0.77219 -4.34213,-1.38844 -6.58902,-1.75575 -2.7389,-0.45185 -5.52621,-0.60907 -8.29644,-0.40909 -2.30694,0.12894 -4.59284,0.53586 -6.82884,1.1142 -2.22953,0.57855 -4.38364,1.4151 -6.46822,2.39294 -2.01562,0.9877 -3.92691,2.16992 -5.74677,3.48394 -1.97511,1.51228 -3.83846,3.18167 -5.48053,5.0528 -1.79974,2.06733 -3.40487,4.30931 -4.68019,6.73871 -1.15664,2.07657 -2.03675,4.29857 -2.74537,6.56546 -0.67784,2.19907 -1.10248,4.46806 -1.37057,6.75284 -0.34955,4.21568 -0.13677,8.45512 -0.19532,12.68164 -0.005,71.40853 0.0106,142.81733 -0.008,214.22568 -0.0471,4.76895 -0.46567,9.53964 -1.3993,14.21949 -0.8744,4.59393 -2.20482,9.10088 -3.92025,13.45024 -1.79731,4.55346 -4.05194,8.91972 -6.68321,13.04665 -2.80611,4.33037 -6.0259,8.39435 -9.64255,12.07712 -3.2959,3.35088 -6.8934,6.41303 -10.76064,9.08632 -3.89132,2.74924 -8.07808,5.05803 -12.40881,7.0366 -4.4691,1.94834 -9.09764,3.54523 -13.85725,4.61566 -4.52123,1.05566 -9.14599,1.66871 -13.78382,1.86697 -6.27247,0.178 -12.54901,0.049 -18.82333,0.0882 -162.10568,-0.004 -324.21155,0.007 -486.31711,-0.005 -4.23596,-0.0439 -8.473,-0.36356 -12.6479,-1.09225 -5.16954,-0.8795 -10.24618,-2.30144 -15.1218,-4.22995 -4.55346,-1.79731 -8.91972,-4.05194 -13.04665,-6.68321 -4.33037,-2.80611 -8.39435,-6.0259 -12.07712,-9.64255 -3.35088,-3.2959 -6.41303,-6.8934 -9.08632,-10.76064 -2.74924,-3.89132 -5.05803,-8.07808 -7.0366,-12.40881 -1.94834,-4.4691 -3.54523,-9.09764 -4.61566,-13.85725 -1.05566,-4.52123 -1.66871,-9.14599 -1.86697,-13.78382 -0.178,-6.27247 -0.049,-12.54901 -0.0882,-18.82333 -0.005,-69.26296 0.0104,-138.52637 -0.008,-207.78906 -0.0487,-2.27866 -0.26794,-4.55363 -0.72547,-6.78648 -0.56388,-2.68289 -1.38574,-5.31554 -2.5557,-7.7979 -0.96109,-2.17382 -2.20309,-4.21558 -3.58469,-6.14734 -1.31774,-1.81774 -2.81795,-3.49905 -4.44538,-5.04646 -1.65076,-1.55332 -3.46177,-2.92584 -5.36063,-4.16323 -2.11344,-1.31635 -4.35303,-2.4334 -6.68271,-3.313 -2.14156,-0.77219 -4.34214,-1.38844 -6.58903,-1.75575 -2.08365,-0.35106 -4.19139,-0.50137 -6.30248,-0.50156 z" />
</svg>
