<?xml version="1.0" encoding="UTF-8" standalone="no"?>
<svg
   t="1779616041600"
   class="icon"
   viewBox="0 0 1024 1024"
   version="1.1"
   p-id="31991"
   width="128"
   height="128"
   id="svg1"
   sodipodi:docname="download-fill.svg"
   inkscape:version="1.4.3 (0d15f75, 2025-12-25)"
   xmlns:inkscape="http://www.inkscape.org/namespaces/inkscape"
   xmlns:sodipodi="http://sodipodi.sourceforge.net/DTD/sodipodi-0.dtd"
   xmlns="http://www.w3.org/2000/svg"
   xmlns:svg="http://www.w3.org/2000/svg">
  <defs
     id="defs1" />
  <sodipodi:namedview
     id="namedview1"
     pagecolor="#ffffff"
     bordercolor="#000000"
     borderopacity="0.25"
     inkscape:showpageshadow="2"
     inkscape:pageopacity="0.0"
     inkscape:pagecheckerboard="0"
     inkscape:deskcolor="#d1d1d1"
     inkscape:zoom="8.8828125"
     inkscape:cx="63.943712"
     inkscape:cy="64"
     inkscape:window-width="2560"
     inkscape:window-height="1351"
     inkscape:window-x="-9"
     inkscape:window-y="-9"
     inkscape:window-maximized="1"
     inkscape:current-layer="svg1" />
  <path
     d="m 721.93005,788.7672 q 0,-12.18344 -8.90329,-21.08673 -8.90328,-8.90328 -21.08672,-8.90328 -12.18344,0 -21.08672,8.90328 -8.90329,8.90329 -8.90329,21.08673 0,12.18344 8.90329,21.08673 8.90328,8.90328 21.08672,8.90328 12.18344,0 21.08672,-8.90328 8.90329,-8.90329 8.90329,-21.08673 z m 119.96002,0 q 0,-12.18344 -8.90328,-21.08673 -8.90328,-8.90328 -21.08672,-8.90328 -12.18345,0 -21.08673,8.90328 -8.90328,8.90329 -8.90328,21.08673 0,12.18344 8.90328,21.08673 8.90328,8.90328 21.08673,8.90328 12.18344,0 21.08672,-8.90328 8.90328,-8.90329 8.90328,-21.08673 z m 59.98001,-104.96502 v 149.95003 q 0,18.74376 -13.12063,31.86439 -13.12062,13.12062 -31.86437,13.12062 H 167.11493 q -18.74376,0 -31.86439,-13.12062 -13.12062,-13.12063 -13.12062,-31.86439 V 683.80218 q 0,-18.74375 13.12062,-31.86438 13.12063,-13.12063 31.86439,-13.12063 h 217.89614 l 63.26016,63.72876 q 27.17845,26.24126 63.72877,26.24126 36.55032,0 63.72877,-26.24126 l 63.72876,-63.72876 h 217.42755 q 18.74375,0 31.86437,13.12063 13.12063,13.12063 13.12063,31.86438 z M 749.57709,417.17228 q 7.96609,19.21234 -6.56032,32.80156 L 533.08673,659.90389 q -8.4347,8.90329 -21.08673,8.90329 -12.65203,0 -21.08673,-8.90329 L 280.98323,449.97384 q -14.52641,-13.58922 -6.56032,-32.80156 7.9661,-18.27516 27.64704,-18.27516 H 422.02998 V 188.96707 q 0,-12.18343 8.90329,-21.08672 8.90328,-8.90328 21.08671,-8.90328 h 119.96004 q 12.18343,0 21.08671,8.90328 8.90329,8.90329 8.90329,21.08672 v 209.93005 h 119.96003 q 19.68094,0 27.64704,18.27516 z"
     p-id="31992"
     id="path1"
     style="stroke-width:0.820039" />
</svg>
