<?xml version="1.0" encoding="UTF-8" standalone="no"?>
<svg
   t="1779611469340"
   class="icon"
   viewBox="0 0 1024 1024"
   version="1.1"
   p-id="16082"
   width="128"
   height="128"
   id="svg1"
   sodipodi:docname="download-line.svg"
   inkscape:version="1.4.3 (0d15f75, 2025-12-25)"
   xmlns:inkscape="http://www.inkscape.org/namespaces/inkscape"
   xmlns:sodipodi="http://sodipodi.sourceforge.net/DTD/sodipodi-0.dtd"
   xmlns="http://www.w3.org/2000/svg"
   xmlns:svg="http://www.w3.org/2000/svg">
  <defs
     id="defs1" />
  <sodipodi:namedview
     id="namedview1"
     pagecolor="#ffffff"
     bordercolor="#000000"
     borderopacity="0.25"
     inkscape:showpageshadow="2"
     inkscape:pageopacity="0.0"
     inkscape:pagecheckerboard="0"
     inkscape:deskcolor="#d1d1d1"
     inkscape:zoom="8.8828125"
     inkscape:cx="63.943712"
     inkscape:cy="64"
     inkscape:window-width="2560"
     inkscape:window-height="1351"
     inkscape:window-x="-9"
     inkscape:window-y="-9"
     inkscape:window-maximized="1"
     inkscape:current-layer="svg1" />
  <path
     id="path1"
     style="stroke-width:0.909686"
     d="m 511.24805,131.87891 c -7.25431,0.1238 -14.70188,2.25788 -20.23559,7.10569 -5.25683,4.51618 -8.31783,11.16993 -9.23606,17.96425 -0.64555,4.47677 -0.31573,9.01176 -0.39749,13.51678 0,155.21458 0,310.42916 0,465.64375 -37.0641,-37.05945 -74.11434,-74.133 -111.19105,-111.17968 -5.58765,-5.44902 -13.25166,-8.88377 -21.11012,-8.80733 -7.92161,-0.0222 -15.61289,3.5217 -21.18407,9.07209 -5.4711,5.307 -9.13307,12.60222 -9.49023,20.26967 -0.44256,7.70447 2.49987,15.40508 7.57024,21.16454 2.75807,3.02373 5.75623,5.81886 8.61768,8.74394 43.14173,43.1338 86.26771,86.28356 129.41929,129.4074 9.54419,9.43274 21.69405,16.35175 34.87953,19.07289 13.23943,2.81181 27.32181,1.27464 39.6927,-4.19156 8.88777,-3.85898 16.84098,-9.68351 23.55865,-16.63686 44.99733,-45.00491 90.00994,-89.99475 134.9977,-135.00909 5.46736,-5.57181 8.92656,-13.22332 8.8803,-21.08375 0.0457,-7.75691 -3.32399,-15.31453 -8.6689,-20.86414 -5.33215,-5.68168 -12.76622,-9.52282 -20.60769,-9.90531 -7.67401,-0.45982 -15.35299,2.44278 -21.11478,7.46625 -3.00549,2.71095 -5.76102,5.68529 -8.65582,8.5125 -34.6553,34.65634 -69.31276,69.31052 -103.96648,103.96844 -0.003,-157.94321 0.007,-315.8865 -0.005,-473.82966 -0.0296,-7.32794 -2.07969,-14.88037 -6.90129,-20.53558 -4.39447,-5.24417 -10.90669,-8.38382 -17.60446,-9.39488 -2.39457,-0.37951 -4.82408,-0.52029 -7.2471,-0.47035 z M 161.95703,558.82422 c -7.25514,0.11893 -14.70686,2.24603 -20.24345,7.09197 -5.34884,4.57455 -8.41855,11.36333 -9.29695,18.26506 -0.58945,4.38128 -0.27666,8.81267 -0.35608,13.21797 0.005,75.20166 -0.01,150.40344 0.007,225.60503 0.0499,14.52468 4.89524,28.95845 13.53961,40.62254 9.42145,12.85486 23.33812,22.35978 38.78899,26.31657 6.38339,1.67092 13.00171,2.31484 19.59063,2.18945 207.63045,-0.003 415.26098,0.007 622.89138,-0.005 14.54989,-0.0148 29.02674,-4.82601 40.72391,-13.47173 13.21588,-9.64478 22.90117,-24.04465 26.69127,-39.97443 1.49606,-6.10237 2.03064,-12.40465 1.91336,-18.67746 -0.005,-76.99242 0.01,-153.98496 -0.007,-230.9773 -0.0629,-7.36718 -2.18407,-14.96045 -7.11247,-20.58047 -4.5574,-5.31104 -11.29708,-8.37379 -18.15975,-9.26476 -7.48757,-0.95826 -15.42835,-0.12588 -22.12099,3.55033 -5.82679,3.13732 -10.24158,8.62176 -12.32975,14.8758 -1.63076,4.61103 -2.00888,9.54734 -1.89655,14.40499 -0.005,70.51493 0.0106,141.03008 -0.008,211.54486 -0.0372,6.96191 -2.51695,14.03092 -7.44819,19.037 -4.75784,4.93973 -11.55955,7.59449 -18.35444,7.87205 -6.63058,0.0893 -13.26401,0.0144 -19.8957,0.0391 -189.34607,-0.003 -378.69226,0.005 -568.03826,-0.004 -7.87752,-0.0114 -15.90243,-3.04019 -21.24798,-8.94051 -3.82305,-4.12833 -6.1073,-9.72547 -5.90204,-15.38094 -0.005,-72.41781 0.01,-144.83573 -0.007,-217.25348 -0.081,-7.30242 -2.18539,-14.81569 -7.04414,-20.40566 -4.52405,-5.30914 -11.22368,-8.39857 -18.06134,-9.31707 -2.18968,-0.30977 -4.40523,-0.42334 -6.61559,-0.38004 z" />
</svg>
