<?xml version="1.0" standalone="no"?>
<!DOCTYPE svg PUBLIC "-//W3C//DTD SVG 1.1//EN" "http://www.w3.org/Graphics/SVG/1.1/DTD/svg11.dtd">
<svg t="1779710248375" class="icon" viewBox="0 0 1024 1024" version="1.1" xmlns="http://www.w3.org/2000/svg" p-id="157213" xmlns:xlink="http://www.w3.org/1999/xlink" width="128" height="128">
	<path d="M407.763 691.924h50.162V516.236H639.58v-40.664H457.925V337.84h209.306v-40.664H407.763z" p-id="157214" fill="#111111">
	</path>
	<path d="M512.001 93.903c-211.983 0-384.461 172.479-384.461 384.46 0 211.98 172.48 384.46 384.461 384.46 211.98 0 384.46-172.48 384.46-384.46 0-211.981-172.48-384.46-384.46-384.46z m0 728.21c-189.555 0-343.748-154.195-343.748-343.748 0-189.555 154.193-343.751 343.748-343.751 189.553 0 343.748 154.195 343.748 343.75 0 189.553-154.195 343.749-343.748 343.749z" p-id="157215" fill="#111111">
	</path>
</svg>
