<?xml version="1.0" standalone="no"?>
<!DOCTYPE svg PUBLIC "-//W3C//DTD SVG 1.1//EN" "http://www.w3.org/Graphics/SVG/1.1/DTD/svg11.dtd">
<svg t="1779630591193" class="icon" viewBox="0 0 1024 1024" version="1.1" xmlns="http://www.w3.org/2000/svg" p-id="33541" xmlns:xlink="http://www.w3.org/1999/xlink" width="128" height="128">
	<path d="M365.714286 950.857143H182.857143c-60.525714 0-109.714286-49.188571-109.714286-109.714286V658.285714c0-60.525714 49.188571-109.714286 109.714286-109.714285h182.857143c60.525714 0 109.714286 49.188571 109.714285 109.714285v182.857143c0 60.525714-49.188571 109.714286-109.714285 109.714286zM182.857143 621.714286c-20.114286 0-36.571429 16.457143-36.571429 36.571428v182.857143c0 20.114286 16.457143 36.571429 36.571429 36.571429h182.857143c20.114286 0 36.571429-16.457143 36.571428-36.571429V658.285714c0-20.114286-16.457143-36.571429-36.571428-36.571428H182.857143zM365.714286 475.428571H182.857143c-60.525714 0-109.714286-49.188571-109.714286-109.714285V182.857143c0-60.525714 49.188571-109.714286 109.714286-109.714286h182.857143c60.525714 0 109.714286 49.188571 109.714285 109.714286v182.857143c0 60.525714-49.188571 109.714286-109.714285 109.714285zM182.857143 146.285714c-20.114286 0-36.571429 16.457143-36.571429 36.571429v182.857143c0 20.114286 16.457143 36.571429 36.571429 36.571428h182.857143c20.114286 0 36.571429-16.457143 36.571428-36.571428V182.857143c0-20.114286-16.457143-36.571429-36.571428-36.571429H182.857143zM841.142857 950.857143H658.285714c-60.525714 0-109.714286-49.188571-109.714285-109.714286V658.285714c0-60.525714 49.188571-109.714286 109.714285-109.714285h182.857143c60.525714 0 109.714286 49.188571 109.714286 109.714285v182.857143c0 60.525714-49.188571 109.714286-109.714286 109.714286zM658.285714 621.714286c-20.114286 0-36.571429 16.457143-36.571428 36.571428v182.857143c0 20.114286 16.457143 36.571429 36.571428 36.571429h182.857143c20.114286 0 36.571429-16.457143 36.571429-36.571429V658.285714c0-20.114286-16.457143-36.571429-36.571429-36.571428H658.285714zM950.857143 182.857143v182.857143c0 60.525714-49.188571 109.714286-109.714286 109.714285H658.285714c-60.525714 0-109.714286-49.188571-109.714285-109.714285V182.857143c0-60.525714 49.188571-109.714286 109.714285-109.714286h182.857143c60.525714 0 109.714286 49.188571 109.714286 109.714286zM621.714286 365.714286c0 20.114286 16.457143 36.571429 36.571428 36.571428h182.857143c20.114286 0 36.571429-16.457143 36.571429-36.571428V182.857143c0-20.114286-16.457143-36.571429-36.571429-36.571429H658.285714c-20.114286 0-36.571429 16.457143-36.571428 36.571429v182.857143z" p-id="33542" fill="#111111">
	</path>
</svg>
