<?xml version="1.0" encoding="UTF-8" standalone="no"?>
<svg
   t="1779630591193"
   class="icon"
   viewBox="0 0 1024 1024"
   version="1.1"
   p-id="33541"
   width="128"
   height="128"
   id="svg1"
   sodipodi:docname="features.svg"
   inkscape:version="1.4.3 (0d15f75, 2025-12-25)"
   xmlns:inkscape="http://www.inkscape.org/namespaces/inkscape"
   xmlns:sodipodi="http://sodipodi.sourceforge.net/DTD/sodipodi-0.dtd"
   xmlns="http://www.w3.org/2000/svg"
   xmlns:svg="http://www.w3.org/2000/svg">
  <defs
     id="defs1" />
  <sodipodi:namedview
     id="namedview1"
     pagecolor="#ffffff"
     bordercolor="#000000"
     borderopacity="0.25"
     inkscape:showpageshadow="2"
     inkscape:pageopacity="0.0"
     inkscape:pagecheckerboard="0"
     inkscape:deskcolor="#d1d1d1"
     inkscape:zoom="8.8828125"
     inkscape:cx="63.943712"
     inkscape:cy="64"
     inkscape:window-width="2560"
     inkscape:window-height="1351"
     inkscape:window-x="-9"
     inkscape:window-y="-9"
     inkscape:window-maximized="1"
     inkscape:current-layer="svg1" />
  <path
     d="M 381.92537,902.2239 H 219.33208 c -53.81838,0 -97.55598,-43.7376 -97.55598,-97.55598 V 642.07463 c 0,-53.81838 43.7376,-97.55597 97.55598,-97.55597 h 162.59329 c 53.81838,0 97.55597,43.73759 97.55597,97.55597 v 162.59329 c 0,53.81838 -43.73759,97.55598 -97.55597,97.55598 z M 219.33208,609.55597 c -17.88527,0 -32.51866,14.6334 -32.51866,32.51866 v 162.59329 c 0,17.88527 14.63339,32.51866 32.51866,32.51866 h 162.59329 c 17.88526,0 32.51866,-14.63339 32.51866,-32.51866 V 642.07463 c 0,-17.88526 -14.6334,-32.51866 -32.51866,-32.51866 z M 381.92537,479.48134 H 219.33208 c -53.81838,0 -97.55598,-43.73759 -97.55598,-97.55597 V 219.33208 c 0,-53.81838 43.7376,-97.55598 97.55598,-97.55598 h 162.59329 c 53.81838,0 97.55597,43.7376 97.55597,97.55598 v 162.59329 c 0,53.81838 -43.73759,97.55597 -97.55597,97.55597 z M 219.33208,186.81342 c -17.88527,0 -32.51866,14.63339 -32.51866,32.51866 v 162.59329 c 0,17.88526 14.63339,32.51866 32.51866,32.51866 h 162.59329 c 17.88526,0 32.51866,-14.6334 32.51866,-32.51866 V 219.33208 c 0,-17.88527 -14.6334,-32.51866 -32.51866,-32.51866 z M 804.66792,902.2239 H 642.07463 c -53.81838,0 -97.55597,-43.7376 -97.55597,-97.55598 V 642.07463 c 0,-53.81838 43.73759,-97.55597 97.55597,-97.55597 h 162.59329 c 53.81838,0 97.55598,43.73759 97.55598,97.55597 v 162.59329 c 0,53.81838 -43.7376,97.55598 -97.55598,97.55598 z M 642.07463,609.55597 c -17.88526,0 -32.51866,14.6334 -32.51866,32.51866 v 162.59329 c 0,17.88527 14.6334,32.51866 32.51866,32.51866 h 162.59329 c 17.88527,0 32.51866,-14.63339 32.51866,-32.51866 V 642.07463 c 0,-17.88526 -14.63339,-32.51866 -32.51866,-32.51866 z M 902.2239,219.33208 v 162.59329 c 0,53.81838 -43.7376,97.55597 -97.55598,97.55597 H 642.07463 c -53.81838,0 -97.55597,-43.73759 -97.55597,-97.55597 V 219.33208 c 0,-53.81838 43.73759,-97.55598 97.55597,-97.55598 h 162.59329 c 53.81838,0 97.55598,43.7376 97.55598,97.55598 z M 609.55597,381.92537 c 0,17.88526 14.6334,32.51866 32.51866,32.51866 h 162.59329 c 17.88527,0 32.51866,-14.6334 32.51866,-32.51866 V 219.33208 c 0,-17.88527 -14.63339,-32.51866 -32.51866,-32.51866 H 642.07463 c -17.88526,0 -32.51866,14.63339 -32.51866,32.51866 z"
     p-id="33542"
     fill="#111111"
     id="path1"
     style="stroke-width:0.889182" />
</svg>
