<?xml version="1.0" encoding="UTF-8" standalone="no"?>
<svg
   t="1779708541643"
   class="icon"
   viewBox="0 0 1024 1024"
   version="1.1"
   p-id="120216"
   width="128"
   height="128"
   id="svg4"
   sodipodi:docname="get-help.svg"
   inkscape:version="1.4.3 (0d15f75, 2025-12-25)"
   xmlns:inkscape="http://www.inkscape.org/namespaces/inkscape"
   xmlns:sodipodi="http://sodipodi.sourceforge.net/DTD/sodipodi-0.dtd"
   xmlns="http://www.w3.org/2000/svg"
   xmlns:svg="http://www.w3.org/2000/svg">
  <defs
     id="defs4" />
  <sodipodi:namedview
     id="namedview4"
     pagecolor="#ffffff"
     bordercolor="#000000"
     borderopacity="0.25"
     inkscape:showpageshadow="2"
     inkscape:pageopacity="0.0"
     inkscape:pagecheckerboard="0"
     inkscape:deskcolor="#d1d1d1"
     inkscape:zoom="8.8828125"
     inkscape:cx="63.943712"
     inkscape:cy="64"
     inkscape:window-width="2560"
     inkscape:window-height="1351"
     inkscape:window-x="-9"
     inkscape:window-y="-9"
     inkscape:window-maximized="1"
     inkscape:current-layer="svg4" />
  <path
     d="m 814.38436,705.33852 v -56.51578 c 20.1102,0 36.49977,-17.66118 36.49977,-39.27846 V 231.83052 c 0,-21.66439 -16.38957,-39.32556 -36.49977,-39.32556 H 389.7625 c -20.15729,0 -36.54686,17.66117 -36.54686,39.32556 h -56.51578 c -0.0471,-52.84225 41.68038,-95.93553 93.06264,-95.93553 h 424.66896 c 51.28806,0 93.01555,42.99908 93.01555,95.84133 v 377.71377 c -0.0471,52.88934 -41.77458,95.88843 -93.06265,95.88843 z"
     fill="#111111"
     p-id="120217"
     id="path1"
     style="stroke-width:0.919853" />
  <path
     d="m 448.53891,904.74501 h -2.26063 a 50.581619,50.581619 0 0 1 -36.123,-17.47279 L 358.34915,827.22421 A 37.677184,37.677184 0 0 0 330.09126,814.17848 H 216.07069 A 94.899406,94.899406 0 0 1 121.87773,718.90231 V 361.58132 a 94.852309,94.852309 0 0 1 94.19296,-95.22909 h 466.25514 a 94.899406,94.899406 0 0 1 94.19296,95.22909 v 357.27389 a 94.899406,94.899406 0 0 1 -94.19296,95.27618 H 576.87682 a 37.347508,37.347508 0 0 0 -26.13855,10.73799 l -66.78281,65.46411 a 50.770005,50.770005 0 0 1 -35.41655,14.41152 z m -232.46822,-581.877 a 38.336534,38.336534 0 0 0 -37.67719,38.71331 v 357.27389 a 38.336534,38.336534 0 0 0 37.67719,38.7604 h 114.06767 a 93.91038,93.91038 0 0 1 71.11568,32.63786 l 47.66164,55.19708 62.30864,-60.98995 a 93.345222,93.345222 0 0 1 65.6525,-26.84499 h 105.5903 a 38.336534,38.336534 0 0 0 37.67719,-38.7604 V 361.58132 a 38.336534,38.336534 0 0 0 -37.67719,-38.71331 z"
     fill="#111111"
     p-id="120218"
     id="path2"
     style="stroke-width:0.919853" />
  <path
     d="M 477.50324,622.40162 H 420.98747 V 606.10624 A 78.980796,78.980796 0 0 1 469.44975,532.9654 52.512575,52.512575 0 1 0 396.77988,484.40893 H 340.2641 a 109.35803,109.35803 0 0 1 34.38043,-79.40466 108.98125,108.98125 0 1 1 116.56379,180.04984 22.512117,22.512117 0 0 0 -13.70508,20.95793 z"
     fill="#111111"
     p-id="120219"
     id="path3"
     style="stroke-width:0.919853" />
  <path
     d="m 449.24536,695.25987 m -30.8482,0 a 30.848195,30.848195 0 1 0 61.69639,0 30.848195,30.848195 0 1 0 -61.69639,0 z"
     fill="#111111"
     p-id="120220"
     id="path4"
     style="stroke-width:0.919853" />
</svg>
