<?xml version="1.0" standalone="no"?>
<!DOCTYPE svg PUBLIC "-//W3C//DTD SVG 1.1//EN" "http://www.w3.org/Graphics/SVG/1.1/DTD/svg11.dtd">
<svg t="1779708541643" class="icon" viewBox="0 0 1024 1024" version="1.1" xmlns="http://www.w3.org/2000/svg" p-id="120216" xmlns:xlink="http://www.w3.org/1999/xlink" width="128" height="128">
	<path d="M840.4992 721.4592v-61.44c21.8624 0 39.68-19.2 39.68-42.7008v-410.624c0-23.552-17.8176-42.752-39.68-42.752H378.88c-21.9136 0-39.7312 19.2-39.7312 42.752h-61.44C277.6576 149.248 323.0208 102.4 378.88 102.4h461.6704c55.7568 0 101.12 46.7456 101.12 104.192v410.624c-0.0512 57.4976-45.4144 104.2432-101.1712 104.2432z" fill="#111111" p-id="120217">
	</path>
	<path d="M442.7776 938.24H440.32a54.9888 54.9888 0 0 1-39.2704-18.9952l-56.32-65.28a40.96 40.96 0 0 0-30.72-14.1824H190.0544a103.168 103.168 0 0 1-102.4-103.5776V347.7504a103.1168 103.1168 0 0 1 102.4-103.5264h506.88a103.168 103.168 0 0 1 102.4 103.5264v388.4032a103.168 103.168 0 0 1-102.4 103.5776h-114.6368a40.6016 40.6016 0 0 0-28.416 11.6736L481.28 922.5728a55.1936 55.1936 0 0 1-38.5024 15.6672zM190.0544 305.664a41.6768 41.6768 0 0 0-40.96 42.0864v388.4032a41.6768 41.6768 0 0 0 40.96 42.1376h124.0064a102.0928 102.0928 0 0 1 77.312 35.4816l51.8144 60.0064 67.7376-66.304a101.4784 101.4784 0 0 1 71.3728-29.184h114.7904a41.6768 41.6768 0 0 0 40.96-42.1376V347.7504a41.6768 41.6768 0 0 0-40.96-42.0864z" fill="#111111" p-id="120218">
	</path>
	<path d="M474.2656 631.296h-61.44v-17.7152a85.8624 85.8624 0 0 1 52.6848-79.5136A57.088 57.088 0 1 0 386.5088 481.28h-61.44a118.8864 118.8864 0 0 1 37.376-86.3232 118.4768 118.4768 0 1 1 126.72 195.7376 24.4736 24.4736 0 0 0-14.8992 22.784z" fill="#111111" p-id="120219">
	</path>
	<path d="M443.5456 710.5024m-33.536 0a33.536 33.536 0 1 0 67.072 0 33.536 33.536 0 1 0-67.072 0Z" fill="#111111" p-id="120220">
	</path>
</svg>
