<?xml version="1.0" encoding="UTF-8" standalone="no"?>
<svg
   t="1779709657428"
   class="icon"
   viewBox="0 0 1024 1024"
   version="1.1"
   p-id="137784"
   width="128"
   height="128"
   id="svg1"
   sodipodi:docname="github.svg"
   inkscape:version="1.4.3 (0d15f75, 2025-12-25)"
   xmlns:inkscape="http://www.inkscape.org/namespaces/inkscape"
   xmlns:sodipodi="http://sodipodi.sourceforge.net/DTD/sodipodi-0.dtd"
   xmlns="http://www.w3.org/2000/svg"
   xmlns:svg="http://www.w3.org/2000/svg">
  <defs
     id="defs1" />
  <sodipodi:namedview
     id="namedview1"
     pagecolor="#ffffff"
     bordercolor="#000000"
     borderopacity="0.25"
     inkscape:showpageshadow="2"
     inkscape:pageopacity="0.0"
     inkscape:pagecheckerboard="0"
     inkscape:deskcolor="#d1d1d1"
     inkscape:zoom="8.8828125"
     inkscape:cx="63.943712"
     inkscape:cy="64"
     inkscape:window-width="2560"
     inkscape:window-height="1351"
     inkscape:window-x="-9"
     inkscape:window-y="-9"
     inkscape:window-maximized="1"
     inkscape:current-layer="svg1" />
  <path
     id="path1"
     d="m 276.55838,94.896537 c -5.86533,0.09976 -11.76237,0.656331 -17.44719,2.147077 -5.32171,1.808199 -10.22073,5.127406 -13.40913,9.809686 -1.77578,2.5113 -3.00462,5.35719 -3.99422,8.25494 -3.94868,8.5461 -7.40249,17.32433 -10.24179,26.30163 -0.0641,0.19659 -0.30819,0.98948 -0.44169,1.41596 -1.40759,4.55849 -2.65001,9.16776 -3.72849,13.81509 -0.0461,0.19272 -0.22821,1.01071 -0.32681,1.4447 -4.41783,19.62539 -5.60639,39.95633 -3.63153,59.97133 1.34456,13.98515 4.21309,27.79507 8.13362,41.2776 0.15863,0.56421 0.31725,1.12841 0.47589,1.69261 -4.59242,5.59285 -9.05542,11.29887 -13.13376,17.28059 -17.13565,24.89193 -28.9173,53.39107 -34.70073,83.03646 -2.27867,11.61067 -3.65053,23.39706 -4.14514,35.21815 -0.009,0.19738 -0.0374,1.03546 -0.054,1.48007 -0.0461,1.17086 -0.0684,2.34243 -0.10125,3.51368 -0.006,0.2047 -0.0164,1.03619 -0.0241,1.48258 -0.15289,18.33927 0.7137,36.69702 2.82521,54.91817 3.53214,30.32381 10.65025,60.40546 23.02372,88.3874 9.49188,21.52927 22.17714,41.70033 37.90622,59.2249 15.68875,17.55182 34.34357,32.37026 54.71029,44.14037 0.98914,0.5801 1.99087,1.13829 2.9868,1.7066 0.19541,0.102 0.90709,0.50183 1.3013,0.71853 26.57687,14.7104 55.6554,24.49209 85.29722,30.82994 2.54888,0.55596 5.09775,1.11191 7.64663,1.66785 -2.17844,5.69685 -4.57963,11.32197 -6.24613,17.19923 -3.59061,12.30978 -5.57663,25.04341 -6.60064,37.81014 -0.0455,0.60966 -0.0909,1.21934 -0.13633,1.82901 -0.0168,0.22515 -0.0669,1.03459 -0.0965,1.48463 -0.14385,2.24196 -0.25696,4.84867 -0.31917,6.86449 -0.15275,5.15425 -0.0717,10.31136 -0.0923,15.46701 -7.66815,1.41993 -15.33993,2.86324 -23.09424,3.73518 -16.6348,1.9255 -33.71885,1.97192 -50.04235,-2.15182 -10.92591,-2.73018 -21.34169,-7.46777 -30.56778,-13.92749 -11.63341,-8.09022 -21.30077,-18.63068 -30.03854,-29.702 -3.83034,-4.82927 -7.46029,-9.8138 -11.12844,-14.7645 -11.64012,-13.57035 -23.36582,-27.24675 -37.32232,-38.52306 -10.32733,-8.36906 -21.94388,-15.2323 -34.49779,-19.67092 -2.48486,-0.91974 -5.04614,-1.61059 -7.5315,-2.52438 -5.93843,-1.86938 -12.4764,-0.71977 -17.92202,2.09677 -6.49481,3.35901 -11.95056,9.00327 -14.48544,15.92057 -0.53387,1.32968 -0.74232,2.75679 -1.14743,4.11972 -2.15691,5.13285 -1.92932,11.03152 -0.0347,16.2054 2.64209,7.27091 8.10191,13.54747 15.06679,16.96185 2.03125,1.02097 4.23195,1.61984 6.44109,2.10906 7.57394,1.99726 14.22647,6.49547 19.93567,11.74409 7.45984,6.88061 13.73418,14.89895 20.07711,22.78561 5.37292,6.7409 10.83934,13.4077 16.37802,20.01284 11.18378,13.27039 23.18773,25.96602 36.89727,36.66634 0.20353,0.16138 0.80005,0.62052 1.15435,0.89614 13.11514,10.10807 27.77976,18.26594 43.45666,23.64699 18.38796,6.36916 37.96597,8.90209 57.38045,8.49263 4.54157,-0.0922 9.07935,-0.33763 13.60584,-0.71725 0.18881,-0.0211 1.03174,-0.0933 1.47315,-0.13415 1.08024,-0.0928 2.1581,-0.2105 3.23709,-0.31646 0.22279,-0.0222 1.03051,-0.11319 1.47847,-0.16187 7.11615,-0.76581 14.16675,-2.01224 21.23055,-3.14423 0.007,23.84367 -0.0135,47.68749 0.0101,71.53106 0.11992,6.79697 2.05273,13.7548 6.43812,19.05932 4.06545,5.01946 10.12245,8.15363 16.42579,9.2771 5.82868,1.02922 11.92619,0.82502 17.60718,-0.8911 5.8524,-1.75081 11.14609,-5.49519 14.45453,-10.66557 3.58119,-5.4812 4.90526,-12.14806 4.77838,-18.62267 0.005,-47.79479 -0.0105,-95.58969 0.008,-143.38442 0.0675,-13.85702 2.30339,-27.83236 7.71648,-40.6454 4.6214,-11.06268 11.58451,-21.08426 20.06727,-29.5341 3.43079,-3.56595 5.19852,-8.3917 6.11663,-13.17528 1.27441,-7.15248 0.59169,-14.6699 -2.04206,-21.44666 -2.31898,-5.81885 -6.42269,-11.15919 -12.13282,-13.95786 -2.97838,-1.49142 -6.32449,-2.14442 -9.64281,-2.11073 -26.03595,-2.70758 -52.04134,-6.87205 -77.0954,-14.6162 -21.77584,-6.72735 -42.84087,-16.32661 -61.23726,-29.89268 -14.93628,-10.95116 -27.95369,-24.50899 -38.26065,-39.89857 -12.8729,-19.12436 -21.55536,-40.83249 -27.02883,-63.1618 -5.93374,-24.19497 -8.31983,-49.14068 -8.65973,-74.01181 -0.14562,-7.83178 0.029,-15.67757 0.84496,-23.47251 2.4758,-24.61255 10.31061,-48.64099 22.64522,-70.07295 6.50232,-11.31744 14.21723,-21.94624 22.95161,-31.6395 2.27983,-1.40325 4.23002,-3.39332 5.33321,-5.85413 1.96352,-4.27154 2.0588,-9.12052 1.67371,-13.72634 -0.32863,-3.42504 -0.92006,-6.83523 -1.81502,-10.15607 -6.07378,-16.32456 -9.1218,-33.75673 -8.99855,-51.1722 0.0724,-13.93648 2.10822,-27.81715 5.52028,-41.31535 0.45757,-1.88759 0.91514,-3.77518 1.3727,-5.66276 6.07258,1.2649 12.17349,2.43954 18.12736,4.20255 16.98683,4.90369 33.15114,12.33718 48.52779,21.00364 13.27757,7.49713 25.95585,16.01917 38.17158,25.13401 4.68377,3.13125 10.29765,4.95233 15.95661,4.76012 3.93717,-0.0694 7.79311,-1.02044 11.51693,-2.23868 48.04364,-13.66651 98.42171,-18.88617 148.26197,-15.88897 31.97825,1.9422 63.76982,7.26498 94.56778,16.11137 4.89643,1.58818 10.17711,2.63944 15.30279,1.62091 2.80527,-0.54882 5.40509,-1.99049 7.36365,-4.07157 8.67022,-6.05003 17.5185,-11.85761 26.52711,-17.39614 14.61024,-8.92817 29.693,-17.18462 45.57274,-23.64089 9.02258,-3.65324 18.33196,-6.65907 27.89779,-8.51435 1.73614,-0.36348 3.47227,-0.72696 5.20841,-1.09044 1.62983,6.75124 3.3539,13.48815 4.49002,20.34554 2.95968,17.15998 3.30384,34.83287 0.3361,52.01722 -1.53535,9.04239 -3.98839,17.91927 -7.18643,26.51223 -2.20101,6.81939 -2.53456,14.47674 0.24735,21.18277 1.30935,3.25538 3.41515,6.13579 5.89298,8.59932 16.13523,18.14464 28.75662,39.45781 36.53435,62.47808 6.39567,18.82675 9.52844,38.74957 9.24273,58.63031 -0.15447,24.84929 -2.30159,49.78331 -7.90348,74.03047 -4.79034,20.71219 -12.23423,40.92811 -23.19748,59.19437 -8.97834,14.98926 -20.35384,28.55376 -33.67347,39.87176 -16.09012,13.74613 -34.85138,24.1301 -54.56459,31.6926 -22.63319,8.69132 -46.45519,13.88302 -70.40456,17.34046 -7.1707,1.02976 -14.36337,1.90319 -21.56806,2.65865 -6.58984,2.28984 -13.08572,5.39821 -18.13181,10.3176 -3.03894,2.95771 -5.31295,6.73771 -6.23303,10.89633 -0.23731,1.06717 -1.11508,1.84198 -1.55806,2.82879 -2.29709,4.13517 -2.36753,9.18764 -0.98809,13.63281 1.63481,5.42523 5.06878,10.12393 9.09811,14.03255 9.54525,9.67014 17.62596,21.00564 22.41288,33.78971 4.32011,11.3804 5.86498,23.7295 4.93893,35.84514 -0.0983,2.12615 -0.53814,4.22881 -0.44925,6.36156 0.005,47.32316 -0.0104,94.64642 0.008,141.9695 0.0829,6.87116 2.0133,13.92099 6.45218,19.2812 4.08686,5.03898 10.18066,8.17265 16.51439,9.28171 6.01917,1.04266 12.32493,0.78233 18.15268,-1.11369 5.60424,-1.82342 10.63626,-5.49637 13.82316,-10.4836 3.58531,-5.49781 4.89831,-12.18528 4.76393,-18.67483 -0.006,-46.81192 0.0114,-93.62389 -0.009,-140.43578 -0.005,-0.77976 -0.0232,-1.55939 -0.0336,-2.3391 -0.01,-0.24029 -0.027,-1.03664 -0.0397,-1.49071 -0.48225,-16.228 -2.67456,-32.41085 -6.56486,-48.17392 -1.47556,-6.09106 -3.37975,-12.06476 -5.35651,-18.00845 -0.32607,-0.9991 -0.65214,-1.99819 -0.97821,-2.99728 9.36592,-2.37256 18.74017,-4.72836 27.98855,-7.53294 27.20049,-8.15004 53.68321,-19.25222 77.57476,-34.71193 19.03114,-12.2675 36.30172,-27.32152 50.75063,-44.77179 14.96799,-18.01741 26.86446,-38.49897 35.6769,-60.17923 0.53223,-1.29239 1.03497,-2.59667 1.55397,-3.89438 0.0343,-0.0822 0.3545,-0.92741 0.49371,-1.28957 8.28456,-21.62437 13.6854,-44.28076 16.97685,-67.1801 0.0234,-0.19944 0.14128,-1.02655 0.20113,-1.46812 2.94521,-21.18181 4.1179,-42.58963 3.97789,-63.96742 -0.0111,-0.62858 -0.0224,-1.61281 -0.033,-1.99821 -0.58682,-28.56536 -6.37855,-57.05824 -17.3938,-83.43949 -8.26823,-19.87067 -19.49394,-38.50408 -33.19762,-55.10001 -0.46704,-0.57698 -0.93408,-1.15396 -1.40112,-1.73094 1.77101,-7.58048 3.33236,-15.21466 4.42333,-22.92504 0.0404,-0.27175 0.14402,-1.02732 0.20868,-1.48466 0.62931,-4.56594 1.11807,-9.15104 1.47391,-13.74638 0.0206,-0.25358 0.0751,-1.03445 0.10872,-1.49054 0.78027,-11.08342 0.73736,-22.22394 -0.1121,-33.30207 -0.0239,-0.24613 -0.0842,-1.03365 -0.12219,-1.48782 -1.94087,-23.44093 -7.60093,-46.50319 -16.05515,-68.42882 -1.71152,-5.28244 -4.82486,-10.21821 -9.3508,-13.52037 -2.57751,-1.896558 -5.48735,-3.370693 -8.55409,-4.282226 -9.3399,-2.170473 -19.03636,-2.310641 -28.55682,-1.540755 -15.68521,1.334121 -31.03965,5.301231 -45.85853,10.506611 -21.2014,7.50953 -41.38753,17.64268 -60.7524,29.03051 -7.7846,4.56844 -15.40456,9.40963 -22.96309,14.34129 -4.54718,-1.06827 -9.09411,-2.13889 -13.66321,-3.11034 -0.29385,-0.0582 -1.01543,-0.21285 -1.47317,-0.308 -21.33586,-4.50176 -42.97308,-7.54587 -64.70973,-9.25254 -0.31112,-0.0197 -1.03466,-0.077 -1.50374,-0.11112 -3.24575,-0.24973 -6.4948,-0.45344 -9.74445,-0.64495 -0.30489,-0.0183 -1.03604,-0.0552 -1.50421,-0.0807 -5.77257,-0.31249 -11.55041,-0.52256 -17.32996,-0.65007 -0.30548,-0.007 -1.03736,-0.0183 -1.50617,-0.0271 -44.5272,-0.81122 -89.14133,3.90265 -132.54273,13.87003 -0.57151,0.0565 -1.20987,0.50521 -1.68644,0.005 -14.06612,-8.87836 -28.4313,-17.30151 -43.24978,-24.86658 -17.3897,-8.86971 -35.38536,-16.69017 -54.12965,-22.22574 -13.23753,-3.862285 -26.89924,-6.643565 -40.72574,-6.889427 -0.94881,-0.01451 -1.89753,-0.01414 -2.8464,-0.005 z"
     style="stroke-width:0.864077" />
</svg>
