<?xml version="1.0" encoding="UTF-8" standalone="no"?>
<svg
   t="1779708823769"
   class="icon"
   viewBox="0 0 1024 1024"
   version="1.1"
   p-id="123250"
   width="128"
   height="128"
   id="svg2"
   sodipodi:docname="help.svg"
   inkscape:version="1.4.3 (0d15f75, 2025-12-25)"
   xmlns:inkscape="http://www.inkscape.org/namespaces/inkscape"
   xmlns:sodipodi="http://sodipodi.sourceforge.net/DTD/sodipodi-0.dtd"
   xmlns="http://www.w3.org/2000/svg"
   xmlns:svg="http://www.w3.org/2000/svg">
  <defs
     id="defs2" />
  <sodipodi:namedview
     id="namedview2"
     pagecolor="#ffffff"
     bordercolor="#000000"
     borderopacity="0.25"
     inkscape:showpageshadow="2"
     inkscape:pageopacity="0.0"
     inkscape:pagecheckerboard="0"
     inkscape:deskcolor="#d1d1d1"
     inkscape:zoom="8.8828125"
     inkscape:cx="63.943712"
     inkscape:cy="64"
     inkscape:window-width="2560"
     inkscape:window-height="1351"
     inkscape:window-x="-9"
     inkscape:window-y="-9"
     inkscape:window-maximized="1"
     inkscape:current-layer="svg2" />
  <path
     id="path1"
     style="stroke-width:0.840422"
     d="m 509.35332,98.677682 c -37.26739,0.224567 -74.50833,5.455158 -110.364,15.632618 -36.84753,10.45031 -72.21319,26.09317 -104.74579,46.30516 -36.73917,22.80407 -69.85896,51.41103 -97.80054,84.40972 -27.73595,32.74523 -50.36643,69.81656 -66.70991,109.49974 -16.82664,40.74787 -26.98618,84.2273 -30.041256,128.20377 -3.425817,48.90215 1.747936,98.4264 15.546336,145.48053 13.16195,45.09357 34.17114,87.87227 61.73295,125.90776 28.217,39.01176 63.29077,73.04323 103.1292,100.08001 35.96365,24.432 75.81352,43.13853 117.60962,55.12296 47.96946,13.80737 98.45143,18.67847 148.19121,14.6373 41.82088,-3.3724 83.11554,-13.18938 121.96922,-29.02816 33.98436,-13.84164 66.09032,-32.26662 95.22211,-54.57682 33.94771,-25.99723 63.85058,-57.26411 88.28569,-92.35422 25.69138,-36.85611 45.32195,-77.93469 57.76703,-121.10699 16.70414,-57.69165 20.47132,-119.03261 11.33887,-178.37662 -6.36893,-41.38732 -19.12447,-81.78214 -37.67689,-119.32263 -21.08974,-42.72748 -49.65588,-81.74102 -83.97351,-114.79336 -32.6839,-31.53746 -70.58974,-57.6549 -111.72693,-76.91063 -39.25229,-18.39422 -81.43548,-30.5076 -124.46617,-35.7446 -17.67204,-2.161532 -35.48427,-3.172871 -53.28724,-3.065538 z M 512,165.98365 c 34.53064,-0.005 69.0693,5.11383 102.06828,15.30292 38.68933,11.90819 75.21725,30.74952 107.4064,55.28974 35.42325,26.96357 65.59414,60.79972 88.30158,99.09307 20.85908,35.11127 35.39881,73.96483 42.6648,114.15527 7.40628,40.85421 7.42962,83.03562 0.0833,123.90011 -7.16418,39.90017 -21.48371,78.49671 -42.05336,113.42736 -22.48851,38.27593 -52.42373,72.14306 -87.60807,99.21004 -31.90662,24.57456 -68.13125,43.53852 -106.54542,55.64828 -34.98657,11.07076 -71.75191,16.41975 -108.43876,15.9799 -37.3365,-0.42194 -74.61087,-6.87328 -109.86575,-19.1918 -39.679,-13.8161 -76.75457,-35.01255 -108.86739,-62.09863 -33.85969,-28.51554 -62.20626,-63.55765 -82.95386,-102.66553 -18.60221,-34.99853 -31.07935,-73.23875 -36.6809,-112.47667 -6.61374,-46.18771 -3.9254,-93.71617 8.09715,-138.81092 10.8489,-40.84069 29.3513,-79.61837 54.19294,-113.79777 26.82559,-36.98883 61.03046,-68.59917 100.02808,-92.4122 34.85551,-21.3237 73.53707,-36.37419 113.65113,-44.16173 21.89896,-4.26968 44.21034,-6.38406 66.51987,-6.39144 z" />
  <path
     id="path2"
     style="stroke-width:0.840422"
     d="m 508.86229,301.23739 c -5.3299,0.21078 -10.65638,0.5929 -15.94274,1.31893 -4.8181,0.61053 -9.59858,1.49786 -14.34038,2.54242 -5.06088,1.17162 -10.08026,2.5288 -15.00732,4.17852 -2.87124,0.93386 -5.70231,2.00035 -8.49819,3.13883 -3.54668,1.44858 -7.02796,3.05453 -10.43926,4.79633 -3.06338,1.57954 -6.05989,3.27782 -9.00558,5.06681 -3.28068,2.04108 -6.48496,4.2031 -9.59307,6.49964 -3.10288,2.30705 -6.10524,4.74856 -9.00035,7.31224 -3.83911,3.33658 -7.51622,6.86629 -10.89056,10.67514 -2.83995,3.14802 -5.46087,6.49057 -7.93263,9.9336 -2.60869,3.71947 -5.0357,7.56754 -7.17953,11.5745 -2.03213,3.71336 -3.80685,7.56514 -5.41181,11.48078 -4.42751,11.39588 -6.66595,23.50518 -8.16429,35.5975 -0.41998,3.22416 -0.5151,6.50113 -0.0536,9.72609 0.33078,2.5471 0.98434,5.05268 1.87297,7.46033 1.00669,2.64131 2.31919,5.16094 3.93736,7.47992 1.47471,2.10238 3.17811,4.05387 5.0865,5.77338 2.06526,1.8803 4.36771,3.48467 6.82456,4.8108 2.72787,1.44739 5.64685,2.54231 8.66625,3.20253 2.99157,0.67593 6.0815,0.92609 9.14526,0.78027 8.63339,-0.42388 16.98315,-4.42405 22.80547,-10.79862 5.14642,-5.55257 8.32961,-12.81172 9.14977,-20.32281 1.62598,-11.86577 4.76736,-23.74727 11.01304,-34.06764 4.77893,-7.96476 11.64732,-14.69387 19.85388,-19.07873 10.23307,-5.52434 21.95144,-7.63145 33.4758,-7.98594 11.31291,-0.32657 22.90213,0.81175 33.4114,5.25467 6.90071,2.87948 13.10944,7.37093 17.99187,13.03586 6.42649,7.18736 12.39493,15.11998 15.45822,24.37083 1.72719,5.12877 2.25693,10.59555 1.90284,15.98028 -0.58842,11.03504 -3.70151,21.99788 -9.37675,31.50535 -4.30987,6.68161 -9.51999,12.72062 -14.73035,18.70595 -8.2731,9.42727 -17.05535,18.38564 -25.73108,27.43706 -9.70217,10.23572 -19.31745,20.58355 -28.11655,31.61564 -5.02146,6.26494 -9.52924,12.96554 -13.081,20.17695 -5.40495,10.88163 -9.028,22.61596 -11.05634,34.58384 -0.78691,4.83996 -1.45384,9.70806 -1.81619,14.59847 -0.2096,2.77499 -0.007,5.56606 0.46849,8.30458 0.45819,2.49251 1.20913,4.92903 2.18103,7.2679 1.12288,2.54105 2.47796,4.98839 4.19033,7.1821 1.47733,2.02472 3.25639,3.81013 5.13927,5.45839 1.94368,1.61808 4.05131,3.04578 6.29212,4.21978 2.07604,1.05258 4.23745,1.94867 6.48372,2.56233 2.67375,0.75804 5.43717,1.18495 8.21515,1.26458 9.1925,0.35284 18.39541,-3.46913 24.78056,-10.06549 5.89246,-5.96742 9.41886,-14.11858 9.9695,-22.46939 0.63977,-7.07516 1.90407,-14.11499 4.16359,-20.86131 2.25961,-7.03799 5.59624,-13.72476 9.8294,-19.78359 3.54645,-5.07882 7.83806,-9.5721 12.04207,-14.10229 0.23008,-0.24759 0.8627,-0.90796 1.24713,-1.31383 2.75846,-2.90393 5.56475,-5.76188 8.38198,-8.60868 0.29356,-0.29887 0.88471,-0.88667 1.29217,-1.29613 1.4849,-1.49299 2.98243,-2.97332 4.47593,-4.4577 0.33555,-0.32389 0.94314,-0.92634 1.38287,-1.35691 9.04278,-8.94653 18.44319,-17.54088 27.05907,-26.91054 8.34058,-9.05805 16.32115,-18.57563 22.50739,-29.26398 8.10827,-14.27 12.1157,-30.64647 12.63735,-46.99215 0.53982,-18.32072 -2.10801,-36.9215 -9.24099,-53.88499 -6.12412,-14.71639 -15.66866,-27.93593 -27.46956,-38.62681 -12.51575,-11.44399 -27.29025,-20.41465 -43.26174,-26.13274 -18.07914,-6.53152 -37.4512,-8.97308 -56.61309,-8.51125 -0.46046,0.006 -0.92093,0.0123 -1.38138,0.0184 z m 1.23674,352.85002 c -2.62985,0.0563 -5.26257,0.25882 -7.84635,0.76263 -3.03721,0.54332 -6.00408,1.43331 -8.86285,2.5902 -2.35977,0.94696 -4.61304,2.13868 -6.789,3.45234 -2.34769,1.49642 -4.59414,3.16345 -6.64151,5.05273 -2.27064,2.08437 -4.33194,4.39313 -6.12706,6.89932 -1.5193,2.06693 -2.80344,4.29692 -3.95112,6.58946 -1.18633,2.45644 -2.15557,5.0183 -2.90375,7.64149 -0.66856,2.50824 -1.19107,5.06079 -1.42515,7.64765 -0.3197,3.0684 -0.29539,6.16555 0.0219,9.23312 0.25849,2.52851 0.77023,5.02367 1.42823,7.47784 0.77072,2.63845 1.73855,5.22456 2.95708,7.68949 1.34289,2.69974 2.92122,5.2853 4.78844,7.65546 1.62106,2.15988 3.50596,4.10786 5.48326,5.94318 2.07082,1.83206 4.283,3.51253 6.64489,4.95196 2.60732,1.57959 5.35511,2.93111 8.23215,3.94513 2.53845,0.96052 5.18962,1.58344 7.85394,2.08272 3.23421,0.49513 6.5169,0.74694 9.78768,0.53848 2.69923,-0.10276 5.37616,-0.53578 8.01023,-1.12285 2.68926,-0.64265 5.32347,-1.52311 7.85659,-2.63111 2.77754,-1.24967 5.4579,-2.72549 7.92643,-4.5143 2.38768,-1.64415 4.54458,-3.60112 6.57515,-5.66428 1.73911,-1.88934 3.38033,-3.87268 4.79869,-6.01496 1.66623,-2.51367 3.11939,-5.17233 4.23715,-7.97576 1.13667,-2.66358 1.91499,-5.46646 2.52911,-8.29213 0.5372,-2.97181 0.9034,-5.98541 0.84142,-9.00985 0.0388,-2.88975 -0.32796,-5.7671 -0.83744,-8.60704 -0.56514,-2.65467 -1.30653,-5.27668 -2.31273,-7.79902 -1.13083,-2.83327 -2.52104,-5.5639 -4.21035,-8.106 -1.4144,-2.21981 -3.08634,-4.2652 -4.86589,-6.20184 -1.90123,-2.00592 -3.97928,-3.84772 -6.20517,-5.48584 -2.10868,-1.51353 -4.31397,-2.90311 -6.65342,-4.0311 -2.75451,-1.38636 -5.66491,-2.44104 -8.64233,-3.23607 -2.71192,-0.70011 -5.4909,-1.14806 -8.28403,-1.35121 -1.13783,-0.0289 -2.27632,-0.12483 -3.41417,-0.10984 z" />
</svg>
