<?xml version="1.0" encoding="UTF-8" standalone="no"?>
<svg
   t="1779613210596"
   class="icon"
   viewBox="0 0 1024 1024"
   version="1.1"
   p-id="25482"
   width="128"
   height="128"
   id="svg2"
   sodipodi:docname="home-fill.svg"
   inkscape:version="1.4.3 (0d15f75, 2025-12-25)"
   xmlns:inkscape="http://www.inkscape.org/namespaces/inkscape"
   xmlns:sodipodi="http://sodipodi.sourceforge.net/DTD/sodipodi-0.dtd"
   xmlns="http://www.w3.org/2000/svg"
   xmlns:svg="http://www.w3.org/2000/svg">
  <defs
     id="defs2" />
  <sodipodi:namedview
     id="namedview2"
     pagecolor="#ffffff"
     bordercolor="#000000"
     borderopacity="0.25"
     inkscape:showpageshadow="2"
     inkscape:pageopacity="0.0"
     inkscape:pagecheckerboard="0"
     inkscape:deskcolor="#d1d1d1"
     inkscape:zoom="8.8828125"
     inkscape:cx="63.943712"
     inkscape:cy="64"
     inkscape:window-width="2560"
     inkscape:window-height="1351"
     inkscape:window-x="-9"
     inkscape:window-y="-9"
     inkscape:window-maximized="1"
     inkscape:current-layer="svg2" />
  <path
     d="M 889.0831,497.16873 545.17469,153.33876 c -9.09977,-9.09977 -21.18049,-13.25742 -33.18277,-12.78674 -12.00228,-0.47068 -24.08301,3.68697 -33.18277,12.78674 L 134.90073,497.16873 c -17.33662,17.25818 -17.33662,45.57728 0,62.9139 17.25818,17.33663 45.57728,17.33663 62.9139,0 L 511.99192,245.90535 826.1692,560.08263 c 17.33662,17.33663 45.57728,17.33663 62.9139,0 17.25818,-17.33662 17.25818,-45.57728 0,-62.9139 z"
     fill="#111111"
     p-id="25483"
     id="path1"
     style="stroke-width:0.784463" />
  <path
     d="m 223.62345,584.24408 v 264.28546 c 0,21.65117 14.43412,34.90859 36.08529,34.90859 H 411.11002 V 679.16406 c 0,-24.55368 18.12109,-42.0472 42.75322,-42.0472 h 114.60999 c 24.55368,0 46.59708,17.49352 46.59708,42.0472 v 204.27407 h 147.55742 c 21.65117,0 36.7913,-13.25742 36.7913,-34.90859 V 577.41926 L 514.97288,293.44379 Z"
     fill="#111111"
     p-id="25484"
     id="path2"
     style="stroke-width:0.784463" />
</svg>
