<?xml version="1.0" encoding="UTF-8" standalone="no"?>
<svg
   t="1779612644609"
   class="icon"
   viewBox="0 0 1024 1024"
   version="1.1"
   p-id="25112"
   width="128"
   height="128"
   id="svg1"
   sodipodi:docname="home-line.svg"
   inkscape:version="1.4.3 (0d15f75, 2025-12-25)"
   xmlns:inkscape="http://www.inkscape.org/namespaces/inkscape"
   xmlns:sodipodi="http://sodipodi.sourceforge.net/DTD/sodipodi-0.dtd"
   xmlns="http://www.w3.org/2000/svg"
   xmlns:svg="http://www.w3.org/2000/svg">
  <defs
     id="defs1" />
  <sodipodi:namedview
     id="namedview1"
     pagecolor="#ffffff"
     bordercolor="#000000"
     borderopacity="0.25"
     inkscape:showpageshadow="2"
     inkscape:pageopacity="0.0"
     inkscape:pagecheckerboard="0"
     inkscape:deskcolor="#d1d1d1"
     inkscape:zoom="8.8828125"
     inkscape:cx="63.943712"
     inkscape:cy="82.012313"
     inkscape:window-width="2560"
     inkscape:window-height="1351"
     inkscape:window-x="-9"
     inkscape:window-y="-9"
     inkscape:window-maximized="1"
     inkscape:current-layer="svg1" />
  <path
     d="M 887.32229,492.76536 547.32834,130.3704 a 48.581933,48.581933 0 0 0 -70.90336,0 L 136.47081,492.76536 a 48.581933,48.581933 0 0 0 35.45168,81.88502 h 48.26363 v 244.02375 a 90.200853,90.200853 0 0 0 90.08149,90.12128 H 442.56484 V 666.64173 a 16.591864,16.591864 0 0 1 16.55208,-16.55208 H 564.6364 a 16.591864,16.591864 0 0 1 16.55207,16.55208 V 908.99435 H 713.48571 A 90.200853,90.200853 0 0 0 803.5672,818.87307 V 574.65038 h 48.26362 a 48.621721,48.621721 0 0 0 35.49147,-81.88502 z m -141.44862,24.19149 v 301.71728 a 32.427744,32.427744 0 0 1 -32.38796,32.42774 h -74.6037 V 666.64173 A 74.325185,74.325185 0 0 0 564.6364,592.39612 H 459.11692 a 74.325185,74.325185 0 0 0 -74.24561,74.24561 v 184.65909 h -74.6037 A 32.427744,32.427744 0 0 1 277.87965,818.87307 V 516.95685 H 192.85132 L 511.87666,176.88332 830.902,516.95685 Z"
     fill="#111111"
     p-id="25113"
     id="path1"
     style="stroke-width:0.77538" />
</svg>
