<?xml version="1.0" standalone="no"?>
<!DOCTYPE svg PUBLIC "-//W3C//DTD SVG 1.1//EN" "http://www.w3.org/Graphics/SVG/1.1/DTD/svg11.dtd">
<svg t="1779654034008" class="icon" viewBox="0 0 1024 1024" version="1.1" xmlns="http://www.w3.org/2000/svg" p-id="94144" xmlns:xlink="http://www.w3.org/1999/xlink" width="128" height="128">
	<path d="M352 896A96.128 96.128 0 0 0 448 992h128a96.128 96.128 0 0 0 96-96v-182.208a30.976 30.976 0 0 1 16.896-25.856 352.064 352.064 0 1 0-350.592 1.92 30.016 30.016 0 0 1 13.696 26.24z m224 32H448a32 32 0 0 1-32-32v-96h192V896a32 32 0 0 1-32 32zM228.416 332.736a285.888 285.888 0 0 1 221.12-230.208 303.936 303.936 0 0 1 61.76-6.4 287.68 287.68 0 0 1 145.408 536.512 94.208 94.208 0 0 0-48.704 81.152v22.208h-192v-19.904a93.568 93.568 0 0 0-46.08-81.92A287.04 287.04 0 0 1 228.416 332.8z" p-id="94145" fill="#111111">
	</path>
</svg>
