<?xml version="1.0" encoding="UTF-8" standalone="no"?>
<svg
   t="1779706585282"
   class="icon"
   viewBox="0 0 1024 1024"
   version="1.1"
   p-id="100411"
   width="128"
   height="128"
   id="svg2"
   sodipodi:docname="link.svg"
   inkscape:version="1.4.3 (0d15f75, 2025-12-25)"
   xmlns:inkscape="http://www.inkscape.org/namespaces/inkscape"
   xmlns:sodipodi="http://sodipodi.sourceforge.net/DTD/sodipodi-0.dtd"
   xmlns="http://www.w3.org/2000/svg"
   xmlns:svg="http://www.w3.org/2000/svg">
  <defs
     id="defs2" />
  <sodipodi:namedview
     id="namedview2"
     pagecolor="#ffffff"
     bordercolor="#000000"
     borderopacity="0.25"
     inkscape:showpageshadow="2"
     inkscape:pageopacity="0.0"
     inkscape:pagecheckerboard="0"
     inkscape:deskcolor="#d1d1d1"
     inkscape:zoom="8.8828125"
     inkscape:cx="63.943712"
     inkscape:cy="64"
     inkscape:window-width="2560"
     inkscape:window-height="1351"
     inkscape:window-x="-9"
     inkscape:window-y="-9"
     inkscape:window-maximized="1"
     inkscape:current-layer="svg2" />
  <path
     d="M 579.23138,652.11562 A 205.44022,205.44022 0 0 1 433.86447,591.51688 l -26.9717,-26.97169 49.56486,-49.56486 26.9717,26.97169 a 136.08445,136.08445 0 0 0 186.17472,6.30507 l 1.57627,-1.40113 a 54.118525,54.118525 0 0 0 4.37853,-4.20337 L 786.42301,431.78843 a 135.90931,135.90931 0 0 0 0,-192.65495 l -2.10169,-2.10169 a 135.90931,135.90931 0 0 0 -192.65494,0 l -56.57049,56.5705 a 54.118525,54.118525 0 0 0 -4.20339,4.37853 l -21.89261,27.32197 -54.64394,-43.78522 22.59317,-27.49711 a 118.39522,118.39522 0 0 1 9.45761,-10.15817 l 56.57049,-56.5705 a 205.96564,205.96564 0 0 1 291.95981,0 l 2.10168,2.10169 a 205.96564,205.96564 0 0 1 0,291.9598 L 726.17455,592.21745 a 122.5986,122.5986 0 0 1 -9.28247,8.58189 208.24248,208.24248 0 0 1 -137.13528,52.54226 z"
     fill="#111111"
     p-id="100412"
     id="path1"
     style="stroke-width:1.09463" />
  <path
     d="M 335.4353,897.31282 A 205.08994,205.08994 0 0 1 189.54297,836.71408 l -2.10168,-2.10169 a 205.96564,205.96564 0 0 1 0,-291.9598 L 298.30545,431.78843 a 122.5986,122.5986 0 0 1 9.28247,-8.58191 206.14078,206.14078 0 0 1 282.50219,8.58191 l 26.97169,27.67225 -49.56486,49.56486 -26.97169,-26.97169 a 136.08445,136.08445 0 0 0 -186.17473,-6.30508 l -1.57627,1.40113 a 54.118525,54.118525 0 0 0 -4.37851,4.20338 L 237.53157,592.21745 a 135.90931,135.90931 0 0 0 0,192.65493 l 2.10169,2.1017 a 135.90931,135.90931 0 0 0 192.65494,0 l 56.5705,-56.5705 a 54.118525,54.118525 0 0 0 4.20338,-4.37852 l 21.8926,-27.32197 54.81909,43.78521 -22.76831,27.49712 a 118.39522,118.39522 0 0 1 -9.4576,10.15816 l -56.5705,56.5705 A 205.08994,205.08994 0 0 1 335.4353,897.31282 Z"
     fill="#111111"
     p-id="100413"
     id="path2"
     style="stroke-width:1.09463" />
</svg>
