<?xml version="1.0" encoding="UTF-8" standalone="no"?>
<svg
   t="1779709566116"
   class="icon"
   viewBox="0 0 1024 1024"
   version="1.1"
   p-id="135208"
   width="128"
   height="128"
   id="svg1"
   sodipodi:docname="list.svg"
   inkscape:version="1.4.3 (0d15f75, 2025-12-25)"
   xmlns:inkscape="http://www.inkscape.org/namespaces/inkscape"
   xmlns:sodipodi="http://sodipodi.sourceforge.net/DTD/sodipodi-0.dtd"
   xmlns="http://www.w3.org/2000/svg"
   xmlns:svg="http://www.w3.org/2000/svg">
  <defs
     id="defs1" />
  <sodipodi:namedview
     id="namedview1"
     pagecolor="#ffffff"
     bordercolor="#000000"
     borderopacity="0.25"
     inkscape:showpageshadow="2"
     inkscape:pageopacity="0.0"
     inkscape:pagecheckerboard="0"
     inkscape:deskcolor="#d1d1d1"
     inkscape:zoom="8.8828125"
     inkscape:cx="63.943712"
     inkscape:cy="64"
     inkscape:window-width="2560"
     inkscape:window-height="1351"
     inkscape:window-x="-9"
     inkscape:window-y="-9"
     inkscape:window-maximized="1"
     inkscape:current-layer="svg1" />
  <path
     d="M 837.18051,65.919408 H 183.64213 c -32.80935,0 -59.41258,26.602043 -59.41258,59.412582 v 772.36593 c 0,32.80934 26.60204,59.41258 59.41258,59.41258 h 653.53838 c 32.80934,0 59.41258,-26.60324 59.41258,-59.41258 V 125.33199 c 0,-32.809347 -26.60324,-59.412582 -59.41258,-59.412582 z m 0,787.219072 c 0,24.61566 -19.95929,44.56063 -44.56063,44.56063 H 228.20275 c -24.62997,0 -44.56062,-19.94497 -44.56062,-44.56063 V 169.89262 c 0,-24.60134 19.93065,-44.56063 44.56062,-44.56063 h 564.41832 c 24.60015,0 44.56063,19.95929 44.56063,44.56063 V 853.13848 Z M 450.99993,273.86463 H 272.76219 v 59.41258 H 450.99993 Z M 569.8239,452.10237 H 272.76219 v 59.41258 H 569.8239 Z M 272.76219,689.75389 H 688.64786 V 630.34131 H 272.76219 Z"
     fill="#111111"
     p-id="135209"
     id="path1"
     style="stroke-width:1.16585" />
</svg>
