<?xml version="1.0" encoding="UTF-8" standalone="no"?>
<svg
   t="1779890019941"
   class="icon"
   viewBox="0 0 1024 1024"
   version="1.1"
   p-id="35314"
   width="128"
   height="128"
   id="svg1"
   sodipodi:docname="loading-dot.svg"
   inkscape:version="1.4.3 (0d15f75, 2025-12-25)"
   xmlns:inkscape="http://www.inkscape.org/namespaces/inkscape"
   xmlns:sodipodi="http://sodipodi.sourceforge.net/DTD/sodipodi-0.dtd"
   xmlns="http://www.w3.org/2000/svg"
   xmlns:svg="http://www.w3.org/2000/svg">
  <defs
     id="defs1" />
  <sodipodi:namedview
     id="namedview1"
     pagecolor="#ffffff"
     bordercolor="#000000"
     borderopacity="0.25"
     inkscape:showpageshadow="2"
     inkscape:pageopacity="0.0"
     inkscape:pagecheckerboard="0"
     inkscape:deskcolor="#d1d1d1"
     inkscape:zoom="8.8828125"
     inkscape:cx="63.943712"
     inkscape:cy="64"
     inkscape:window-width="2560"
     inkscape:window-height="1351"
     inkscape:window-x="-9"
     inkscape:window-y="-9"
     inkscape:window-maximized="1"
     inkscape:current-layer="svg1" />
  <path
     d="m 804.96959,729.27848 c 2.62091,0 5.03626,-2.56952 5.03626,-5.3446 0,-2.77508 -2.41535,-5.29321 -5.03626,-5.29321 -2.6209,0 -5.03626,2.56952 -5.03626,5.29321 0,2.77508 2.41536,5.3446 5.03626,5.3446 z M 692.11634,852.40981 c 1.85005,1.95283 4.47096,3.08341 7.04048,3.08341 a 9.7641699,9.7641699 0 0 0 7.09187,-3.08341 11.048929,11.048929 0 0 0 0,-14.90321 9.8155604,9.8155604 0 0 0 -7.09187,-3.08342 9.7641699,9.7641699 0 0 0 -7.04048,3.08342 10.997539,10.997539 0 0 0 0,14.90321 z m -147.74731,66.08801 c 2.77508,2.92925 6.68074,4.62513 10.58642,4.62513 a 14.749036,14.749036 0 0 0 10.58641,-4.62513 16.547699,16.547699 0 0 0 0,-22.45759 14.749036,14.749036 0 0 0 -10.58641,-4.67653 14.749036,14.749036 0 0 0 -10.58642,4.62513 16.547699,16.547699 0 0 0 0,22.50899 z m -159.25875,-4.62513 c 3.70011,3.85427 8.89053,6.16684 14.13235,6.16684 a 19.631121,19.631121 0 0 0 14.08096,-6.16684 22.046468,22.046468 0 0 0 0,-29.9092 19.631121,19.631121 0 0 0 -14.08096,-6.16685 19.631121,19.631121 0 0 0 -14.13235,6.16685 22.097858,22.097858 0 0 0 0,29.8578 z M 244.04371,840.1275 c 4.62514,4.88209 11.10033,7.70856 17.62691,7.70856 a 24.564596,24.564596 0 0 0 17.67828,-7.70856 27.596628,27.596628 0 0 0 0,-37.41218 24.564596,24.564596 0 0 0 -17.67828,-7.70856 24.564596,24.564596 0 0 0 -17.62691,7.70856 27.596628,27.596628 0 0 0 0,37.41218 z M 146.76175,712.16549 c 5.55016,5.90989 13.36149,9.35304 21.17283,9.35304 a 29.498072,29.498072 0 0 0 21.22422,-9.30165 33.146788,33.146788 0 0 0 0,-44.91519 29.498072,29.498072 0 0 0 -21.22422,-9.30165 29.549462,29.549462 0 0 0 -21.17283,9.25027 33.146788,33.146788 0 0 0 0,44.96657 z M 111.09683,554.29427 a 34.431547,34.431547 0 0 0 24.71877,10.79198 34.431547,34.431547 0 0 0 24.71876,-10.79198 38.645557,38.645557 0 0 0 0,-52.36679 34.431547,34.431547 0 0 0 -24.66738,-10.79197 34.431547,34.431547 0 0 0 -24.77015,10.79197 38.645557,38.645557 0 0 0 0,52.36679 z m 31.96481,-156.89479 a 39.313632,39.313632 0 0 0 28.26471,12.33369 39.313632,39.313632 0 0 0 28.2647,-12.33369 44.144326,44.144326 0 0 0 0,-59.86978 39.313632,39.313632 0 0 0 -28.2647,-12.38508 39.313632,39.313632 0 0 0 -28.26471,12.38508 44.144326,44.144326 0 0 0 0,59.86978 z m 92.96517,-125.90641 c 8.32525,8.83915 20.04225,13.97818 31.86203,13.97818 11.71701,0 23.43402,-5.13903 31.75926,-13.97818 a 49.694486,49.694486 0 0 0 0,-67.32138 44.247107,44.247107 0 0 0 -31.81064,-13.97818 c -11.7684,0 -23.4854,5.13904 -31.81065,13.97818 a 49.694486,49.694486 0 0 0 0,67.32138 z m 135.72197,-70.40481 c 9.25027,9.76418 22.25203,15.46851 35.30518,15.46851 13.05316,0 26.05492,-5.65294 35.30519,-15.46851 a 55.141866,55.141866 0 0 0 0,-74.82437 49.180583,49.180583 0 0 0 -35.30519,-15.4685 49.180583,49.180583 0 0 0 -35.30518,15.4685 55.193257,55.193257 0 0 0 0,74.82437 z m 152.26967,-0.87362 c 10.17529,10.79197 24.51321,17.06159 38.9025,17.06159 14.38931,0 28.67583,-6.26962 38.85112,-17.06159 a 60.692026,60.692026 0 0 0 0,-82.27599 54.114058,54.114058 0 0 0 -38.90251,-17.0616 c -14.3893,0 -28.72721,6.26962 -38.9025,17.0616 a 60.692026,60.692026 0 0 0 0,82.27599 z m 139.57623,69.53116 c 11.10033,11.717 26.723,18.55192 42.34567,18.55192 15.72546,0 31.34812,-6.83492 42.39706,-18.55192 a 66.190795,66.190795 0 0 0 0,-89.72758 58.996143,58.996143 0 0 0 -42.39706,-18.60332 c -15.67406,0 -31.24534,6.83492 -42.34567,18.60332 a 66.190795,66.190795 0 0 0 0,89.72758 z m 99.59454,127.29395 c 12.02534,12.7448 28.93278,20.14502 45.94299,20.14502 16.95882,0 33.91764,-7.40022 45.8916,-20.14502 a 71.740955,71.740955 0 0 0 0,-97.23058 63.929618,63.929618 0 0 0 -45.8916,-20.14503 c -17.01021,0 -33.91765,7.40022 -45.94299,20.14503 a 71.740955,71.740955 0 0 0 0,97.23058 z m 40.49561,163.83249 c 12.95037,13.72122 31.14257,21.68674 49.48893,21.68674 18.29497,0 36.48716,-7.96552 49.43753,-21.68674 a 77.291115,77.291115 0 0 0 0,-104.73357 68.863094,68.863094 0 0 0 -49.43753,-21.73812 c -18.34636,0 -36.48716,8.01689 -49.48893,21.73812 a 77.239725,77.239725 0 0 0 0,104.73357 z"
     fill="#111111"
     p-id="35315"
     id="path1"
     style="stroke-width:0.802974" />
</svg>
