<?xml version="1.0" encoding="UTF-8" standalone="no"?>
<svg
   class="icon"
   viewBox="0 0 1024 1024"
   version="1.1"
   width="128"
   height="128"
   id="svg1"
   sodipodi:docname="loading.svg"
   inkscape:version="1.4.3 (0d15f75, 2025-12-25)"
   xmlns:inkscape="http://www.inkscape.org/namespaces/inkscape"
   xmlns:sodipodi="http://sodipodi.sourceforge.net/DTD/sodipodi-0.dtd"
   xmlns="http://www.w3.org/2000/svg"
   xmlns:svg="http://www.w3.org/2000/svg">
  <defs
     id="defs1" />
  <sodipodi:namedview
     id="namedview1"
     pagecolor="#ffffff"
     bordercolor="#000000"
     borderopacity="0.25"
     inkscape:showpageshadow="2"
     inkscape:pageopacity="0.0"
     inkscape:pagecheckerboard="0"
     inkscape:deskcolor="#d1d1d1"
     inkscape:zoom="8.8828125"
     inkscape:cx="63.943712"
     inkscape:cy="64"
     inkscape:window-width="2560"
     inkscape:window-height="1351"
     inkscape:window-x="-9"
     inkscape:window-y="-9"
     inkscape:window-maximized="1"
     inkscape:current-layer="svg1" />
  <path
     id="path1"
     style="stroke-width:0.792742"
     d="m 510.07422,131.25977 c -3.29416,0.0273 -6.58819,0.0829 -9.88086,0.1875 -0.40415,0.0175 -1.19995,0.0418 -1.75401,0.0619 -0.64339,0.0206 -1.03767,0.0354 -1.74153,0.0658 -2.09285,0.0831 -4.18457,0.19192 -6.27594,0.30588 -0.34423,0.0246 -1.19847,0.0731 -1.73812,0.10689 -22.54222,1.38337 -44.96093,4.77362 -66.90251,10.12553 -0.34526,0.0899 -1.16531,0.2895 -1.69242,0.42141 -0.64573,0.15797 -1.19474,0.29804 -1.90881,0.4792 -6.40692,1.63233 -12.76888,3.438 -19.08432,5.39431 -0.16791,0.0501 -1.14129,0.36246 -1.62159,0.51427 -5.40458,1.70087 -10.7636,3.54345 -16.08739,5.48183 -0.17444,0.0614 -1.12237,0.41838 -1.59651,0.5943 -23.99661,8.87369 -47.49471,20.5032 -68.91965,33.88883 -27.16521,16.92697 -52.52153,37.68081 -74.36884,60.62284 -27.29421,28.63015 -50.12999,61.50764 -67.35843,97.11734 -8.21915,16.9702 -15.15421,34.5592 -20.76634,52.55989 -0.0453,0.16939 -0.34804,1.14578 -0.4932,1.62815 -3.7461,12.23344 -6.87514,24.65628 -9.35641,37.20779 -0.0782,0.38534 -0.23001,1.17847 -0.33638,1.71991 -1.25266,6.45964 -2.32707,12.9535 -3.24174,19.46954 -0.053,0.36533 -0.16284,1.18964 -0.23761,1.73072 -1.3263,9.80403 -2.26732,19.65978 -2.8327,29.53686 -0.0215,0.35284 -0.0647,1.19897 -0.0945,1.74077 -0.099,1.85788 -0.18048,3.71663 -0.25514,5.57564 -0.008,0.35305 -0.0406,1.20003 -0.058,1.74229 -0.0263,0.7007 -0.0425,1.28177 -0.0643,2.05361 -0.21952,7.69815 -0.19946,15.64234 0.0402,23.19042 0.0286,0.83269 0.0573,1.66537 0.0859,2.49805 0.011,0.35292 0.0494,1.1997 0.0709,1.74181 0.52403,12.32448 1.64548,24.62316 3.35103,36.84022 0.0563,0.36487 0.17102,1.1885 0.2497,1.72903 2.84963,19.75442 7.27837,39.27868 13.20342,58.33738 0.0501,0.16791 0.36246,1.14129 0.51427,1.62159 12.7384,40.36505 32.34416,78.53717 57.63523,112.47269 23.79436,31.95758 52.61216,60.16212 85.06845,83.27135 33.57623,23.91466 71.05192,42.35648 110.52494,54.252 5.00962,1.52216 10.05692,2.91753 15.1243,4.23393 0.2838,0.0672 1.16341,0.29526 1.67608,0.42424 0.5859,0.15079 0.95004,0.24181 1.60276,0.40205 10.42071,2.58123 20.95144,4.71616 31.55319,6.40613 0.33845,0.0556 1.18639,0.18472 1.72008,0.26849 0.82283,0.12809 1.66293,0.24941 2.57413,0.38804 5.6983,0.84369 11.41665,1.54945 17.1472,2.13449 0.37628,0.0396 1.19492,0.118 1.74056,0.17246 7.4855,0.72642 14.99253,1.22682 22.50749,1.51699 0.35305,0.008 1.20003,0.0406 1.74229,0.058 0.7007,0.0262 1.28177,0.0425 2.05361,0.0643 4.28435,0.0984 8.23619,0.2143 12.5324,0.11141 8.66013,-0.39998 17.0039,-4.81701 22.25293,-11.70788 5.13615,-6.57381 7.26081,-15.34508 5.80255,-23.54928 -1.52779,-9.14642 -7.59661,-17.36307 -15.84843,-21.57609 -4.63036,-2.43715 -9.90225,-3.50475 -15.11619,-3.36117 -35.68281,-0.11685 -71.34867,-6.1902 -105.01808,-18.02271 C 369.5919,802.6812 335.38469,783.08852 305.73903,758.0795 274.23024,731.54193 247.86985,698.91079 228.60807,662.49281 211.36666,629.96513 199.83381,594.4278 194.68095,557.97576 c -6.34428,-44.80554 -3.24693,-90.95667 9.30232,-134.44793 10.93409,-38.03973 29.0594,-73.98198 53.06686,-105.44478 26.18477,-34.37934 59.35293,-63.41955 96.9273,-84.77391 33.53073,-19.10655 70.5572,-32.05368 108.69428,-37.97391 38.34084,-5.9711 77.76275,-5.00326 115.75044,2.92638 37.64792,7.83608 73.83343,22.58801 106.2586,43.25674 36.70841,23.34755 68.5955,54.22733 93.11149,90.16571 22.81475,33.35943 39.23174,71.08201 48.02148,110.53287 5.18821,23.16515 7.73915,46.90819 7.73364,70.64396 0.0326,8.53626 3.96731,16.93351 10.45655,22.46919 6.10702,5.32475 14.43077,7.96141 22.49022,7.16273 9.03558,-0.77921 17.52942,-5.96384 22.42448,-13.58678 3.42634,-5.19921 5.07148,-11.48157 4.84888,-17.69001 -5.5e-4,-1.2205 -0.0164,-2.4409 -0.0273,-3.66133 -0.004,-0.35347 -0.0196,-1.20056 -0.028,-1.74311 -0.0293,-1.87309 -0.0797,-3.74577 -0.13609,-5.61822 -0.0175,-0.40415 -0.0418,-1.19995 -0.0619,-1.75401 -0.0206,-0.64338 -0.0354,-1.03767 -0.0657,-1.74153 -0.31558,-7.74685 -0.86604,-15.48403 -1.64779,-23.19782 -0.0427,-0.37597 -0.1256,-1.19415 -0.18369,-1.73942 -0.6135,-5.79528 -1.36259,-11.57613 -2.24404,-17.33675 -0.082,-0.55427 -0.22464,-1.44976 -0.32989,-2.13487 -0.0659,-0.41303 -0.17707,-1.08268 -0.27053,-1.66204 -0.43427,-2.66371 -0.89829,-5.32247 -1.38786,-7.97653 -0.071,-0.39359 -0.22158,-1.18007 -0.32303,-1.72405 -1.36509,-7.19029 -2.94417,-14.3396 -4.71799,-21.44001 -0.0928,-0.34454 -0.2967,-1.1635 -0.43205,-1.68975 -9.21359,-36.06771 -23.8024,-70.75 -43.10163,-102.5808 -20.60835,-34.02292 -46.57851,-64.78033 -76.62769,-90.84115 -31.02177,-26.90829 -66.39631,-48.79947 -104.36792,-64.44879 -17.71843,-7.31688 -35.99777,-13.27135 -54.61915,-17.82232 -0.37997,-0.0949 -1.16733,-0.28117 -1.70324,-0.41104 -1.73367,-0.41733 -3.47204,-0.81467 -5.21082,-1.21006 -0.34725,-0.073 -1.17256,-0.25851 -1.70294,-0.3746 -2.52059,-0.55348 -5.04701,-1.08025 -7.57831,-1.58243 -0.3853,-0.0784 -1.17836,-0.23058 -1.71975,-0.33722 -1.01427,-0.19738 -2.23569,-0.42578 -3.10397,-0.58533 -21.35583,-3.94658 -43.04956,-6.04513 -64.76417,-6.32159 -0.35352,-5e-5 -1.20067,-0.011 -1.74328,-0.0152 -1.86482,-0.0166 -3.72975,-0.0151 -5.59461,-0.006 z" />
</svg>
