<?xml version="1.0" encoding="UTF-8" standalone="no"?>
<svg
   class="icon"
   viewBox="0 0 1024 1024"
   version="1.1"
   width="128"
   height="128"
   id="svg1"
   sodipodi:docname="loading.svg"
   inkscape:version="1.4.3 (0d15f75, 2025-12-25)"
   xmlns:inkscape="http://www.inkscape.org/namespaces/inkscape"
   xmlns:sodipodi="http://sodipodi.sourceforge.net/DTD/sodipodi-0.dtd"
   xmlns="http://www.w3.org/2000/svg"
   xmlns:svg="http://www.w3.org/2000/svg">
  <defs
     id="defs1" />
  <sodipodi:namedview
     id="namedview1"
     pagecolor="#ffffff"
     bordercolor="#000000"
     borderopacity="0.25"
     inkscape:showpageshadow="2"
     inkscape:pageopacity="0.0"
     inkscape:pagecheckerboard="0"
     inkscape:deskcolor="#d1d1d1"
     inkscape:zoom="8.8828125"
     inkscape:cx="63.943712"
     inkscape:cy="64"
     inkscape:window-width="2560"
     inkscape:window-height="1351"
     inkscape:window-x="-9"
     inkscape:window-y="-9"
     inkscape:window-maximized="1"
     inkscape:current-layer="svg1" />
  <path
     d="m 512.51121,123.25247 c -214.96237,0 -389.25864,174.29231 -389.25864,389.25863 0,214.9703 174.28914,389.26023 389.25864,389.26023 21.05047,0 38.11504,-17.06536 38.11504,-38.11505 0,-21.05048 -17.06457,-38.11505 -38.11504,-38.11505 -172.86934,0 -313.02934,-140.16 -313.02934,-313.03013 0,-172.86537 140.16713,-313.02933 313.03013,-313.02933 172.86934,0 313.02934,140.16 313.02934,313.03013 0,21.04968 17.06457,38.11504 38.11504,38.11504 21.04969,0 38.11505,-17.06536 38.11505,-38.11504 0,-214.9703 -174.28993,-389.26023 -389.26022,-389.26023 z"
     id="path1"
     style="stroke-width:0.792742" />
</svg>
