<?xml version="1.0" standalone="no"?>
<!DOCTYPE svg PUBLIC "-//W3C//DTD SVG 20010904//EN"
 "http://www.w3.org/TR/2001/REC-SVG-20010904/DTD/svg10.dtd">
<svg version="1.0" xmlns="http://www.w3.org/2000/svg"
 width="128" height="128" viewBox="0 0 128 128"
 preserveAspectRatio="xMidYMid meet">

<g transform="translate(0.000000,128.000000) scale(0.100000,-0.100000)"
 stroke="none">
<path d="M150 1211 c-19 -10 -48 -35 -65 -55 l-30 -38 0 -478 0 -478 30 -38
c63 -76 44 -74 555 -74 511 0 492 -2 555 74 l30 38 0 478 0 478 -30 38 c-63
76 -44 74 -555 74 -424 0 -458 -1 -490 -19z m522 -219 c106 -47 172 -141 172
-247 -1 -103 -57 -180 -169 -231 -51 -24 -72 -28 -145 -27 -47 1 -105 7 -130
15 l-45 15 1 -49 c2 -35 7 -53 20 -63 28 -20 13 -27 -62 -27 -69 -1 -95 14
-60 34 14 8 16 37 16 235 l0 227 -35 -34 c-23 -22 -33 -40 -30 -51 3 -10 0
-21 -6 -25 -14 -8 -59 42 -59 66 0 39 169 144 280 175 72 20 192 14 252 -13z
m318 -544 l0 -172 55 54 55 54 25 -24 24 -25 -95 -89 -95 -89 -88 84 c-49 46
-89 89 -90 95 0 6 8 19 19 29 20 18 22 18 73 -33 l52 -51 -3 169 -3 170 36 0
35 0 0 -172z"/>
<path d="M465 960 c-23 -4 -56 -14 -73 -22 l-33 -13 -2 -177 -2 -178 30 -11
c17 -6 65 -13 107 -16 69 -5 83 -3 130 20 77 38 118 102 118 187 0 144 -128
241 -275 210z"/>
</g>
</svg>
