<?xml version="1.0" encoding="UTF-8" standalone="no"?>
<svg
   version="1.0"
   width="128"
   height="128"
   viewBox="0 0 128 128"
   preserveAspectRatio="xMidYMid meet"
   id="svg2"
   sodipodi:docname="logo128.svg"
   inkscape:version="1.4.3 (0d15f75, 2025-12-25)"
   xmlns:inkscape="http://www.inkscape.org/namespaces/inkscape"
   xmlns:sodipodi="http://sodipodi.sourceforge.net/DTD/sodipodi-0.dtd"
   xmlns="http://www.w3.org/2000/svg"
   xmlns:svg="http://www.w3.org/2000/svg">
  <defs
     id="defs2" />
  <sodipodi:namedview
     id="namedview2"
     pagecolor="#ffffff"
     bordercolor="#000000"
     borderopacity="0.25"
     inkscape:showpageshadow="2"
     inkscape:pageopacity="0.0"
     inkscape:pagecheckerboard="0"
     inkscape:deskcolor="#d1d1d1"
     inkscape:zoom="8.8828125"
     inkscape:cx="63.943712"
     inkscape:cy="64"
     inkscape:window-width="2560"
     inkscape:window-height="1351"
     inkscape:window-x="-9"
     inkscape:window-y="-9"
     inkscape:window-maximized="1"
     inkscape:current-layer="svg2" />
  <g
     transform="matrix(0.08345023,0,0,-0.08345023,10.591856,117.40814)"
     stroke="none"
     id="g2">
    <path
       d="m 150,1211 c -19,-10 -48,-35 -65,-55 L 55,1118 V 640 162 l 30,-38 c 63,-76 44,-74 555,-74 511,0 492,-2 555,74 l 30,38 v 478 478 l -30,38 c -63,76 -44,74 -555,74 -424,0 -458,-1 -490,-19 z M 672,992 C 778,945 844,851 844,745 843,642 787,565 675,514 624,490 603,486 530,487 c -47,1 -105,7 -130,15 l -45,15 1,-49 c 2,-35 7,-53 20,-63 28,-20 13,-27 -62,-27 -69,-1 -95,14 -60,34 14,8 16,37 16,235 v 227 l -35,-34 c -23,-22 -33,-40 -30,-51 3,-10 0,-21 -6,-25 -14,-8 -59,42 -59,66 0,39 169,144 280,175 72,20 192,14 252,-13 z M 990,448 V 276 l 55,54 55,54 25,-24 24,-25 -95,-89 -95,-89 -88,84 c -49,46 -89,89 -90,95 0,6 8,19 19,29 20,18 22,18 73,-33 l 52,-51 -3,169 -3,170 h 36 35 z"
       id="path1" />
    <path
       d="m 465,960 c -23,-4 -56,-14 -73,-22 l -33,-13 -2,-177 -2,-178 30,-11 c 17,-6 65,-13 107,-16 69,-5 83,-3 130,20 77,38 118,102 118,187 0,144 -128,241 -275,210 z"
       id="path2" />
  </g>
</svg>
