<?xml version="1.0" encoding="UTF-8" standalone="no"?>
<svg
   t="1779616976644"
   class="icon"
   viewBox="0 0 1024 1024"
   version="1.1"
   p-id="46473"
   width="128"
   height="128"
   id="svg1"
   sodipodi:docname="magic-fill.svg"
   inkscape:version="1.4.3 (0d15f75, 2025-12-25)"
   xmlns:inkscape="http://www.inkscape.org/namespaces/inkscape"
   xmlns:sodipodi="http://sodipodi.sourceforge.net/DTD/sodipodi-0.dtd"
   xmlns="http://www.w3.org/2000/svg"
   xmlns:svg="http://www.w3.org/2000/svg">
  <defs
     id="defs1" />
  <sodipodi:namedview
     id="namedview1"
     pagecolor="#ffffff"
     bordercolor="#000000"
     borderopacity="0.25"
     inkscape:showpageshadow="2"
     inkscape:pageopacity="0.0"
     inkscape:pagecheckerboard="0"
     inkscape:deskcolor="#d1d1d1"
     inkscape:zoom="8.8828125"
     inkscape:cx="63.943712"
     inkscape:cy="64"
     inkscape:window-width="2560"
     inkscape:window-height="1351"
     inkscape:window-x="-9"
     inkscape:window-y="-9"
     inkscape:window-maximized="1"
     inkscape:current-layer="svg1" />
  <path
     d="m 634.37124,649.39595 -89.01547,187.04109 a 24.134334,24.134334 0 0 1 -39.29874,6.23471 L 363.58401,692.27462 a 24.134334,24.134334 0 0 0 -14.35992,-7.32075 L 143.80068,658.08432 a 24.134334,24.134334 0 0 1 -18.06053,-35.43725 l 99.03123,-181.97288 a 24.134334,24.134334 0 0 0 2.49387,-15.92867 L 189.33413,221.09197 a 24.134334,24.134334 0 0 1 28.15671,-28.15673 l 203.65357,37.93114 a 24.134334,24.134334 0 0 0 15.92866,-2.49388 l 181.97287,-99.03123 a 24.134334,24.134334 0 0 1 35.43724,18.10075 l 26.86957,205.38319 a 24.134334,24.134334 0 0 0 7.32074,14.35993 l 150.39713,142.47302 a 24.134334,24.134334 0 0 1 -6.2347,39.29873 l -187.04109,89.01547 a 24.134334,24.134334 0 0 0 -11.42359,11.42359 z m 32.05844,77.51143 56.87658,-56.87657 170.66997,170.62973 -56.9168,56.91681 z"
     p-id="46474"
     id="path1"
     style="stroke-width:0.942748" />
</svg>
