<?xml version="1.0" standalone="no"?><!DOCTYPE svg PUBLIC "-//W3C//DTD SVG 1.1//EN" "http://www.w3.org/Graphics/SVG/1.1/DTD/svg11.dtd"><svg t="1779616976644" class="icon" viewBox="0 0 1024 1024" version="1.1" xmlns="http://www.w3.org/2000/svg" p-id="46473" xmlns:xlink="http://www.w3.org/1999/xlink" width="128" height="128"><path d="M649.557333 661.674667l-94.421333 198.4a25.6 25.6 0 0 1-41.685333 6.613333l-151.125334-159.530667a25.6 25.6 0 0 0-15.232-7.765333l-217.898666-28.501333a25.6 25.6 0 0 1-19.157334-37.589334l105.045334-193.024a25.6 25.6 0 0 0 2.645333-16.896L177.493333 207.36a25.6 25.6 0 0 1 29.866667-29.866667l216.021333 40.234667a25.6 25.6 0 0 0 16.896-2.645333l193.024-105.045334a25.6 25.6 0 0 1 37.589334 19.2l28.501333 217.856a25.6 25.6 0 0 0 7.765333 15.232l159.530667 151.125334a25.6 25.6 0 0 1-6.613333 41.685333l-198.4 94.421333a25.6 25.6 0 0 0-12.117334 12.117334z m34.005334 82.218666l60.330666-60.330666 181.034667 180.992-60.373333 60.373333-180.992-181.034667z" p-id="46474"></path></svg>