<?xml version="1.0" encoding="UTF-8" standalone="no"?>
<svg
   t="1779616971526"
   class="icon"
   viewBox="0 0 1024 1024"
   version="1.1"
   p-id="46186"
   width="128"
   height="128"
   id="svg1"
   sodipodi:docname="magic-line.svg"
   inkscape:version="1.4.3 (0d15f75, 2025-12-25)"
   xmlns:inkscape="http://www.inkscape.org/namespaces/inkscape"
   xmlns:sodipodi="http://sodipodi.sourceforge.net/DTD/sodipodi-0.dtd"
   xmlns="http://www.w3.org/2000/svg"
   xmlns:svg="http://www.w3.org/2000/svg">
  <defs
     id="defs1" />
  <sodipodi:namedview
     id="namedview1"
     pagecolor="#ffffff"
     bordercolor="#000000"
     borderopacity="0.25"
     inkscape:showpageshadow="2"
     inkscape:pageopacity="0.0"
     inkscape:pagecheckerboard="0"
     inkscape:deskcolor="#d1d1d1"
     inkscape:zoom="8.88"
     inkscape:cx="36.824324"
     inkscape:cy="63.795045"
     inkscape:window-width="2560"
     inkscape:window-height="1351"
     inkscape:window-x="-9"
     inkscape:window-y="-9"
     inkscape:window-maximized="1"
     inkscape:current-layer="svg1" />
  <path
     id="path1"
     style="stroke-width:0.95154"
     d="m 633.52539,130.93164 c -2.74371,0.28667 -5.31002,1.38678 -7.67289,2.76574 -60.76361,33.06421 -121.52077,66.14102 -182.2884,99.19736 -2.34648,1.19314 -4.80035,2.1966 -7.3701,2.79036 -2.28763,0.60789 -4.6533,0.87167 -7.01556,0.95739 -3.05183,0.0886 -6.08324,-0.37581 -9.06911,-0.97257 -67.70775,-12.60776 -135.41345,-25.22817 -203.12247,-37.82802 -4.12855,-0.77041 -8.53044,0.0792 -12.04082,2.39539 -4.39197,2.84714 -7.2408,7.90424 -7.36836,13.14042 -0.0824,3.15595 0.83702,6.22051 1.32539,9.31577 12.4173,66.6869 24.8474,133.37176 37.2567,200.05993 0.42391,2.62834 0.62451,5.3016 0.39502,7.95908 -0.12857,2.38775 -0.62431,4.73888 -1.27117,7.03669 -0.84186,2.77921 -2.10425,5.40564 -3.53158,7.92935 -32.96942,60.58911 -65.95054,121.17221 -98.91264,181.76507 -1.99593,3.68289 -2.53442,8.11949 -1.41853,12.16215 1.35268,5.03501 5.25471,9.30134 10.17737,11.0398 3.01885,1.08035 6.26845,1.15167 9.41059,1.65156 67.22235,8.79495 134.44645,17.57899 201.66771,26.38076 2.66331,0.41556 5.29465,1.07717 7.77904,2.13449 2.37278,0.93593 4.59001,2.2366 6.67649,3.69565 2.24193,1.63116 4.21886,3.58028 6.09421,5.61487 47.39061,50.02255 94.77178,100.05451 142.1683,150.07119 2.89014,3.04117 6.94686,4.92945 11.14282,5.12155 5.21398,0.26758 10.47965,-2.13463 13.65763,-6.28376 1.92799,-2.50322 2.98531,-5.52637 4.41071,-8.31933 29.15147,-61.24454 58.29009,-122.49559 87.4496,-183.73606 1.04564,-2.04929 2.22706,-4.03913 3.67626,-5.82949 1.65782,-2.13841 3.61219,-4.03015 5.74697,-5.68875 2.42392,-1.87327 5.15442,-3.2917 7.93071,-4.56771 62.18129,-29.59659 124.36837,-59.18169 186.54603,-88.78545 3.79309,-1.80576 6.85078,-5.08509 8.3272,-9.02387 1.8454,-4.83866 1.21787,-10.5392 -1.69716,-14.82838 -1.7531,-2.62957 -4.31045,-4.56399 -6.52386,-6.78179 -49.27133,-46.68054 -98.5539,-93.34968 -147.8182,-140.03735 -1.86041,-1.85642 -3.57295,-3.87428 -4.93625,-6.12702 -1.32223,-2.03226 -2.31461,-4.25814 -3.15217,-6.52865 -0.94551,-2.74215 -1.46029,-5.60622 -1.79058,-8.48331 -8.94784,-68.36779 -17.88337,-136.73748 -26.83892,-205.10408 -0.58665,-4.62893 -3.20499,-8.9662 -7.10245,-11.55078 -3.1655,-2.16125 -7.09152,-3.10061 -10.89753,-2.7082 z m -35.89453,104.7207 c 5.47251,41.82081 10.92097,83.64504 16.40852,125.46371 0.57937,4.18281 1.40534,8.32813 2.48943,12.40957 1.48799,5.44486 3.40355,10.77562 5.80324,15.88675 1.98714,4.31327 4.34193,8.44979 6.92652,12.43206 3.09718,4.65075 6.54585,9.07225 10.38579,13.13443 4.09405,4.32292 8.54678,8.28717 12.83505,12.41417 30.41907,28.80118 60.83722,57.60333 91.25692,86.40385 -41.62788,19.81732 -83.26961,39.60622 -124.89229,59.43406 -3.80334,1.84321 -7.48215,3.93153 -11.03373,6.22174 -4.59896,3.04476 -8.98275,6.42322 -13.01161,10.19371 -3.7752,3.4859 -7.25288,7.2926 -10.43037,11.32956 -3.33512,4.27257 -6.32208,8.8145 -8.91257,13.57578 -2.89747,5.43338 -5.39175,11.07047 -8.07982,16.60883 -17.85973,37.52328 -35.71909,75.04674 -53.57906,112.56991 -31.68409,-33.43623 -63.34914,-66.89085 -95.04327,-100.31734 -2.92583,-3.04433 -6.03131,-5.91119 -9.30774,-8.5748 -4.38607,-3.51154 -9.04578,-6.68683 -13.96866,-9.39912 -4.43655,-2.4716 -9.07663,-4.5763 -13.84153,-6.33114 -5.11215,-1.86149 -10.37499,-3.30229 -15.72433,-4.29488 -6.23257,-1.09608 -12.53336,-1.74745 -18.80046,-2.61435 -41.00833,-5.36048 -82.01658,-10.72157 -123.02495,-16.08165 22.02719,-40.47994 44.07608,-80.94839 66.0895,-121.43564 2.54707,-4.77589 4.74723,-9.7398 6.47989,-14.86945 1.52834,-4.44445 2.69665,-9.00749 3.5798,-13.62276 1.01428,-5.60406 1.59129,-11.29004 1.62838,-16.98705 0.0535,-4.70432 -0.27513,-9.40738 -0.88309,-14.07153 -1.05844,-6.91208 -2.48875,-13.76092 -3.72804,-20.64207 -7.43095,-39.84392 -14.86365,-79.68751 -22.2934,-119.53166 45.29323,8.44001 90.58162,16.90751 135.87722,25.33385 4.18511,0.7496 8.41317,1.23237 12.65814,1.46664 5.5069,0.24486 11.036,0.0875 16.50848,-0.59363 5.12525,-0.59649 10.19581,-1.64351 15.15934,-3.04834 5.19608,-1.49078 10.26799,-3.4064 15.14896,-5.73004 5.47499,-2.65819 10.74228,-5.72061 16.10897,-8.58796 36.56634,-19.90389 73.13275,-39.80764 109.69905,-59.71161 0.50391,3.85547 1.00781,7.71093 1.51172,11.5664 z m 85.1875,493.25977 c 53.63672,53.64909 107.27344,107.29818 160.91016,160.94727 15.3776,-15.37696 30.7552,-30.75391 46.13281,-46.13086 -53.64909,-53.63737 -107.29818,-107.27474 -160.94727,-160.91211 -15.36523,15.36523 -30.73047,30.73046 -46.0957,46.0957 z" />
</svg>
