<?xml version="1.0" encoding="UTF-8" standalone="no"?>
<svg
   t="1779708459132"
   class="icon"
   viewBox="0 0 1024 1024"
   version="1.1"
   p-id="117384"
   width="128"
   height="128"
   id="svg2"
   sodipodi:docname="new-2.svg"
   inkscape:version="1.4.3 (0d15f75, 2025-12-25)"
   xmlns:inkscape="http://www.inkscape.org/namespaces/inkscape"
   xmlns:sodipodi="http://sodipodi.sourceforge.net/DTD/sodipodi-0.dtd"
   xmlns="http://www.w3.org/2000/svg"
   xmlns:svg="http://www.w3.org/2000/svg">
  <defs
     id="defs2" />
  <sodipodi:namedview
     id="namedview2"
     pagecolor="#ffffff"
     bordercolor="#000000"
     borderopacity="0.25"
     inkscape:showpageshadow="2"
     inkscape:pageopacity="0.0"
     inkscape:pagecheckerboard="0"
     inkscape:deskcolor="#d1d1d1"
     inkscape:zoom="8.8828125"
     inkscape:cx="63.943712"
     inkscape:cy="64"
     inkscape:window-width="2560"
     inkscape:window-height="1351"
     inkscape:window-x="-9"
     inkscape:window-y="-9"
     inkscape:window-maximized="1"
     inkscape:current-layer="svg2" />
  <path
     d="m 543.67145,385.45374 56.46821,194.08454 h 45.11357 l 34.95539,-117.69879 h 1.5249 l 34.95539,117.69879 h 45.20741 L 818.29415,385.45374 H 766.5414 l -29.37191,127.45815 h -1.61874 L 702.09679,385.45374 h -42.25144 l -33.45396,127.15317 h -1.61874 L 595.49458,385.45374 H 543.64799 Z M 396.90573,579.53828 V 385.45374 h 135.31725 v 38.09904 h -88.39726 v 39.78815 h 81.47656 v 38.19287 h -81.47656 v 39.88199 h 88.39726 v 38.12249 z m -21.48936,0 V 385.45374 h -46.80269 v 111.8338 h -1.64219 L 250.6092,385.45374 h -40.35119 v 194.08454 h 46.89653 V 467.51681 h 1.21992 l 77.25376,112.02147 z"
     p-id="117385"
     fill="#111111"
     id="path1"
     style="stroke-width:0.962226" />
  <path
     d="m 152.78103,779.58165 h 133.41698 v 67.6117 c 0,24.1638 26.60364,38.94359 47.10767,26.11098 l 149.95629,-93.72268 h 387.98138 c 16.98504,0 30.77952,-13.79448 30.77952,-30.80297 V 215.08727 c 0,-16.98504 -13.79448,-30.77952 -30.80298,-30.77952 h -718.4154 c -17.0085,0 -30.80298,13.79448 -30.80298,30.80298 V 748.8256 c 0,16.98503 13.79448,30.77951 30.80298,30.77951 z M 342.64276,723.1369 H 178.4228 V 240.72904 H 845.60158 V 723.16036 H 467.07457 l -124.43181,77.74643 v -77.74643 z"
     p-id="117386"
     fill="#111111"
     id="path2"
     style="stroke-width:0.962226" />
</svg>
