<?xml version="1.0" standalone="no"?>
<!DOCTYPE svg PUBLIC "-//W3C//DTD SVG 1.1//EN" "http://www.w3.org/Graphics/SVG/1.1/DTD/svg11.dtd">
<svg t="1779708459132" class="icon" viewBox="0 0 1024 1024" version="1.1" xmlns="http://www.w3.org/2000/svg" p-id="117384" xmlns:xlink="http://www.w3.org/1999/xlink" width="128" height="128">
	<path d="M544.914286 379.733333l58.684952 201.703619h46.884572l36.327619-122.319238h1.584761l36.32762 122.319238h46.982095l58.611809-201.703619H776.533333l-30.524952 132.461715h-1.682286l-34.767238-132.461715h-43.910095l-34.767238 132.144762h-1.682286l-30.427428-132.144762h-53.881905zM392.387048 581.436952v-201.703619h140.629333v39.594667h-91.867429v41.350095h84.675048v39.692191h-84.675048v41.447619h91.867429v39.619047h-140.629333zM370.054095 581.436952v-201.703619h-48.64v116.224h-1.706666l-79.36-116.224h-41.935239v201.703619h48.737524v-116.419047h1.26781l80.286476 116.419047h41.350095z" p-id="117385" fill="#111111">
	</path>
	<path d="M138.678857 789.333333h138.654476v70.265905c0 25.112381 27.648 40.472381 48.956953 27.136l155.843047-97.401905h403.212191c17.65181 0 31.98781-14.336 31.987809-32.01219V202.678857c0-17.65181-14.336-31.98781-32.01219-31.987809H138.703238c-17.67619 0-32.01219 14.336-32.01219 32.01219v554.666667c0 17.65181 14.336 31.98781 32.01219 31.987809z m197.315048-58.660571h-170.666667V229.327238H858.697143V730.697143H465.310476l-129.316571 80.798476V730.697143z" p-id="117386" fill="#111111">
	</path>
</svg>
