<?xml version="1.0" encoding="UTF-8" standalone="no"?>
<svg
   class="icon"
   viewBox="0 0 1024 1024"
   version="1.1"
   width="128"
   height="128"
   id="svg2"
   sodipodi:docname="open.svg"
   inkscape:version="1.4.3 (0d15f75, 2025-12-25)"
   xmlns:inkscape="http://www.inkscape.org/namespaces/inkscape"
   xmlns:sodipodi="http://sodipodi.sourceforge.net/DTD/sodipodi-0.dtd"
   xmlns="http://www.w3.org/2000/svg"
   xmlns:svg="http://www.w3.org/2000/svg">
  <defs
     id="defs2" />
  <sodipodi:namedview
     id="namedview2"
     pagecolor="#ffffff"
     bordercolor="#000000"
     borderopacity="0.25"
     inkscape:showpageshadow="2"
     inkscape:pageopacity="0.0"
     inkscape:pagecheckerboard="0"
     inkscape:deskcolor="#d1d1d1"
     inkscape:zoom="8.8828125"
     inkscape:cx="63.943712"
     inkscape:cy="64"
     inkscape:window-width="2560"
     inkscape:window-height="1351"
     inkscape:window-x="-9"
     inkscape:window-y="-9"
     inkscape:window-maximized="1"
     inkscape:current-layer="svg2" />
  <path
     d="m 854.45999,157.0965 v 355.42737 c 0,7.55284 -3.05617,14.38798 -7.99883,19.33491 -4.94266,4.94694 -11.77268,8.00565 -19.31953,8.00565 -15.08516,0 -27.31835,-12.24344 -27.31835,-27.34056 V 250.53289 L 341.56547,709.16235 c -10.67137,10.67137 -27.96684,10.67137 -38.62966,0 v -0.009 c -10.67137,-10.67136 -10.67137,-27.98135 0,-38.66126 L 761.27051,211.77763 H 444.68384 c -15.08516,0 -27.31836,-12.24344 -27.31836,-27.34056 0,-15.09712 12.2332,-27.34057 27.31836,-27.34057 z"
     id="path1"
     style="stroke-width:0.854393" />
  <path
     d="M 779.06252,646.52073 V 792.70742 H 218.42599 V 231.61579 h 95.06916 c 14.07431,0 25.48344,-11.41869 25.48344,-25.50416 0,-14.08547 -11.40913,-25.50416 -25.48344,-25.50416 h -95.06916 c -28.14863,0 -50.96689,22.83739 -50.96689,51.00832 v 561.09163 c 0,28.17413 22.82384,51.00833 50.96689,51.00833 h 560.63653 c 28.14863,0 50.96688,-22.83739 50.96688,-51.00833 V 646.52073 c 0,-14.08547 -11.40912,-25.50415 -25.48344,-25.50415 -14.07351,0 -25.48344,11.41868 -25.48344,25.50415 z"
     id="path2"
     style="stroke-width:0.797005" />
</svg>
