<?xml version="1.0" encoding="UTF-8" standalone="no"?>
<svg
   t="1779626159130"
   class="icon"
   viewBox="0 0 1024 1024"
   version="1.1"
   p-id="37995"
   width="128"
   height="128"
   id="svg1"
   sodipodi:docname="pause.svg"
   inkscape:version="1.4.3 (0d15f75, 2025-12-25)"
   xmlns:inkscape="http://www.inkscape.org/namespaces/inkscape"
   xmlns:sodipodi="http://sodipodi.sourceforge.net/DTD/sodipodi-0.dtd"
   xmlns="http://www.w3.org/2000/svg"
   xmlns:svg="http://www.w3.org/2000/svg">
  <defs
     id="defs1" />
  <sodipodi:namedview
     id="namedview1"
     pagecolor="#ffffff"
     bordercolor="#000000"
     borderopacity="0.25"
     inkscape:showpageshadow="2"
     inkscape:pageopacity="0.0"
     inkscape:pagecheckerboard="0"
     inkscape:deskcolor="#d1d1d1"
     inkscape:zoom="8.8828125"
     inkscape:cx="63.943712"
     inkscape:cy="64"
     inkscape:window-width="2560"
     inkscape:window-height="1351"
     inkscape:window-x="-9"
     inkscape:window-y="-9"
     inkscape:window-maximized="1"
     inkscape:current-layer="svg1" />
  <path
     id="path1"
     style="stroke-width:0.859773"
     d="m 509.47656,111.95117 c -44.35846,0.2579 -88.68114,7.88244 -130.51689,22.65248 -45.61815,16.07072 -88.24167,40.55847 -125.15309,71.80797 -38.12953,32.22882 -70.19071,71.62299 -93.9245,115.55085 -21.88186,40.42776 -36.68267,84.67808 -43.47607,130.14538 -7.83292,52.20137 -5.35173,105.95367 7.45613,157.17087 9.31506,37.31583 24.09834,73.2561 43.70896,106.341 24.05484,40.61365 55.34721,76.91994 91.95445,106.71821 36.2776,29.56466 77.77418,52.71985 122.02543,67.96412 40.60831,14.00922 83.49601,21.3333 126.44637,21.73363 44.57544,0.45505 89.23672,-6.50823 131.49407,-20.72901 44.89447,-15.07444 87.04014,-38.26024 123.84984,-68.05223 37.27854,-30.12353 69.11224,-66.97066 93.45514,-108.25955 24.8825,-42.13531 41.91134,-88.89751 49.86161,-137.1849 8.44948,-51.04063 6.97433,-103.71546 -4.40261,-154.18796 -9.05404,-40.17797 -24.41192,-78.92407 -45.33236,-114.40004 -24.13265,-40.98431 -55.63491,-77.60619 -92.52588,-107.62337 -36.25983,-29.5338 -77.72865,-52.66648 -121.94814,-67.90067 -41.51864,-14.32367 -85.41995,-21.6576 -129.33489,-21.74982 -1.21252,-0.001 -2.42505,0.002 -3.63757,0.003 z m 2.50977,71.01758 c 5.98648,0.0141 11.97328,0.15599 17.95117,0.48242 0.38634,0.0192 1.19882,0.0675 1.74829,0.0979 0.56364,0.0302 0.98501,0.0631 1.65044,0.10365 15.1302,0.96391 30.19299,2.9766 45.04658,6.01332 0.3057,0.0608 1.11,0.22956 1.61351,0.33499 26.79839,5.6254 52.87656,14.64931 77.42946,26.77047 0.19326,0.10345 1.07193,0.53696 1.52989,0.76788 16.13762,8.061 31.60101,17.46727 46.19863,28.06416 0.18244,0.14051 0.96609,0.71042 1.38049,1.0166 18.54466,13.60508 35.6484,29.16791 50.96912,46.32129 0.15044,0.16485 0.79436,0.89809 1.13531,1.28238 0.44383,0.50223 0.88766,1.00445 1.33148,1.50668 0.12665,0.15609 0.78238,0.90772 1.11371,1.29419 12.22226,14.13112 23.23016,29.3108 32.88239,45.30737 0.16085,0.2622 0.61611,1.0303 0.88996,1.48665 5.51181,9.24597 10.56254,18.76554 15.14129,28.50749 0.12296,0.25738 0.50557,1.08853 0.7283,1.5664 15.71837,33.86872 25.5152,70.45961 28.91228,107.6399 0.0524,0.55156 0.0936,1.07529 0.15197,1.72747 1.33879,15.5164 1.58964,31.12581 0.75823,46.67756 -0.0192,0.38634 -0.0675,1.19882 -0.0979,1.74829 -0.0302,0.56364 -0.0631,0.98501 -0.10365,1.65044 -0.36638,5.76168 -0.88538,11.51353 -1.55628,17.24775 -0.0322,0.29025 -0.14384,1.19165 -0.20656,1.71665 -1.06024,8.74727 -2.49042,17.44874 -4.25048,26.08218 -0.0608,0.3057 -0.22956,1.11 -0.33499,1.61351 -2.57155,12.22755 -5.84526,24.30606 -9.79001,36.16188 -0.0609,0.18857 -0.38509,1.1347 -0.54787,1.61641 -4.56805,13.51304 -10.2521,27.13643 -16.44021,39.66054 -9.27542,18.81491 -20.53584,36.95594 -33.0769,53.43847 -4.52636,5.97456 -9.58534,12.14124 -14.31571,17.56262 -8.98483,10.26443 -18.59481,19.98125 -28.7697,29.06767 -0.16485,0.15044 -0.89809,0.79436 -1.28238,1.13531 -0.50223,0.44383 -1.00445,0.88766 -1.50668,1.33148 -0.15606,0.12669 -0.9076,0.78251 -1.29403,1.1139 -14.13138,12.22193 -29.31042,23.23059 -45.30753,32.8822 -0.2622,0.16085 -1.0303,0.61611 -1.48665,0.88996 -9.24597,5.51181 -18.76554,10.56254 -28.50749,15.14129 -0.25738,0.12296 -1.08853,0.50557 -1.5664,0.7283 -33.86883,15.71823 -70.45926,25.51645 -107.6399,28.91228 -0.55156,0.0524 -1.07529,0.0936 -1.72747,0.15197 -15.51639,1.33872 -31.12583,1.59031 -46.67756,0.75823 -0.38634,-0.0192 -1.19882,-0.0675 -1.74829,-0.0979 -0.56364,-0.0302 -0.98501,-0.0631 -1.65044,-0.10365 -5.76167,-0.36704 -11.51374,-0.88291 -17.24775,-1.55628 -0.29025,-0.0322 -1.19165,-0.14384 -1.71665,-0.20656 -7.78411,-0.94375 -15.5321,-2.18051 -23.22867,-3.67821 -0.29234,-0.063 -1.17697,-0.23588 -1.69673,-0.34106 -0.6776,-0.13725 -1.10184,-0.2161 -1.68559,-0.33984 -12.54325,-2.57932 -25.3999,-6.06624 -37.25338,-10.01729 -14.1183,-4.71415 -27.91074,-10.39805 -41.26078,-16.97954 -0.19326,-0.10345 -1.07193,-0.53696 -1.52989,-0.76788 -25.02014,-12.49507 -48.41355,-28.22677 -69.47206,-46.62666 -0.16118,-0.13828 -0.89828,-0.79371 -1.28201,-1.13184 -10.73244,-9.47298 -20.83699,-19.65411 -30.25901,-30.43066 -0.13454,-0.16444 -0.78279,-0.90781 -1.11585,-1.29598 -12.22281,-14.13074 -23.23008,-29.31082 -32.8822,-45.30753 -0.16085,-0.2622 -0.61611,-1.0303 -0.88996,-1.48665 -5.51377,-9.24489 -10.56168,-18.76624 -15.14129,-28.50749 -0.12296,-0.25738 -0.50557,-1.08853 -0.7283,-1.5664 -15.70417,-33.83851 -25.49895,-70.39394 -28.90311,-107.54032 -0.057,-0.59161 -0.0923,-1.05017 -0.15237,-1.72352 -1.34622,-15.55051 -1.601,-31.19477 -0.767,-46.78109 0.0192,-0.38634 0.0675,-1.19882 0.0979,-1.74829 0.0302,-0.56364 0.0631,-0.98501 0.10365,-1.65044 0.36704,-5.76167 0.88291,-11.51374 1.55628,-17.24775 0.0322,-0.29025 0.14384,-1.19165 0.20656,-1.71665 0.94375,-7.78411 2.18051,-15.5321 3.67821,-23.22867 0.063,-0.29234 0.23588,-1.17697 0.34106,-1.69673 0.13725,-0.6776 0.2161,-1.10184 0.33984,-1.68559 2.60719,-12.59719 5.95318,-25.04094 10.01637,-37.24658 0.0609,-0.18857 0.38509,-1.1347 0.54787,-1.61641 13.97199,-41.22012 36.28926,-79.5743 65.14902,-112.14836 9.37041,-10.62256 19.80424,-20.9348 30.24989,-30.05059 14.50295,-12.65844 30.10975,-24.05142 46.59423,-33.99324 0.2622,-0.16085 1.0303,-0.61611 1.48665,-0.88996 9.24489,-5.51377 18.76624,-10.56168 28.50749,-15.14129 0.25738,-0.12296 1.08853,-0.50557 1.5664,-0.7283 33.83844,-15.70452 70.39421,-25.49769 107.54032,-28.90311 0.59161,-0.057 1.05017,-0.0923 1.72352,-0.15237 9.58709,-0.82701 19.20712,-1.24576 28.82992,-1.24942 z m -90.03321,149.08398 c -10.64577,0.117 -21.0771,5.38515 -27.51962,13.85686 -5.02555,6.4879 -7.63018,14.75498 -7.36319,22.94783 0.004,96.17208 -0.009,192.3444 0.0132,288.51634 0.21009,10.61877 5.5379,20.98153 14.02968,27.35621 8.10331,6.21389 18.96575,8.63081 28.93965,6.43637 9.92845,-2.09949 18.79936,-8.68629 23.64568,-17.60745 3.17676,-5.71934 4.63132,-12.32467 4.39721,-18.84873 -0.002,-96.00178 0.0105,-192.00384 -0.0108,-288.00543 -0.18708,-10.82896 -5.70521,-21.40548 -14.47628,-27.75911 -6.20346,-4.58865 -13.94195,-7.04565 -21.65554,-6.89289 z m 178.83204,0 c -10.53515,0.11657 -20.86199,5.27504 -27.3169,13.59689 -5.15803,6.52927 -7.83868,14.91335 -7.56397,23.21952 0.002,96.16818 -0.0111,192.33659 0.0112,288.50462 0.21054,10.47256 5.38981,20.7016 13.68709,27.09125 8.03303,6.32297 18.88111,8.86363 28.88958,6.78499 9.813,-1.96181 18.64486,-8.29337 23.63579,-16.9703 3.41962,-5.85334 5.03717,-12.69107 4.80171,-19.45392 -0.004,-96.06648 0.009,-192.1332 -0.0132,-288.19954 -0.21486,-10.8015 -5.72387,-21.34378 -14.47582,-27.68062 -6.20261,-4.58943 -13.94253,-7.04526 -21.65553,-6.89289 z" />
</svg>
