<?xml version="1.0" encoding="UTF-8" standalone="no"?>
<svg
   t="1779626159130"
   class="icon"
   viewBox="0 0 1024 1024"
   version="1.1"
   p-id="37995"
   width="128"
   height="128"
   id="svg1"
   sodipodi:docname="pause.svg"
   inkscape:version="1.4.3 (0d15f75, 2025-12-25)"
   xmlns:inkscape="http://www.inkscape.org/namespaces/inkscape"
   xmlns:sodipodi="http://sodipodi.sourceforge.net/DTD/sodipodi-0.dtd"
   xmlns="http://www.w3.org/2000/svg"
   xmlns:svg="http://www.w3.org/2000/svg">
  <defs
     id="defs1" />
  <sodipodi:namedview
     id="namedview1"
     pagecolor="#ffffff"
     bordercolor="#000000"
     borderopacity="0.25"
     inkscape:showpageshadow="2"
     inkscape:pageopacity="0.0"
     inkscape:pagecheckerboard="0"
     inkscape:deskcolor="#d1d1d1"
     inkscape:zoom="8.8828125"
     inkscape:cx="65.632366"
     inkscape:cy="64"
     inkscape:window-width="2560"
     inkscape:window-height="1351"
     inkscape:window-x="-9"
     inkscape:window-y="-9"
     inkscape:window-maximized="1"
     inkscape:current-layer="svg1"
     showguides="true">
    <sodipodi:guide
       position="565.58663,312.51363"
       orientation="1,0"
       id="guide1"
       inkscape:locked="false" />
  </sodipodi:namedview>
  <path
     id="path1-8"
     style="display:inline;stroke-width:0.859773"
     d="m 600.21875,339.15039 c -9.4491,0.0634 -18.64797,5.4411 -23.33953,13.64482 -2.75389,4.70756 -4.0016,10.22661 -3.74641,15.66182 5.5e-4,96.03338 -0.01,192.0671 0.0189,288.10026 0.26981,9.28965 5.65347,18.2328 13.73931,22.81736 7.22524,4.18706 16.38745,4.8775 24.11221,1.65806 7.35855,-2.98676 13.32408,-9.26745 15.75457,-16.84761 1.21216,-3.58967 1.54158,-7.40827 1.40036,-11.17651 -0.002,-95.7537 0.007,-191.50769 -0.0183,-287.26122 -0.22609,-9.1846 -5.46046,-18.0543 -13.38283,-22.7055 -4.36613,-2.59938 -9.45592,-3.97146 -14.53831,-3.89148 z" />
  <path
     id="path1"
     style="stroke-width:0.859773"
     d="m 509.5625,119.95117 c -20.40803,0.11928 -40.80456,1.83068 -60.94922,5.09961 -0.22023,0.0343 -1.18247,0.19831 -1.68917,0.28267 -36.54807,6.08595 -72.21269,17.43614 -105.5523,33.59959 -36.19831,17.52335 -69.66642,40.66056 -98.85897,68.3216 -14.62389,13.81554 -28.46518,29.16544 -40.59711,44.82082 -15.69825,20.25467 -29.40645,42.04707 -40.863,64.96946 -0.10047,0.21526 -0.52992,1.07593 -0.75724,1.54006 -2.24932,4.53052 -4.38665,9.1158 -6.45955,13.72947 -0.0938,0.22622 -0.48269,1.09812 -0.69021,1.57316 -15.87058,35.93979 -26.24797,74.29632 -30.66311,113.33572 -0.29766,2.58519 -0.55766,5.17459 -0.80684,7.76495 -0.0346,0.35137 -0.10849,1.19581 -0.15814,1.73605 -0.597,6.66746 -1.01896,13.3504 -1.28131,20.03934 -0.008,0.35305 -0.0411,1.20002 -0.0586,1.74228 -0.0711,1.98996 -0.12978,4.22133 -0.16647,6.32713 -0.0101,0.64279 -0.0274,1.38383 -0.0302,1.87901 -0.0645,4.76645 -0.0377,9.53393 0.0659,14.29963 0.0128,0.37881 0.0313,1.20032 0.0462,1.74862 0.15761,5.88356 0.45068,11.76336 0.86782,17.63419 0.0333,0.40296 0.0896,1.19733 0.13164,1.75011 0.0453,0.63163 0.0761,1.01751 0.13355,1.71149 0.0743,0.93884 0.13315,1.59981 0.21401,2.52098 0.0852,0.98534 0.14817,1.71951 0.24336,2.71999 0.0629,0.6961 0.0984,1.04373 0.16557,1.7087 0.0769,0.75654 0.14457,1.4719 0.21318,2.11917 0.0645,0.6011 0.15443,1.48186 0.20337,1.91292 0.2662,2.42545 0.5497,4.84898 0.85743,7.26953 0.0616,0.44142 0.16462,1.25652 0.24209,1.84104 6.01478,45.70575 20.26508,90.30476 41.82433,131.05069 25.70767,48.66153 61.80191,91.78589 105.12704,125.71799 39.09553,30.66393 84.06203,53.84121 131.77848,67.72083 2.82633,0.82702 5.66532,1.60969 8.50853,2.37648 0.25789,0.0627 1.161,0.30309 1.66715,0.43416 19.80333,5.19764 40.01929,8.80812 60.38949,10.85686 0.24212,0.0184 1.19415,0.11281 1.70989,0.16052 3.52688,0.34386 6.63496,0.58552 10.08698,0.83753 0.24409,0.019 1.19699,0.0777 1.71424,0.11198 51.76113,3.3836 104.21002,-3.44788 153.26927,-20.34601 46.86578,-16.0835 90.58658,-41.225 128.12569,-73.55925 15.88725,-13.66038 30.6635,-28.60689 44.18768,-44.60907 0.13525,-0.17087 0.76757,-0.92092 1.09481,-1.31549 26.27878,-31.37543 47.6014,-66.89464 62.89933,-104.85638 0.074,-0.20194 0.44109,-1.11468 0.62832,-1.59123 7.00128,-17.56602 12.70866,-35.64585 17.08652,-54.04159 0.0487,-0.19779 0.27069,-1.16746 0.38642,-1.66378 12.03098,-51.71645 13.42368,-105.8701 4.15637,-158.14839 -8.73588,-49.50924 -27.23539,-97.26097 -54.0588,-139.77708 -25.72091,-40.84409 -59.03488,-76.8828 -97.72861,-105.73756 -3.60064,-2.68247 -7.24573,-5.30471 -10.93311,-7.86655 -0.20084,-0.14242 -0.98878,-0.67912 -1.41585,-0.97347 -37.60459,-25.86562 -79.75602,-45.127 -123.97593,-56.4571 -32.72806,-8.40774 -66.54243,-12.53669 -100.33088,-12.32138 z m 2.43164,55.01758 c 31.94669,0.001 63.90332,4.48326 94.57136,13.4512 36.8754,10.74131 71.84507,27.93035 102.94386,50.46231 23.05938,16.71438 44.00192,36.34358 62.16932,58.2755 27.50577,33.17736 48.5929,71.67073 61.61078,112.76018 9.86074,31.03957 15.13414,63.5205 15.68424,96.08152 0.66493,37.01218 -4.73503,74.14026 -16.09475,109.37924 -13.54496,42.11491 -35.55968,81.46766 -64.27072,115.11908 -29.1376,34.20812 -65.14582,62.55117 -105.30121,82.73248 -38.62829,19.48543 -81.07864,31.32652 -124.20677,34.72111 -41.62938,3.31559 -83.88541,-1.02482 -123.89649,-13.03079 C 372.1755,822.06819 331.82428,800.40229 297.24888,771.75638 262.37747,742.9104 233.35534,707.0102 212.55856,666.8097 196.02458,634.95328 184.69903,600.41197 179.10835,564.96049 c -7.78283,-49.41553 -4.58608,-100.56954 9.61405,-148.5535 13.77195,-46.74939 37.94721,-90.37609 70.16379,-126.93466 29.40374,-33.44894 65.47145,-61.02832 105.51194,-80.53839 40.64605,-19.88422 85.37359,-31.33399 130.56466,-33.53145 5.6723,-0.28918 11.3519,-0.42172 17.03135,-0.43374 z m -89.83789,165.08203 c -9.43578,0.0634 -18.62024,5.42713 -23.31909,13.60999 -2.76822,4.715 -4.0192,10.24859 -3.76685,15.69665 0.002,96.02233 -0.007,192.04493 0.0201,288.06709 0.25429,9.27769 5.61694,18.21695 13.67911,22.81577 7.4001,4.31965 16.85736,4.94716 24.70822,1.46319 7.26786,-3.11993 13.08018,-9.49102 15.3655,-17.0807 1.10208,-3.4541 1.38256,-7.10539 1.25246,-10.71183 4e-5,-95.76218 0.009,-191.52462 -0.0181,-287.28662 -0.23499,-9.33192 -5.64876,-18.33013 -13.78133,-22.91403 -4.27675,-2.44994 -9.21018,-3.73659 -14.14006,-3.65951 z m 178.78711,0.002 c -0.31524,0.003 0.18829,-0.005 0,0 z m 1.20117,0.002 c -0.2358,-9.6e-4 -0.22496,-0.008 0,0 z m 0.54883,0.0195 c -0.23447,-0.008 -0.22803,-0.0128 0,0 z m 0.55078,0.0312 c -0.18023,-0.008 -0.43844,-0.0308 0,0 z m -3.89453,0.01 c -0.3007,0.0201 0.42653,-0.0327 0,0 z m -0.70117,0.0605 c -0.39765,0.0367 0.3372,-0.0362 0,0 z m 5.79687,0.0352 c -0.36685,-0.031 -0.4883,-0.0553 0,0 z m 1.10157,0.14648 c -0.33873,-0.0419 -0.48798,-0.0775 0,0 z m -8.43165,0.0156 c -0.37815,0.0562 0.41066,-0.0678 0,0 z m -0.71679,0.12304 c -0.39575,0.072 0.35539,-0.0688 0,0 z m 10.24804,0.0527 c -0.36029,-0.0589 -0.42291,-0.0832 0,0 z m 1.09961,0.23828 c -0.34138,-0.0717 -0.45162,-0.10913 0,0 z m 1.0918,0.28125 c -0.37793,-0.0972 -0.44099,-0.12364 0,0 z m 1.07227,0.32422 c -0.35089,-0.10365 -0.45096,-0.14796 0,0 z m -17.23438,0.082 c -0.29499,0.0967 0.39402,-0.13615 0,0 z m 18.29102,0.28516 c -0.34678,-0.12168 -0.41652,-0.15413 0,0 z m 1.05273,0.41211 c -0.35426,-0.1378 -0.44705,-0.18635 0,0 z m 1.01563,0.44921 c -0.30809,-0.13486 -0.37998,-0.17765 0,0 z m -23.20313,-0.006 c -0.26666,0.12141 0.36096,-0.17064 0,0 z m -0.67578,0.32422 c -0.35015,0.16969 0.39003,-0.19893 0,0 z m 24.90039,0.17969 c -0.30928,-0.15097 -0.45947,-0.23751 0,0 z m 0.97266,0.52734 c -0.26251,-0.13919 -0.33669,-0.19064 0,0 z m -28.52344,0.79883 c -0.3212,0.2019 0.30565,-0.20091 0,0 z m 30.3457,0.33985 c -0.2074,-0.13955 -0.16616,-0.11569 0,0 z m -30.98437,0.084 c -0.2986,0.20015 0.28078,-0.19479 0,0 z m -1.23242,0.88867 c -0.3191,0.23941 0.26135,-0.20454 0,0 z m 33.82031,0.19727 c -0.1849,-0.1375 -0.21738,-0.17191 0,0 z m 0.60937,0.48828 c -0.20476,-0.16134 -0.30829,-0.25707 0,0 z m -35.66601,0.32226 c -0.1378,0.11202 0.302,-0.26454 0,0 z m 36.24218,0.17188 c -0.1856,-0.15788 -0.252,-0.22383 0,0 z m -36.79296,0.3125 c -0.26028,0.23106 0.32933,-0.30425 0,0 z m -1.05664,1.01758 c -0.29076,0.28974 0.21077,-0.21906 0,0 z m 39.52929,0.28515 c -0.16294,-0.16046 -0.25381,-0.26307 0,0 z m -40.06445,0.27539 c -0.258,0.27393 0.24087,-0.26327 0,0 z m 40.59375,0.29883 c -0.1847,-0.19908 -0.24508,-0.27551 0,0 z m -41.09766,0.25977 c -0.25881,0.29153 0.23054,-0.26635 0,0 z m 42.58399,1.54687 c -0.14309,-0.1834 -0.16661,-0.22322 0,0 z m 0.45898,0.62696 c -0.14282,-0.19205 -0.17963,-0.25612 0,0 z m 0.8711,1.30273 c -0.11974,-0.18564 -0.17079,-0.27627 0,0 z m -47.24219,1.22656 c -0.18124,0.3191 0.18576,-0.33647 0,0 z m -0.83789,1.62891 c -0.10044,0.20633 0.16313,-0.35007 0,0 z m 49.93945,0.61328 c -0.097,-0.20695 -0.12568,-0.28511 0,0 z m -50.17383,-0.10547 c -0.13878,0.30385 0.10756,-0.24472 0,0 z m 50.49219,0.83789 c -0.0998,-0.22312 -0.10655,-0.26499 0,0 z m -51.19727,0.88477 c -0.0954,0.24496 0.13559,-0.37346 0,0 z m 51.76172,0.58789 c -0.0811,-0.21225 -0.13256,-0.36746 0,0 z m -51.9414,-0.0898 c -0.11119,0.31013 0.0507,-0.15309 0,0 z m -0.38477,1.18164 c -0.1039,0.33548 0.0868,-0.29818 0,0 z m 52.80078,0.39648 c -0.0718,-0.23079 -0.0771,-0.27208 0,0 z m 0.20313,0.74609 c -0.0619,-0.22402 -0.0712,-0.27757 0,0 z m 0.18359,0.75977 c -0.0577,-0.22815 -0.0627,-0.28233 0,0 z m -53.78711,0.44336 c -0.075,0.34627 0.0588,-0.28864 0,0 z m -0.11328,0.58008 c -0.0617,0.31716 0.0291,-0.16979 0,0 z m 54.20313,0.51172 c -0.0407,-0.20381 -0.0671,-0.38887 0,0 z m -54.31055,0.0996 c -0.057,0.3261 0.0299,-0.19853 0,0 z m 54.42578,0.66796 c -0.0374,-0.23685 -0.0383,-0.28411 0,0 z m 0.0937,0.76954 c -0.03,-0.24583 -0.0411,-0.39409 0,0 z m 0.0684,0.75781 c -0.0209,-0.23571 -0.0261,-0.36523 0,0 z m -54.88281,0.24023 c -0.0258,0.29228 0.0245,-0.35622 0,0 z m 54.95312,1.30274 c -0.009,-0.27984 -0.002,-0.40078 0,0 z m -55.01953,-0.0898 c -0.0121,0.29606 0.01,-0.34474 0,0 z m -0.0137,0.5918 c -0.005,0.31169 0.002,-0.33438 0,0 z m 0,0.58984 c 0.002,0.33101 -0.005,-0.3057 0,0 z m 55.0664,288.23243 c -0.007,-0.20992 -9.4e-4,-0.45602 0,0 z m -0.0215,1.01171 c 0.005,-0.3078 0.0167,-0.38981 0,0 z m -55.01562,-0.0215 c 0.005,0.49165 -0.0101,-0.38257 0,0 z m 0.0254,0.76758 c 0.0138,0.31024 -0.0255,-0.44755 0,0 z m 54.93554,0.23828 c 0.0154,-0.26602 0.0312,-0.40296 0,0 z m -54.88867,0.45312 c 0.0254,0.36939 -0.025,-0.27225 0,0 z m 54.80078,0.53907 c 0.0255,-0.30566 0.0419,-0.37981 0,0 z m -54.73242,0.22265 c 0.0426,0.41418 -0.0428,-0.38262 0,0 z m 54.60938,0.76953 c 0.035,-0.3055 0.0556,-0.37763 0,0 z m -54.4043,0.71875 c 0.0603,0.38227 -0.0566,-0.32849 0,0 z m 54.24805,0.26368 c 0.0449,-0.29958 0.0692,-0.37783 0,0 z m -54.10938,0.5 c 0.064,0.34906 -0.0875,-0.42699 0,0 z m 53.91992,0.47461 c 0.0559,-0.28717 0.0663,-0.31963 0,0 z m -0.22461,0.96875 c 0.0728,-0.32056 0.0928,-0.37006 0,0 z m -53.1582,0.78711 c 0.0598,0.22085 -0.11881,-0.40421 0,0 z m 52.90234,0.16601 c 0.0772,-0.29824 0.10887,-0.37053 0,0 z m -52.71093,0.47266 c 0.2568,0.8239 -0.0965,-0.29791 0,0 z m 52.42187,0.47265 c 0.0997,-0.32447 0.11865,-0.36474 0,0 z m -52.16406,0.3086 c 0.11598,0.34904 -0.13707,-0.38669 0,0 z m 51.84375,0.61523 c 0.0922,-0.2694 0.14343,-0.38336 0,0 z m -51.58594,0.0996 c 0.12407,0.34401 -0.14969,-0.38702 0,0 z m 51.23242,0.81836 c 0.0985,-0.25974 0.15349,-0.36987 0,0 z m -50.96679,-0.13672 c 0.1412,0.35328 -0.12369,-0.29848 0,0 z m 50.57812,1.05078 c 0.12565,-0.30076 0.14149,-0.31734 0,0 z m -49.94531,0.38867 c 0.13233,0.28669 -0.18119,-0.37654 0,0 z m 49.5293,0.48829 c 0.12975,-0.27326 0.18536,-0.37063 0,0 z m -0.44727,0.86523 c 0.16007,-0.31502 0.18666,-0.34145 0,0 z m -48.04102,0.63672 c 0.18304,0.32481 -0.15823,-0.26938 0,0 z m 47.5625,0.20703 c 0.10438,-0.19083 0.14029,-0.23627 0,0 z m -0.37109,0.61719 c 0.0988,-0.17042 0.17341,-0.28175 0,0 z m -45.94922,1.14453 c 0.18247,0.27062 -0.24042,-0.34251 0,0 z m 0.41211,0.58203 c 0.22757,0.31734 -0.18047,-0.24277 0,0 z m 0.46484,0.61719 c 0.22419,0.29457 -0.21201,-0.2698 0,0 z m 0.48047,0.60351 c 0.23345,0.28936 -0.2497,-0.30075 0,0 z m 42.02735,0.52539 c 0.12097,-0.14633 0.24105,-0.27851 0,0 z m -41.53711,0.0547 c 0.26202,0.30726 -0.27145,-0.30744 0,0 z m 41.05469,0.48242 c 0.13625,-0.15653 0.18573,-0.1986 0,0 z m -40.54688,0.0879 c 0.24764,0.27621 -0.27589,-0.29586 0,0 z m 0.53125,0.56446 c 0.19132,0.20102 -0.29173,-0.29629 0,0 z m 39.00781,0.38867 c 0.18604,-0.18993 0.19512,-0.1876 0,0 z m -38.54101,0.0781 c 0.53284,0.52808 -0.2074,-0.19674 0,0 z m 38.00976,0.42969 c 0.19058,-0.18623 0.24152,-0.22742 0,0 z m -37.38476,0.16211 c 0.1161,0.11038 -0.30495,-0.27493 0,0 z m 36.85351,0.31445 c 0.17442,-0.15586 0.19024,-0.16466 0,0 z m -0.56445,0.48828 c 0.16841,-0.14703 0.21145,-0.17429 0,0 z m -35.19141,0.14844 c 0.30199,0.25148 -0.33169,-0.26672 0,0 z m 34.0586,0.74805 c 0.20195,-0.15729 0.21801,-0.16156 0,0 z m -32.79102,0.23828 c 0.16075,0.12211 -0.35153,-0.25587 0,0 z m 32.19727,0.19727 c 0.15182,-0.11369 0.3209,-0.23019 0,0 z m -1.2168,0.81836 c 0.13638,-0.0932 0.33985,-0.21612 0,0 z m -1.24023,0.74609 c 0.21594,-0.12991 0.25747,-0.1421 0,0 z m -1.27735,0.67773 c 0.15424,-0.0842 0.27118,-0.13344 0,0 z m -24.10937,0.16407 c 0.32443,0.1585 -0.27646,-0.12795 0,0 z m 0.66992,0.30859 c 0.35806,0.16339 -0.31121,-0.13392 0,0 z m 0.68164,0.29102 c 0.33179,0.13899 -0.29435,-0.11875 0,0 z m 20.75,0.14453 c 0.22127,-0.0953 0.26256,-0.1036 0,0 z m -0.65234,0.25195 c 0.15047,-0.0605 0.35796,-0.13272 0,0 z m -0.6875,0.24609 c 0.18226,-0.0685 0.34624,-0.11979 0,0 z m -16.58399,0.34571 c 0.32432,0.0963 -0.36308,-0.10339 0,0 z m 15.20508,0.0859 c 0.16624,-0.0542 0.35651,-0.10054 0,0 z m -14.48437,0.11329 c 0.34372,0.094 -0.38592,-0.0977 0,0 z m 13.78124,0.0762 c 0.23694,-0.0667 0.27789,-0.0675 0,0 z m -13.08398,0.0976 c 0.35242,0.0857 -0.28763,-0.0654 0,0 z m 0.7207,0.16016 c 0.3697,0.0796 -0.27291,-0.055 0,0 z m 10.96875,0.0547 c 0.21484,-0.0486 0.20751,-0.0413 0,0 z m -10.17578,0.0976 c 0.19964,0.0395 -0.39948,-0.0678 0,0 z m 9.40235,0.0488 c 0.23716,-0.0443 0.35162,-0.0592 0,0 z m -8.68164,0.0703 c 0.25218,0.0424 -0.4003,-0.0568 0,0 z m 7.96289,0.0449 c 0.1812,-0.0308 0.4149,-0.0617 0,0 z m -7.27344,0.0508 c 0.35941,0.0485 -0.26475,-0.0306 0,0 z m 5.81445,0.11719 c 0.22909,-0.0253 0.28775,-0.0246 0,0 z m -0.72461,0.0527 c 0.20964,-0.0162 0.27009,-0.0155 0,0 z m -2.86914,0.0195 c 0.36767,0.02 -0.30481,-0.0101 0,0 z m 0.75391,0.0234 c 0.36474,0.01 -0.3442,-0.003 0,0 z" />
</svg>
