<?xml version="1.0" standalone="no"?>
<!DOCTYPE svg PUBLIC "-//W3C//DTD SVG 1.1//EN" "http://www.w3.org/Graphics/SVG/1.1/DTD/svg11.dtd">
<svg t="1779626159130" class="icon" viewBox="0 0 1024 1024" version="1.1" xmlns="http://www.w3.org/2000/svg" p-id="37995" xmlns:xlink="http://www.w3.org/1999/xlink" width="128" height="128">
	<path d="M512 64c247.424 0 448 200.576 448 448S759.424 960 512 960 64 759.424 64 512 264.576 64 512 64z m0 48C291.0864 112 112 291.0864 112 512s179.0864 400 400 400 400-179.0864 400-400S732.9136 112 512 112z m-104 208c13.2544 0 24 10.7456 24 24v336c0 13.2544-10.7456 24-24 24-13.2544 0-24-10.7456-24-24V344c0-13.2544 10.7456-24 24-24z m208 0c13.2544 0 24 10.7456 24 24v336c0 13.2544-10.7456 24-24 24-13.2544 0-24-10.7456-24-24V344c0-13.2544 10.7456-24 24-24z" fill="#111111" p-id="37996">
	</path>
</svg>
