<?xml version="1.0" standalone="no"?>
<!DOCTYPE svg PUBLIC "-//W3C//DTD SVG 1.1//EN" "http://www.w3.org/Graphics/SVG/1.1/DTD/svg11.dtd">
<svg t="1779681100284" class="icon" viewBox="0 0 1024 1024" version="1.1" xmlns="http://www.w3.org/2000/svg" p-id="98952" xmlns:xlink="http://www.w3.org/1999/xlink" width="128" height="128">
	<path d="M566.357333 66.261333a85.333333 85.333333 0 0 1 63.744-12.245333c16.64 3.370667 29.354667 12.330667 38.826667 20.224 9.045333 7.552 19.2 17.664 30.122667 28.586667l221.824 221.866666c10.922667 10.88 21.034667 21.034667 28.586666 30.08 7.893333 9.472 16.853333 22.186667 20.224 38.826667a85.333333 85.333333 0 0 1-12.245333 63.744c-9.344 14.208-22.357333 22.656-33.237333 28.544-10.368 5.589333-23.552 11.264-37.717334 17.322667l-107.946666 46.293333a192.256 192.256 0 0 0-4.48 1.92h-0.085334v0.085333a257.322667 257.322667 0 0 0-3.498666 3.413334l-66.56 66.56a257.834667 257.834667 0 0 0-5.376 5.461333l-0.085334 0.085333v0.085334c-0.341333 1.450667-0.768 3.413333-1.578666 7.466666l-31.616 158.165334c-3.754667 18.773333-7.125333 35.626667-11.093334 48.896-3.882667 13.226667-10.368 30.336-24.96 43.306666a85.333333 85.333333 0 0 1-68.352 20.693334c-19.328-2.688-34.218667-13.354667-44.8-22.186667a594.773333 594.773333 0 0 1-36.352-34.56L357.418667 726.613333l-211.2 211.2a42.666667 42.666667 0 0 1-60.330667-60.330666l211.2-211.2-122.325333-122.282667c-13.525333-13.525333-25.685333-25.685333-34.56-36.309333-8.789333-10.666667-19.456-25.514667-22.144-44.8a85.333333 85.333333 0 0 1 20.693333-68.394667c12.970667-14.592 30.08-21.077333 43.349333-25.002667 13.226667-3.925333 30.08-7.296 48.853334-11.050666L389.12 326.826667l7.466667-1.578667h0.085333L396.8 325.12c1.066667-1.024 2.56-2.432 5.418667-5.333333l66.602666-66.602667a257.28 257.28 0 0 0 3.413334-3.456l0.085333-0.042667V249.6c0.426667-0.853333 0.896-2.005333 1.92-4.437333L520.533333 137.216c6.101333-14.165333 11.733333-27.349333 17.322667-37.717333 5.888-10.88 14.336-23.893333 28.544-33.237334z m-27.605333 721.066667a559.573333 559.573333 0 0 0 33.152 31.573333l0.512-1.578666c2.688-9.002667 5.290667-21.973333 9.514667-43.093334l31.274666-156.373333 0.341334-1.578667c1.152-5.845333 2.602667-13.226667 5.418666-20.48 2.432-6.186667 5.632-12.117333 9.472-17.621333a118.272 118.272 0 0 1 15.104-17.024l66.602667-66.56 0.725333-0.725333c2.730667-2.730667 6.144-6.144 10.026667-9.258667 3.413333-2.688 6.997333-5.12 10.752-7.253333 4.309333-2.474667 8.789333-4.394667 12.288-5.888l0.938667-0.426667 106.453333-45.610667a455.210667 455.210667 0 0 0 33.28-15.146666l-0.682667-0.853334a457.472 457.472 0 0 0-24.576-25.6l-219.434666-219.477333a455.808 455.808 0 0 0-26.453334-25.258667 456.064 456.064 0 0 0-15.189333 33.28l-45.653333 106.453334-0.384 0.938666a85.674667 85.674667 0 0 1-13.141334 23.04c-3.072 3.882667-6.528 7.296-9.258666 10.026667l-0.682667 0.725333-66.602667 66.56-1.152 1.152c-4.224 4.266667-9.557333 9.6-15.872 14.037334-5.504 3.84-11.434667 6.997333-17.664 9.429333-7.168 2.816-14.592 4.266667-20.48 5.461333l-1.536 0.298667-156.330666 31.274667a564.053333 564.053333 0 0 0-44.757334 10.026666l1.066667 1.28c6.016 7.253333 15.36 16.64 30.592 31.872l302.336 302.336z" p-id="98953" fill="#111111">
	</path>
</svg>
