<?xml version="1.0" encoding="UTF-8" standalone="no"?>
<svg
   t="1779681100284"
   class="icon"
   viewBox="0 0 1024 1024"
   version="1.1"
   p-id="98952"
   width="128"
   height="128"
   id="svg1"
   sodipodi:docname="pin-line.svg"
   inkscape:version="1.4.3 (0d15f75, 2025-12-25)"
   xmlns:inkscape="http://www.inkscape.org/namespaces/inkscape"
   xmlns:sodipodi="http://sodipodi.sourceforge.net/DTD/sodipodi-0.dtd"
   xmlns="http://www.w3.org/2000/svg"
   xmlns:svg="http://www.w3.org/2000/svg">
  <defs
     id="defs1" />
  <sodipodi:namedview
     id="namedview1"
     pagecolor="#ffffff"
     bordercolor="#000000"
     borderopacity="0.25"
     inkscape:showpageshadow="2"
     inkscape:pageopacity="0.0"
     inkscape:pagecheckerboard="0"
     inkscape:deskcolor="#d1d1d1"
     inkscape:zoom="8.8828125"
     inkscape:cx="63.943712"
     inkscape:cy="64"
     inkscape:window-width="2560"
     inkscape:window-height="1351"
     inkscape:window-x="-9"
     inkscape:window-y="-9"
     inkscape:window-maximized="1"
     inkscape:current-layer="svg1" />
  <path
     id="path1"
     d="m 599.19506,108.16974 c -3.39244,0.23567 -6.77055,0.66697 -10.09868,1.37143 -3.65605,0.77194 -7.24049,1.85707 -10.73361,3.1823 -4.11115,1.63287 -8.09742,3.59544 -11.82851,5.97698 -8.35027,5.20789 -15.03271,12.73619 -20.1951,21.04763 -5.45426,8.73177 -9.61757,18.17927 -13.77559,27.57344 -2.16216,4.93742 -4.29238,9.90572 -6.40549,14.81506 -13.57121,31.66379 -27.1681,63.31666 -40.72321,94.98729 -0.30308,0.68911 -0.6632,1.36452 -0.53,2.14154 0,0.68386 0,1.36773 0,2.0516 -1.0185,0.55331 -2.12992,0.9786 -3.09123,1.61072 -12.68082,12.74162 -25.4176,25.42763 -38.12022,38.14755 -8.92237,8.90783 -17.81585,17.84519 -26.7551,26.73573 -1.2459,1.17935 -2.45679,2.39439 -3.66684,3.61027 -1.20882,0.004 -2.42763,-0.0876 -3.59883,0.27656 -9.7066,2.05329 -19.45211,3.91766 -29.17595,5.88725 -42.04934,8.41222 -84.11333,16.80137 -126.15241,25.22772 -1.11414,0.22691 -2.22357,0.44746 -3.25688,0.66445 -11.73967,2.45132 -23.52648,4.86706 -34.93148,8.63046 -9.75113,3.22932 -19.22514,7.87723 -26.80789,14.91696 -3.23002,2.97469 -6.03735,6.38393 -8.5677,9.96398 -3.04466,4.33442 -5.57621,9.02629 -7.54555,13.94296 -1.75494,4.38167 -3.05281,8.94524 -3.87856,13.5927 -0.81959,4.63634 -1.1582,9.3553 -1.02598,14.06175 0.18016,5.43053 0.89843,10.87355 2.55345,16.06352 3.04084,9.82212 8.74895,18.56714 15.18835,26.48803 6.48904,7.92003 13.66508,15.24115 20.83528,22.53878 0.76265,0.77147 1.53767,1.56236 2.23889,2.26806 22.15808,22.20644 44.36799,44.362 66.54704,66.54794 18.63775,18.63096 37.27562,37.26178 55.91326,55.89283 -64.42734,64.43194 -128.86413,128.85495 -193.28558,193.29247 -2.5733,2.70527 -4.68056,5.84887 -6.16042,9.27874 -1.78929,4.20143 -2.64898,8.79252 -2.47976,13.35746 0.18311,4.57298 1.3817,9.09818 3.50003,13.15644 2.12838,4.04673 5.15443,7.61193 8.80504,10.36605 3.65612,2.74258 7.91806,4.66193 12.39538,5.58223 4.48041,0.90712 9.15438,0.81083 13.59429,-0.27956 4.40989,-1.09798 8.56982,-3.17114 12.09458,-6.04135 2.69546,-2.25508 5.0471,-4.88284 7.5677,-7.3263 62.55829,-62.55943 125.11888,-125.11658 187.67572,-187.67746 38.30934,38.32137 76.63855,76.62313 114.93925,114.953 5.35459,5.49457 10.80433,10.89682 16.39454,16.15196 4.7745,4.52105 9.66135,8.92143 14.59322,13.26991 8.22546,6.93598 17.37668,13.0975 27.73314,16.31741 4.92512,1.57858 10.08033,2.3128 15.23553,2.5478 4.63313,0.18913 9.28369,-0.0757 13.8634,-0.80729 4.63385,-0.74894 9.19192,-1.96115 13.58178,-3.62531 4.36363,-1.66851 8.56216,-3.7668 12.507,-6.27095 3.92133,-2.52193 7.63172,-5.39234 10.96027,-8.66189 7.65079,-7.58715 12.72886,-17.3751 16.14197,-27.50483 2.21895,-6.53267 3.9497,-13.21942 5.51848,-19.93442 0.0718,-0.30231 0.23922,-1.04359 0.34765,-1.51409 0.71536,-3.10188 1.37015,-6.21717 2.04008,-9.32905 0.0683,-0.31222 0.21818,-1.04822 0.31771,-1.52275 3.07174,-14.86949 5.97697,-29.76423 8.97498,-44.65165 7.65844,-38.27713 15.29076,-76.55956 22.96554,-114.83338 0.25071,-1.43577 0.66121,-2.85417 0.85115,-4.29293 0.0418,-0.66458 -0.0837,-1.39848 0.0631,-2.01952 4.69542,-4.71914 9.35804,-9.47063 14.08428,-14.15924 17.64586,-17.63406 35.26826,-35.29188 52.9288,-52.91107 0.51313,-0.35244 0.16121,-1.06968 0.2642,-1.59509 0,-0.95555 0,-1.9111 0,-2.86665 1.94005,-0.0236 3.89944,0.0471 5.82749,-0.0351 35.9451,-15.41968 71.90058,-30.81885 107.83795,-46.25591 1.5442,-0.67066 3.3397,-1.46258 4.72402,-2.06407 10.03578,-4.4867 20.14653,-9.01313 29.24695,-15.24665 7.36541,-5.06256 13.92211,-11.47246 18.4585,-19.22038 2.16657,-3.56799 3.98923,-7.34464 5.46892,-11.24711 1.55457,-4.1085 2.70602,-8.36522 3.46244,-12.69182 0.78603,-4.63045 1.11608,-9.33925 0.95536,-14.0342 -0.12147,-3.78175 -0.587,-7.54602 -1.303,-11.26031 -1.89333,-9.64577 -6.54822,-18.54839 -12.41011,-26.36373 -6.13344,-8.18371 -13.30057,-15.51441 -20.44489,-22.80677 -10.00942,-10.0784 -20.08367,-20.09237 -30.11609,-30.14794 -60.2898,-60.29509 -120.56691,-120.60305 -180.86466,-180.89009 -1.10034,-1.09083 -2.221,-2.21294 -3.26577,-3.23796 -7.53786,-7.39469 -15.09072,-14.83453 -23.51614,-21.22941 -7.5181,-5.67998 -16.01026,-10.28419 -25.25234,-12.3789 -4.83966,-1.06213 -9.78813,-1.64206 -14.74459,-1.66118 -1.49643,-0.0394 -2.99255,0.0749 -4.48854,0.10734 z m 9.19908,64.81854 c 3.79587,3.38389 7.56262,6.79954 11.25023,10.30147 4.14143,3.93215 8.19139,7.95919 12.18161,12.04462 65.40267,65.4312 130.81902,130.84894 196.2299,196.272 4.93651,4.80825 9.8018,9.69121 14.49941,14.73397 2.69839,2.84816 5.32593,5.76508 7.92858,8.69955 2.01162,2.5189 4.02319,5.03783 6.03478,7.55674 -6.96287,3.3903 -13.86132,6.91492 -20.90109,10.14489 -5.20645,2.41458 -10.47429,4.69528 -15.7773,6.88943 -28.35423,12.11888 -56.68887,24.284 -85.03556,36.42069 -5.91145,2.55957 -11.87087,5.01214 -17.72101,7.70982 -6.85733,3.23815 -13.16537,7.63344 -18.55664,12.96889 -0.35566,0.34274 -0.94783,0.9257 -1.13811,1.10669 -20.82139,20.77793 -41.60714,41.59793 -62.43535,62.37121 -4.41791,4.14757 -8.44169,8.70832 -12.035,13.58686 -4.63114,6.57655 -8.14812,13.96488 -10.10628,21.77713 -1.28519,5.00916 -2.19641,10.1031 -3.24759,15.16409 -9.83811,49.15367 -19.64571,98.31383 -29.50375,147.46324 -1.87472,9.02976 -3.6294,18.10252 -6.21478,26.96328 -1.29224,3.97839 -2.58074,7.958 -3.87155,11.93686 -5.63397,-5.07094 -11.32046,-10.0844 -16.92113,-15.19178 -3.83757,-3.56007 -7.65895,-7.13715 -11.38388,-10.81548 -5.30552,-5.14476 -10.39038,-10.5076 -15.64132,-15.70113 C 436.22976,665.58767 346.4191,575.79234 256.62815,485.98348 c -6.84352,-6.91051 -13.77807,-13.7466 -20.19631,-21.06036 -3.35731,-3.93137 -6.62549,-7.9383 -9.94603,-11.9009 7.42856,-1.88578 14.83968,-3.84251 22.27962,-5.68195 5.09951,-1.21126 10.20261,-2.40657 15.33797,-3.45779 6.47938,-1.4008 13.01651,-2.51567 19.50617,-3.86813 45.9704,-9.20214 91.9451,-18.38445 137.91283,-27.59882 6.04659,-1.22635 12.06373,-2.81072 17.66545,-5.44484 6.35635,-2.8975 12.24941,-6.79854 17.37757,-11.54408 4.37336,-4.01496 8.45483,-8.32793 12.68584,-12.48941 18.09796,-18.09667 36.21703,-36.17286 54.30183,-54.28231 3.33695,-3.37795 6.74317,-6.72528 9.51977,-10.59665 2.54682,-3.37269 4.74177,-7.0061 6.62769,-10.78608 1.64528,-3.2999 2.8754,-6.77838 4.38267,-10.13977 13.14758,-30.65781 26.29517,-61.31561 39.44274,-91.97344 0.11966,-0.29478 0.41465,-0.98713 0.60147,-1.4342 2.58775,-6.23675 5.30627,-12.4197 8.20161,-18.51999 2.76211,-5.87941 5.72136,-11.66412 8.56845,-17.50272 0.26288,-0.39701 0.40676,-1.4118 0.89343,-0.64681 2.20107,1.97768 4.40216,3.95537 6.60322,5.93305 z"
     style="stroke-width:0.891695" />
</svg>
