<?xml version="1.0" encoding="UTF-8" standalone="no"?>
<svg
   t="1779872004629"
   class="icon"
   viewBox="0 0 1024 1024"
   version="1.1"
   p-id="17523"
   width="128"
   height="128"
   id="svg1"
   sodipodi:docname="qq.svg"
   inkscape:version="1.4.3 (0d15f75, 2025-12-25)"
   xmlns:inkscape="http://www.inkscape.org/namespaces/inkscape"
   xmlns:sodipodi="http://sodipodi.sourceforge.net/DTD/sodipodi-0.dtd"
   xmlns="http://www.w3.org/2000/svg"
   xmlns:svg="http://www.w3.org/2000/svg">
  <defs
     id="defs1" />
  <sodipodi:namedview
     id="namedview1"
     pagecolor="#ffffff"
     bordercolor="#000000"
     borderopacity="0.25"
     inkscape:showpageshadow="2"
     inkscape:pageopacity="0.0"
     inkscape:pagecheckerboard="0"
     inkscape:deskcolor="#d1d1d1"
     inkscape:zoom="8.8828125"
     inkscape:cx="63.943712"
     inkscape:cy="64"
     inkscape:window-width="2560"
     inkscape:window-height="1351"
     inkscape:window-x="-9"
     inkscape:window-y="-9"
     inkscape:window-maximized="1"
     inkscape:current-layer="svg1" />
  <path
     d="M 787.60181,349.69599 C 783.26929,183.89626 665.25662,59.352471 512.13113,58.770491 358.74698,59.352471 240.73431,183.89626 236.40179,349.63132 a 146.7237,146.7237 0 0 0 -28.12905,111.4169 c -48.04571,58.19803 -79.08466,117.30137 -83.99916,185.58706 -1.55195,32.46157 3.87987,66.53975 18.23538,86.06842 24.44318,33.3022 58.90934,24.31384 88.13769,-6.14313 4.52651,8.60038 9.50568,17.39475 15.06682,26.38311 -44.55382,31.16828 -60.91394,90.14228 -34.27217,133.85547 21.98592,36.08278 66.7984,56.51676 126.61305,56.51676 83.28785,0 139.02863,-18.17072 173.94745,-48.49836 35.82412,30.5863 91.24158,48.49836 173.94745,48.49836 59.81464,0 104.62713,-20.43398 126.54839,-56.45209 26.64176,-43.77785 10.34631,-102.75186 -34.27218,-133.92014 5.62581,-9.05303 10.66964,-17.78273 15.13149,-26.38311 29.22834,30.39231 63.69451,39.44534 88.13769,6.14313 14.42017,-19.59334 19.85199,-53.67152 18.30004,-85.35712 -4.9145,-68.99699 -35.95345,-128.16499 -84.06382,-186.2337 A 146.78837,146.78837 0 0 0 787.60181,349.69599 Z m 46.55843,325.45632 a 144.20179,144.20179 0 0 1 -18.23539,-30.71563 l -37.05274,-82.12389 -23.60254,86.97373 c -7.37175,27.22375 -23.53787,60.13797 -51.1496,97.96669 l -28.84036,39.44533 47.52839,11.12229 c 31.42694,7.37175 44.94182,38.15204 34.46617,55.41746 -8.98836,14.7435 -32.3969,25.41314 -71.38959,25.41314 -72.16555,0 -113.16283,-14.61417 -134.82544,-35.69479 a 53.024874,53.024874 0 0 0 -38.99268,-15.19616 53.671518,53.671518 0 0 0 -39.89798,15.97213 c -20.95129,20.30465 -61.88391,34.91882 -134.11413,34.91882 -38.92802,0 -62.40122,-10.66964 -71.32492,-25.41314 -10.47565,-17.20075 3.03923,-48.04571 34.46617,-55.41746 l 47.52839,-11.12229 -28.84036,-39.44533 c -27.61173,-37.76406 -43.77785,-70.74294 -51.1496,-97.96669 l -23.60254,-86.97373 -37.05275,82.12389 a 144.13713,144.13713 0 0 1 -18.23538,30.71563 149.18095,149.18095 0 0 1 -1.03463,-24.63717 c 3.94453,-55.28813 33.43154,-107.34303 79.47264,-160.17391 l 13.12689,-15.13149 -7.6304,-18.49404 c -5.81981,-14.16152 -2.58658,-51.47293 17.84739,-72.03623 l 10.28165,-10.34632 -0.96996,-14.54951 c 0,-136.57138 91.88822,-235.89602 211.19419,-236.34867 118.98264,0.45265 210.93553,99.77729 210.93553,235.63736 0,1.03464 -0.96997,15.26082 -0.96997,15.26082 l 10.28166,10.34632 c 20.43397,20.5633 23.73186,57.93937 17.84739,71.97156 l -7.69507,18.55871 13.19155,15.13149 c 45.91178,52.63689 75.39879,104.69179 79.47265,160.49724 0.38799,8.08306 -0.12933,16.81276 -1.03463,24.31384 z"
     fill="#111111"
     p-id="17524"
     id="path1"
     style="stroke-width:0.947234" />
</svg>
