<?xml version="1.0" encoding="UTF-8" standalone="no"?>
<svg
   t="1779872156737"
   class="icon"
   viewBox="0 0 1024 1024"
   version="1.1"
   p-id="20017"
   width="128"
   height="128"
   id="svg1"
   sodipodi:docname="reset.svg"
   inkscape:version="1.4.3 (0d15f75, 2025-12-25)"
   xmlns:inkscape="http://www.inkscape.org/namespaces/inkscape"
   xmlns:sodipodi="http://sodipodi.sourceforge.net/DTD/sodipodi-0.dtd"
   xmlns="http://www.w3.org/2000/svg"
   xmlns:svg="http://www.w3.org/2000/svg">
  <defs
     id="defs1" />
  <sodipodi:namedview
     id="namedview1"
     pagecolor="#ffffff"
     bordercolor="#000000"
     borderopacity="0.25"
     inkscape:showpageshadow="2"
     inkscape:pageopacity="0.0"
     inkscape:pagecheckerboard="0"
     inkscape:deskcolor="#d1d1d1"
     inkscape:zoom="8.8828125"
     inkscape:cx="63.943712"
     inkscape:cy="64"
     inkscape:window-width="2560"
     inkscape:window-height="1351"
     inkscape:window-x="-9"
     inkscape:window-y="-9"
     inkscape:window-maximized="1"
     inkscape:current-layer="svg1" />
  <path
     d="M 836.42222,535.87847 A 324.8763,324.8763 0 0 1 747.29153,733.10067 326.71835,326.71835 0 0 1 553.80255,831.02408 327.20957,327.20957 0 0 1 341.48782,786.34821 325.564,325.564 0 0 1 204.19365,618.84442 324.39737,324.39737 0 0 1 202.63405,402.5263 325.51488,325.51488 0 0 1 337.47215,233.04537 327.185,327.185 0 0 1 744.01268,280.43519 H 642.41746 c -8.63308,0 -16.91002,3.41393 -23.01335,9.50498 a 32.383247,32.383247 0 0 0 0,45.86706 c 6.10333,6.07877 14.36799,9.50498 23.01335,9.50498 h 134.80125 a 60.542059,60.542059 0 0 0 42.7233,-17.65913 60.173649,60.173649 0 0 0 17.70824,-42.57592 v -134.396 c 0,-8.59624 -3.43849,-16.84863 -9.52954,-22.93967 a 32.592013,32.592013 0 0 0 -46.0267,0 32.383247,32.383247 0 0 0 -9.52954,22.93967 V 218.1002 A 390.61294,390.61294 0 0 0 536.25395,119.91891 390.88311,390.88311 0 0 0 289.7876,188.99581 388.82001,388.82001 0 0 0 139.41488,395.53879 387.62882,387.62882 0 0 0 149.91457,650.52769 389.10246,389.10246 0 0 0 316.7675,844.10264 391.00591,391.00591 0 0 0 568.0723,892.80645 390.3919,390.3919 0 0 0 795.5287,775.6766 388.21828,388.21828 0 0 0 901.11503,543.17299 32.579733,32.579733 0 0 0 881.7735,510.31081 a 32.83762,32.83762 0 0 0 -13.20136,-2.82448 32.014837,32.014837 0 0 0 -21.57655,8.01906 31.818352,31.818352 0 0 0 -10.57337,20.38536 z"
     p-id="20018"
     fill="#111111"
     id="path1"
     style="stroke-width:0.911431" />
</svg>
