<?xml version="1.0" standalone="no"?><!DOCTYPE svg PUBLIC "-//W3C//DTD SVG 1.1//EN" "http://www.w3.org/Graphics/SVG/1.1/DTD/svg11.dtd"><svg t="1779872156737" class="icon" viewBox="0 0 1024 1024" version="1.1" xmlns="http://www.w3.org/2000/svg" p-id="20017" xmlns:xlink="http://www.w3.org/1999/xlink" width="128" height="128"><path d="M867.947789 538.637474a356.446316 356.446316 0 0 1-97.792 216.387368 358.467368 358.467368 0 0 1-212.291368 107.439158 359.006316 359.006316 0 0 1-232.946526-49.017263 357.200842 357.200842 0 0 1-150.63579-183.781053 355.920842 355.920842 0 0 1-1.711158-237.338947 357.146947 357.146947 0 0 1 147.941053-185.950316 358.979368 358.979368 0 0 1 446.046316 51.994947H655.090526c-9.472 0-18.553263 3.745684-25.249684 10.428632a35.530105 35.530105 0 0 0 0 50.324211c6.696421 6.669474 15.764211 10.428632 25.249684 10.428631h147.900632a66.425263 66.425263 0 0 0 46.874947-19.375158 66.021053 66.021053 0 0 0 19.429053-46.713263V116.008421c0-9.431579-3.772632-18.485895-10.455579-25.168842a35.759158 35.759158 0 0 0-50.499368 0 35.530105 35.530105 0 0 0-10.455579 25.168842v73.970526a428.570947 428.570947 0 0 0-259.274106-107.722105 428.867368 428.867368 0 0 0-270.416842 75.789474A426.603789 426.603789 0 0 0 103.208421 384.660211a425.296842 425.296842 0 0 0 11.52 279.767578 426.913684 426.913684 0 0 0 183.066947 212.385685 429.002105 429.002105 0 0 0 275.725474 53.436631 428.328421 428.328421 0 0 0 249.559579-128.512 425.943579 425.943579 0 0 0 115.846737-255.097263 35.745684 35.745684 0 0 0-21.221053-36.055579 36.028632 36.028632 0 0 0-14.48421-3.098947 35.125895 35.125895 0 0 0-23.673263 8.798316 34.910316 34.910316 0 0 0-11.600843 22.366315z" p-id="20018" fill="#111111"></path></svg>