<?xml version="1.0" encoding="UTF-8" standalone="no"?>
<svg
   t="1779630175108"
   class="icon"
   viewBox="0 0 1024 1024"
   version="1.1"
   p-id="26921"
   width="128"
   height="128"
   id="svg1"
   sodipodi:docname="rocket.svg"
   inkscape:version="1.4.3 (0d15f75, 2025-12-25)"
   xmlns:inkscape="http://www.inkscape.org/namespaces/inkscape"
   xmlns:sodipodi="http://sodipodi.sourceforge.net/DTD/sodipodi-0.dtd"
   xmlns="http://www.w3.org/2000/svg"
   xmlns:svg="http://www.w3.org/2000/svg">
  <defs
     id="defs1" />
  <sodipodi:namedview
     id="namedview1"
     pagecolor="#ffffff"
     bordercolor="#000000"
     borderopacity="0.25"
     inkscape:showpageshadow="2"
     inkscape:pageopacity="0.0"
     inkscape:pagecheckerboard="0"
     inkscape:deskcolor="#d1d1d1"
     inkscape:zoom="8.8828125"
     inkscape:cx="63.943712"
     inkscape:cy="64"
     inkscape:window-width="2560"
     inkscape:window-height="1351"
     inkscape:window-x="-9"
     inkscape:window-y="-9"
     inkscape:window-maximized="1"
     inkscape:current-layer="svg1" />
  <path
     d="m 195.13885,694.52153 c 6.7892,-7.1998 18.23394,-7.1998 25.02314,0 7.00437,6.59287 7.00437,18.0385 0,25.45347 l -44.29433,44.09889 c -7.00347,7.1998 -18.66516,7.1998 -25.43374,0 -7.02409,-7.00436 -7.02409,-18.23394 0,-25.43374 z M 752.41926,383.77538 v 0 c 0,61.47219 -49.8114,111.08815 -111.28359,111.08815 -61.4722,0 -111.49876,-49.61596 -111.49876,-111.08815 0,-61.02305 50.02656,-111.06844 111.49876,-111.06844 61.47219,0 111.28359,49.59624 111.28359,111.06844 z m -111.28359,-75.4612 v 0 c -41.75096,0 -75.44148,33.49508 -75.44148,75.4612 0,41.55552 33.69052,75.0506 75.44148,75.0506 41.55552,0 75.48092,-33.49508 75.48092,-75.0506 -9e-4,-41.96702 -33.9254,-75.4612 -75.48092,-75.4612 z M 230.33549,629.44899 v 0 c 0,-23.0867 1.27213,-45.78163 4.24583,-68.86743 1.25241,-8.08017 2.11305,-16.12089 3.60035,-24.18313 l -6.35889,2.54338 c -14.63359,5.94829 -28.19317,14.63538 -40.28338,25.86585 -12.07139,11.03414 -30.95171,10.38866 -42.18128,-1.46757 -2.11306,-2.75853 -4.03067,-5.10647 -5.08675,-7.865 -18.64454,-37.09454 -24.5731,-78.8455 -18.21511,-118.8949 6.35888,-39.85306 24.5731,-77.39764 55.11331,-107.8993 v 0 0 c 27.54679,-28.212 62.09795,-45.78163 97.90152,-53.64663 30.54021,-6.35889 61.92224,-5.51707 92.44362,2.34793 l 5.49735,-5.51706 0.45004,-0.84092 h -0.45004 c 64.44588,-64.03529 142.47018,-107.46899 224.70086,-129.51843 85.20437,-23.12525 175.0849,-23.12525 260.3081,0 10.81898,2.75853 18.64543,11.01531 21.40397,21.1888 v 0.43032 0.21516 c 22.6752,84.98922 22.6752,174.67251 -0.21516,259.66262 -22.02973,82.03435 -65.48314,160.45042 -129.71387,224.46598 l -1.91762,2.13278 -4.2261,3.81551 c 8.25677,30.10899 8.90225,61.88279 2.32821,92.4239 -7.63012,35.60813 -25.45346,69.94233 -53.43147,97.72491 l -1.68184,1.70335 c -30.11079,29.22953 -67.40076,47.26803 -106.21747,53.60719 -40.47972,6.16255 -82.44584,0.21516 -120.18585,-18.64543 -14.41932,-7.19981 -20.34699,-25.43374 -13.12747,-40.06823 1.25242,-2.32821 2.9737,-4.87159 5.06703,-7.00436 11.03503,-11.85623 19.93639,-25.63008 25.88378,-40.06913 l 2.54338,-6.55342 c -8.06044,1.48729 -16.5521,2.75853 -24.59282,3.81372 -23.75191,3.18975 -47.48319,4.24672 -71.2351,4.03156 -8.04072,0 -15.24052,-3.16913 -20.75759,-8.2756 v 0 L 238.59226,652.98484 c -6.14282,-6.55343 -9.11741,-14.82993 -8.25677,-23.53585 z m 63.15582,-61.04187 v 0 c -2.09423,16.9627 -3.38519,34.14056 -3.79578,50.8881 l 115.74458,115.94002 c 16.94298,-0.4106 33.90568,-1.89789 50.84865,-4.03067 20.58188,-2.73881 41.36009,-6.57404 61.4722,-12.50171 2.97369,-0.84092 6.35888,-1.27214 9.54774,-1.05608 16.33694,0.4106 29.46441,14.41933 28.60377,30.95171 -0.84092,23.10552 -5.90884,45.78162 -14.8102,67.61591 -3.40402,7.41496 -7.21953,15.26025 -11.46446,22.67521 16.12088,3.61917 32.86842,4.03067 49.3999,0.86064 26.92104,-4.46099 52.76627,-16.5521 73.97391,-37.09453 l 1.05697,-1.29096 c 19.72034,-19.2712 31.81145,-43.45342 37.11336,-68.24168 5.90884,-25.86496 3.60035,-53.00115 -5.94739,-78.00457 -4.24583,-10.60382 -1.27213,-23.94734 8.04072,-32.22295 l 9.33258,-8.92108 7.43468,-7.6104 1.05608,-1.0758 c 57.22726,-56.79604 95.37877,-125.6832 114.45363,-197.54494 18.66515,-69.31748 20.36671,-142.86106 4.24583,-213.04008 -69.94413,-15.69056 -142.88079,-13.9899 -212.39459,4.44127 -72.50634,19.5249 -141.17833,57.87095 -197.99499,114.68851 l -8.27561,8.04072 h -0.19543 l -8.04072,8.92108 c -8.08017,9.52802 -21.20853,13.57751 -33.29875,8.6871 -25.00431,-9.52802 -52.35567,-11.25109 -77.78941,-5.73223 -25.00342,5.10647 -48.97049,17.60818 -68.47656,37.09453 v -0.19544 c -21.40307,21.40397 -34.11994,47.48319 -38.36667,75.4612 -2.75853,15.90573 -2.54337,32.84871 0.86064,49.18565 7.63013,-4.26556 15.26025,-8.27561 22.89037,-11.46536 21.61913,-8.90225 44.08007,-13.55958 66.97044,-15.04508 3.18885,0 6.80803,0.21516 9.762,1.4855 16.12088,3.81641 25.02314,20.75938 20.75848,36.44995 -5.49734,20.36582 -9.74317,41.14313 -12.71597,61.68646 z m 11.87506,236.14559 v 0 c 6.7892,-6.98464 18.01878,-6.98464 25.02314,0 7.21952,7.00437 7.21952,18.23394 0,25.21858 l -44.50949,44.52922 c -7.00437,6.76948 -18.23394,6.76948 -25.00342,0 -7.21953,-6.7892 -7.21953,-18.66515 0,-25.21858 z m -55.11331,-55.32847 v 0 c 6.7883,-6.7892 18.01877,-6.7892 25.02314,0 7.21952,7.21953 7.21952,18.4491 0,25.45347 L 174.36064,875.76808 c -6.98464,7.00437 -18.21422,7.00437 -25.00342,0 -7.41496,-7.1998 -7.41496,-18.4491 0,-25.43374 z"
     fill="#111111"
     p-id="26922"
     id="path1"
     style="stroke-width:0.876083" />
</svg>
