<?xml version="1.0" standalone="no"?>
<!DOCTYPE svg PUBLIC "-//W3C//DTD SVG 1.1//EN" "http://www.w3.org/Graphics/SVG/1.1/DTD/svg11.dtd">
<svg t="1779610462876" class="icon" viewBox="0 0 1024 1024" version="1.1" xmlns="http://www.w3.org/2000/svg" p-id="5582" xmlns:xlink="http://www.w3.org/1999/xlink" width="128" height="128">
	<path d="M980.630588 923.542588l-0.015059-0.045176v0.045176h0.015059c8.839529 10.345412 13.251765 21.805176 13.251765 34.349177a49.242353 49.242353 0 0 1-14.938353 36.065882c-9.968941 9.984-21.955765 14.983529-35.975529 14.983529a53.609412 53.609412 0 0 1-17.136942-2.770823 45.929412 45.929412 0 0 1-14.938353-8.297412l-5.511529-4.442353-273.272471-276.193882c-65.641412 46.592-139.023059 69.888-220.16 69.888-8.116706 0-16.414118-0.361412-24.892235-1.099294a265.185882 265.185882 0 0 1-24.877176-3.328c-56.816941-6.656-109.176471-25.886118-157.123765-57.690353-51.606588-33.264941-92.912941-77.266824-123.904-132.005647a361.366588 361.366588 0 0 1-34.831059-80.956236 397.402353 397.402353 0 0 1-15.510588-87.642352 377.976471 377.976471 0 0 1 4.999529-88.741648 366.938353 366.938353 0 0 1 48.670118-133.677176 368.850824 368.850824 0 0 1 95.156706-105.908706 367.736471 367.736471 0 0 1 108.980706-59.919059 370.838588 370.838588 0 0 1 123.331764-21.082353c17.709176 0 34.665412 1.099294 50.913883 3.328a380.596706 380.596706 0 0 1 125.003294 39.936 368.775529 368.775529 0 0 1 104.011294 79.856942c34.635294 36.231529 61.003294 79.119059 79.088941 128.677647 18.070588 49.558588 26.006588 99.84 23.777883 150.859294-2.951529 85.037176-32.075294 161.581176-87.401412 229.616941l274.356706 276.193882h-1.069177zM737.219765 416.617412c2.213647-46.592-5.150118-90.955294-22.121412-133.104941a315.286588 315.286588 0 0 0-38.731294-73.216 323.102118 323.102118 0 0 0-56.952471-61.560471 328.207059 328.207059 0 0 0-70.249412-44.935529c-42.767059-19.968-88.485647-29.952-137.170823-29.952-11.806118 0-23.612235 0.737882-35.403294 2.228705-2.951529 0-6.264471 0.361412-9.953883 1.099295l-6.656 1.099294c-47.209412 7.393882-90.895059 24.952471-131.087058 52.675764-40.192 27.738353-72.086588 62.313412-95.698824 103.725177-27.286588 45.101176-42.224941 95.382588-44.815059 150.859294-2.590118 55.461647 7.544471 106.857412 30.403765 154.187294 19.169882 42.872471 47.013647 79.856941 83.516235 110.923294 36.517647 31.066353 77.251765 52.886588 122.24753 65.460706a321.355294 321.355294 0 0 0 142.697411 7.770353 321.295059 321.295059 0 0 0 73.035295-22.181647 332.769882 332.769882 0 0 0 121.148235-90.413176 300.182588 300.182588 0 0 0 41.487059-63.789177v0.045177c20.660706-40.688941 32.090353-84.314353 34.304-130.921412z" fill="#111111" p-id="5583">
	</path>
</svg>
