<?xml version="1.0" standalone="no"?><!DOCTYPE svg PUBLIC "-//W3C//DTD SVG 1.1//EN" "http://www.w3.org/Graphics/SVG/1.1/DTD/svg11.dtd"><svg t="1779617701882" class="icon" viewBox="0 0 1024 1024" version="1.1" xmlns="http://www.w3.org/2000/svg" p-id="8236" xmlns:xlink="http://www.w3.org/1999/xlink" width="128" height="128"><path d="M801.109811 360.430434a401.609737 401.609737 0 1 0-440.675712 440.675712 402.887736 402.887736 0 0 0 440.674712-440.674712zM655.069906 434.730386A255.569833 255.569833 0 1 1 368.282094 147.760573 255.569833 255.569833 0 0 1 654.886907 434.730386z" p-id="8237"></path><path d="M643.652914 643.574249l-0.129 0.13q45.95297-45.95397 91.90694 0l269.523823 269.522823q45.95297 45.95297 0 91.90694l0.129-0.13q-45.95397 45.95397-91.906939 0L643.652914 735.482189q-45.95297-45.95397 0-91.90694z" p-id="8238"></path></svg>