<?xml version="1.0" encoding="UTF-8" standalone="no"?>
<svg
   t="1779610462876"
   class="icon"
   viewBox="0 0 1024 1024"
   version="1.1"
   p-id="5582"
   width="128"
   height="128"
   id="svg1"
   sodipodi:docname="search-line.svg"
   inkscape:version="1.4.3 (0d15f75, 2025-12-25)"
   xmlns:inkscape="http://www.inkscape.org/namespaces/inkscape"
   xmlns:sodipodi="http://sodipodi.sourceforge.net/DTD/sodipodi-0.dtd"
   xmlns="http://www.w3.org/2000/svg"
   xmlns:svg="http://www.w3.org/2000/svg">
  <defs
     id="defs1" />
  <sodipodi:namedview
     id="namedview1"
     pagecolor="#ffffff"
     bordercolor="#000000"
     borderopacity="0.25"
     inkscape:showpageshadow="2"
     inkscape:pageopacity="0.0"
     inkscape:pagecheckerboard="0"
     inkscape:deskcolor="#d1d1d1"
     inkscape:zoom="8.8828125"
     inkscape:cx="63.943712"
     inkscape:cy="64"
     inkscape:window-width="2560"
     inkscape:window-height="1351"
     inkscape:window-x="-9"
     inkscape:window-y="-9"
     inkscape:window-maximized="1"
     inkscape:current-layer="svg1" />
  <path
     d="m 892.17082,845.86181 -0.0123,-0.0367 v 0.0367 h 0.0123 c 7.17099,8.39263 10.75038,17.68927 10.75038,27.86547 a 39.947435,39.947435 0 0 1 -12.11861,29.25814 c -8.08722,8.09944 -17.81142,12.15526 -29.18483,12.15526 a 43.490173,43.490173 0 0 1 -13.9022,-2.2478 37.25984,37.25984 0 0 1 -12.11862,-6.73121 l -4.47118,-3.60382 -221.68993,-224.05991 c -53.25103,37.79737 -112.78126,56.69604 -178.60291,56.69604 -6.5846,0 -13.31581,-0.29319 -20.19361,-0.89179 a 215.12976,215.12976 0 0 1 -20.18139,-2.69982 C 344.36567,726.20275 301.88945,710.60249 262.99262,684.80158 221.12723,657.81568 187.6178,622.11953 162.47657,577.71313 a 293.15553,293.15553 0 0 1 -28.2564,-65.67505 322.38924,322.38924 0 0 1 -12.58282,-71.0991 306.63016,306.63016 0 0 1 4.05581,-71.9909 297.67558,297.67558 0 0 1 39.48322,-108.44445 299.22705,299.22705 0 0 1 77.19506,-85.91753 298.32304,298.32304 0 0 1 88.40966,-48.60881 300.83961,300.83961 0 0 1 100.05182,-17.10289 c 14.36643,0 28.12203,0.89179 41.30346,2.69981 a 308.7558,308.7558 0 0 1 101.40784,32.39774 299.16597,299.16597 0 0 1 84.37827,64.78325 c 28.09758,29.39252 49.4884,64.18467 64.16022,104.38864 14.65961,40.20398 21.09761,80.99434 19.2896,122.3833 -2.3944,68.98568 -26.02081,131.08133 -70.90364,186.27477 l 222.56951,224.0599 z M 694.70589,434.62313 c 1.7958,-37.79736 -4.17799,-73.7867 -17.94581,-107.98024 a 255.77353,255.77353 0 0 0 -31.42043,-59.39584 262.11381,262.11381 0 0 0 -46.20219,-49.9404 266.25515,266.25515 0 0 0 -56.98924,-36.45356 c -34.6944,-16.19887 -71.78321,-24.29831 -111.27865,-24.29831 -9.57761,0 -19.15521,0.5986 -28.72061,1.80802 -2.3944,0 -5.082,0.29319 -8.075,0.89179 l -5.39962,0.8918 c -38.29823,5.99822 -73.73784,20.24248 -106.34325,42.73276 -32.60542,22.50249 -58.47962,50.55122 -77.63485,84.14615 -22.136,36.58794 -34.25462,77.3783 -36.35583,122.38331 -2.10121,44.99278 6.12039,86.68715 24.66479,125.08311 15.55141,34.77992 38.13942,64.78325 67.75183,89.98556 29.62463,25.20231 62.66983,42.90379 99.17226,53.10443 a 260.69671,260.69671 0 0 0 115.76204,6.30364 260.64784,260.64784 0 0 0 59.24925,-17.99467 269.9567,269.9567 0 0 0 98.28047,-73.34691 243.52054,243.52054 0 0 0 33.65602,-51.74842 v 0.0367 c 16.76081,-33.00856 26.03301,-68.39929 27.82882,-106.20887 z"
     fill="#111111"
     p-id="5583"
     id="path1"
     style="stroke-width:0.811242" />
</svg>
