<?xml version="1.0" standalone="no"?>
<!DOCTYPE svg PUBLIC "-//W3C//DTD SVG 1.1//EN" "http://www.w3.org/Graphics/SVG/1.1/DTD/svg11.dtd">
<svg t="1779628452308" class="icon" viewBox="0 0 1026 1024" version="1.1" xmlns="http://www.w3.org/2000/svg" p-id="14447" xmlns:xlink="http://www.w3.org/1999/xlink" width="128" height="128">
	<path d="M1011.2 960l-204.8-204.8c70.4-83.2 108.8-185.6 108.8-294.4 0-256-204.8-460.8-460.8-460.8C204.8 0 0 211.2 0 460.8c0 256 204.8 460.8 460.8 460.8 115.2 0 224-44.8 300.8-115.2l204.8 204.8c12.8 12.8 38.4 12.8 51.2 0 12.8-12.8 12.8-38.4-6.4-51.2zM70.4 460.8c0-217.6 172.8-390.4 390.4-390.4 217.6 0 390.4 172.8 390.4 390.4 0 217.6-172.8 390.4-390.4 390.4-217.6 0-390.4-172.8-390.4-390.4z" fill="#111111" p-id="14448">
	</path>
</svg>
