<?xml version="1.0" encoding="UTF-8" standalone="no"?>
<svg
   t="1779617701882"
   class="icon"
   viewBox="0 0 1024 1024"
   version="1.1"
   p-id="8236"
   width="128"
   height="128"
   id="svg2"
   sodipodi:docname="search-fill.svg"
   inkscape:version="1.4.3 (0d15f75, 2025-12-25)"
   xmlns:inkscape="http://www.inkscape.org/namespaces/inkscape"
   xmlns:sodipodi="http://sodipodi.sourceforge.net/DTD/sodipodi-0.dtd"
   xmlns="http://www.w3.org/2000/svg"
   xmlns:svg="http://www.w3.org/2000/svg">
  <defs
     id="defs2" />
  <sodipodi:namedview
     id="namedview2"
     pagecolor="#ffffff"
     bordercolor="#000000"
     borderopacity="0.25"
     inkscape:showpageshadow="2"
     inkscape:pageopacity="0.0"
     inkscape:pagecheckerboard="0"
     inkscape:deskcolor="#d1d1d1"
     inkscape:zoom="8.8828125"
     inkscape:cx="63.943712"
     inkscape:cy="64"
     inkscape:window-width="2560"
     inkscape:window-height="1351"
     inkscape:window-x="-9"
     inkscape:window-y="-9"
     inkscape:window-maximized="1"
     inkscape:current-layer="svg2" />
  <path
     d="M 732.18096,397.2934 A 305.20224,305.20224 0 1 0 397.29064,732.18372 306.17345,306.17345 0 0 0 732.1802,397.29416 Z M 621.19833,453.75745 A 194.21961,194.21961 0 1 1 403.25471,235.67551 194.21961,194.21961 0 0 1 621.05926,453.75745 Z"
     p-id="8237"
     id="path1"
     style="stroke-width:0.759947" />
  <path
     d="m 612.52202,612.46778 -0.098,0.0988 q 34.92183,-34.92259 69.84443,0 l 204.8239,204.82315 q 34.92184,34.92183 0,69.84443 l 0.098,-0.0988 q -34.92259,34.9226 -69.84443,0 L 612.52202,682.31297 q -34.92184,-34.9226 0,-69.84443 z"
     p-id="8238"
     id="path2"
     style="stroke-width:0.759947" />
</svg>
