<?xml version="1.0" encoding="UTF-8" standalone="no"?>
<svg
   class="icon"
   viewBox="0 0 1024 1024"
   version="1.1"
   width="128"
   height="128"
   id="svg2"
   sodipodi:docname="selectAll.svg"
   inkscape:version="1.4.3 (0d15f75, 2025-12-25)"
   xmlns:inkscape="http://www.inkscape.org/namespaces/inkscape"
   xmlns:sodipodi="http://sodipodi.sourceforge.net/DTD/sodipodi-0.dtd"
   xmlns="http://www.w3.org/2000/svg"
   xmlns:svg="http://www.w3.org/2000/svg">
  <defs
     id="defs2" />
  <sodipodi:namedview
     id="namedview2"
     pagecolor="#ffffff"
     bordercolor="#000000"
     borderopacity="0.25"
     inkscape:showpageshadow="2"
     inkscape:pageopacity="0.0"
     inkscape:pagecheckerboard="0"
     inkscape:deskcolor="#d1d1d1"
     inkscape:zoom="8.8828125"
     inkscape:cx="63.943712"
     inkscape:cy="64"
     inkscape:window-width="2560"
     inkscape:window-height="1351"
     inkscape:window-x="-9"
     inkscape:window-y="-9"
     inkscape:window-maximized="1"
     inkscape:current-layer="svg2" />
  <path
     d="m 123.38459,196.20293 v 631.09439 c 0,40.20192 32.61666,72.81858 72.81858,72.81858 h 631.09439 c 40.20193,0 72.81858,-32.61666 72.81858,-72.81858 V 196.20293 c 0,-40.20193 -32.61665,-72.81859 -72.81858,-72.81859 H 196.20317 c -40.20192,0 -72.81858,32.61666 -72.81858,72.81859 z M 803.0247,851.57018 H 220.47603 c -26.776,0 -48.54572,-21.76972 -48.54572,-48.54572 V 220.47579 c 0,-26.776 21.76972,-48.54572 48.54572,-48.54572 H 803.0247 c 26.776,0 48.54572,21.76972 48.54572,48.54572 v 582.54867 c 0,26.776 -21.76972,48.54572 -48.54572,48.54572 z"
     id="path1"
     style="stroke-width:0.758897" />
  <path
     d="M 750.15537,390.61337 492.71134,648.05741 c -18.96317,18.96317 -49.68351,18.96317 -68.64668,0 L 321.13255,545.04945 c -9.48158,-9.48158 -9.48158,-24.87968 0,-34.28541 9.48159,-9.48159 24.87969,-9.48159 34.36127,0 l 94.4366,94.4366 c 4.70287,4.70286 12.43984,4.70286 17.14271,0 L 715.94581,356.32796 c 9.48159,-9.48159 24.87968,-9.48159 34.36127,0 9.32988,9.48158 9.32988,24.80383 -0.15171,34.28541 z"
     id="path2"
     style="stroke-width:0.758897" />
</svg>
