<?xml version="1.0" encoding="UTF-8" standalone="no"?>
<svg
   class="icon"
   viewBox="0 0 1024 1024"
   version="1.1"
   width="128"
   height="128"
   id="svg1"
   sodipodi:docname="select.svg"
   inkscape:version="1.4.3 (0d15f75, 2025-12-25)"
   xmlns:inkscape="http://www.inkscape.org/namespaces/inkscape"
   xmlns:sodipodi="http://sodipodi.sourceforge.net/DTD/sodipodi-0.dtd"
   xmlns="http://www.w3.org/2000/svg"
   xmlns:svg="http://www.w3.org/2000/svg">
  <defs
     id="defs1" />
  <sodipodi:namedview
     id="namedview1"
     pagecolor="#ffffff"
     bordercolor="#000000"
     borderopacity="0.25"
     inkscape:showpageshadow="2"
     inkscape:pageopacity="0.0"
     inkscape:pagecheckerboard="0"
     inkscape:deskcolor="#d1d1d1"
     inkscape:zoom="8.8828125"
     inkscape:cx="63.943712"
     inkscape:cy="64"
     inkscape:window-width="2560"
     inkscape:window-height="1351"
     inkscape:window-x="-9"
     inkscape:window-y="-9"
     inkscape:window-maximized="1"
     inkscape:current-layer="svg1" />
  <path
     d="m 512.00044,122.68357 c -215.02474,0 -389.32134,174.2966 -389.32134,389.32134 0,215.02475 174.2966,389.31152 389.32134,389.31152 215.02386,0 389.32046,-174.28677 389.32046,-389.31152 0,-215.02474 -174.29571,-389.32134 -389.32046,-389.32134 z M 725.49167,401.89394 463.94674,663.41297 c -5.69109,5.72861 -13.26226,8.53665 -20.7843,8.50092 -7.47202,0.0357 -15.09409,-2.77231 -20.7843,-8.50092 L 298.50833,539.54404 c -11.38131,-11.35629 -11.38131,-29.939 0,-41.29529 11.38219,-11.35898 29.94168,-11.35898 41.32388,0 L 443.16244,601.61471 684.16868,360.60847 c 11.3822,-11.3563 29.94168,-11.3563 41.32388,0 11.33129,11.34647 11.33129,29.92918 -8.9e-4,41.28547 z"
     id="path1"
     style="stroke-width:0.8728" />
</svg>
