<?xml version="1.0" standalone="no"?><!DOCTYPE svg PUBLIC "-//W3C//DTD SVG 1.1//EN" "http://www.w3.org/Graphics/SVG/1.1/DTD/svg11.dtd"><svg t="1779617447101" class="icon" viewBox="0 0 1024 1024" version="1.1" xmlns="http://www.w3.org/2000/svg" p-id="3204" xmlns:xlink="http://www.w3.org/1999/xlink" width="128" height="128"><path d="M844.70029297 553.80957031c1.85888672-14.32089844 3.06123047-28.64091797 3.06123047-43.9453125 0-15.19453125-1.42119141-29.51542969-3.06123047-43.94443359L939.1484375 392.02314453c8.52626953-6.66914062 10.82197266-18.80332031 5.35605469-28.64179687L854.97646484 208.48203125c-5.35693359-9.83759766-17.49023438-13.44550781-27.32871093-9.83759766l-111.50244141 44.81894532c-23.28398437-17.92705078-48.42597656-32.68476563-75.64570312-43.9453125L623.44707031 80.80332031C622.02675781 69.98046875 612.73320313 62 601.47441406 62H422.30761719c-11.15068359 0-20.55234375 8.08945313-21.97265625 18.80244141l-17.05341797 118.7165039c-27.32871094 11.14980469-52.36171875 26.45507813-75.64570313 43.9444336L196.13251953 198.64355469c-10.38427734-4.04472656-21.97177734 0-27.32871094 9.83935547L79.27578125 363.38134766c-5.90273437 9.83847656-3.06035156 21.97265625 5.35693359 28.64179687l94.44814453 73.89667969c-1.85800781 14.32001953-3.06035156 29.07773437-3.06035156 43.9453125 0 14.86582031 1.4203125 29.51455078 3.06035157 43.94443359L84.52373047 627.70625c-8.52802734 6.66826172-10.82285156 18.80244141-5.35693359 28.64003906l89.52890625 154.90019532c5.35605469 9.83847656 17.49023438 13.44550781 27.32871093 9.83847656l111.50244141-44.82070313c23.28398437 17.92880859 48.42597656 32.68652344 75.64570312 43.9453125l17.05253907 118.71738282c1.42119141 10.71210937 10.71386719 18.8015625 21.97265625 18.8015625h179.16679687c11.15068359 0 20.55234375-8.08945313 21.97265625-18.8015625l17.05341797-118.71650391c27.32871094-11.15068359 52.36171875-26.45507813 75.64658203-43.9453125l111.5015625 44.81982422c10.38427734 4.04472656 21.97265625 0 27.32783203-9.83847656l89.52890625-154.90019532c5.35693359-9.83759766 3.06123047-21.97177734-5.35517578-28.64003906L844.70029297 553.80957031zM511.94550781 666.73144531c-86.46855469 0-156.75820313-70.28964844-156.75820312-156.75732422s70.28964844-156.75820313 156.75820312-156.75820312 156.75820313 70.28964844 156.75820313 156.75820312S598.4140625 666.73144531 511.94550781 666.73144531z m0 0" p-id="3205"></path></svg>