<?xml version="1.0" encoding="UTF-8" standalone="no"?>
<svg
   t="1779617447101"
   class="icon"
   viewBox="0 0 1024 1024"
   version="1.1"
   p-id="3204"
   width="128"
   height="128"
   id="svg1"
   sodipodi:docname="setting-fill.svg"
   inkscape:version="1.4.3 (0d15f75, 2025-12-25)"
   xmlns:inkscape="http://www.inkscape.org/namespaces/inkscape"
   xmlns:sodipodi="http://sodipodi.sourceforge.net/DTD/sodipodi-0.dtd"
   xmlns="http://www.w3.org/2000/svg"
   xmlns:svg="http://www.w3.org/2000/svg">
  <defs
     id="defs1" />
  <sodipodi:namedview
     id="namedview1"
     pagecolor="#ffffff"
     bordercolor="#000000"
     borderopacity="0.25"
     inkscape:showpageshadow="2"
     inkscape:pageopacity="0.0"
     inkscape:pagecheckerboard="0"
     inkscape:deskcolor="#d1d1d1"
     inkscape:zoom="8.8828125"
     inkscape:cx="63.943712"
     inkscape:cy="64"
     inkscape:window-width="2560"
     inkscape:window-height="1351"
     inkscape:window-x="-9"
     inkscape:window-y="-9"
     inkscape:window-maximized="1"
     inkscape:current-layer="svg1" />
  <path
     d="m 808.91496,549.08553 c 1.65906,-12.78143 2.73216,-25.56207 2.73216,-39.22127 0,-13.56115 -1.26842,-26.34258 -2.73216,-39.22049 l 84.29516,-65.95293 c 7.60971,-5.95223 9.65863,-16.782 4.78028,-25.56286 L 818.08647,240.88004 c -4.78108,-8.78008 -15.61007,-12.00015 -24.39093,-8.78008 l -99.51615,40.001 c -20.781,-15.99993 -43.22027,-29.17122 -67.51393,-39.22128 L 611.44603,126.92654 c -1.26763,-9.65942 -9.56214,-16.782 -19.61064,-16.782 H 431.92868 c -9.95201,0 -18.34301,7.21985 -19.61064,16.78121 l -15.22021,105.95471 c -24.39092,9.95123 -46.73293,23.61121 -67.51393,39.2205 l -99.51693,-40.00178 c -9.26799,-3.60993 -19.60986,0 -24.39093,8.78164 L 125.7721,379.12798 c -5.2682,8.78086 -2.73137,19.61063 4.78108,25.56286 l 84.29515,65.95293 c -1.65828,12.78064 -2.73137,25.95193 -2.73137,39.22127 0,13.26778 1.26763,26.3418 2.73137,39.22049 l -84.39242,65.95293 c -7.61128,5.95144 -9.65942,16.78122 -4.78108,25.56129 l 79.90473,138.24873 c 4.78028,8.78086 15.61006,12.00014 24.39092,8.78086 l 99.51615,-40.00257 c 20.781,16.0015 43.22028,29.17279 67.51393,39.22128 l 15.21943,105.9555 c 1.26842,9.56057 9.56215,16.78043 19.61064,16.78043 h 159.90671 c 9.95201,0 18.34301,-7.21986 19.61064,-16.78043 l 15.22021,-105.95471 c 24.39093,-9.95201 46.73293,-23.61121 67.51472,-39.22128 l 99.51536,40.00178 c 9.26799,3.60993 19.61064,0 24.39014,-8.78086 l 79.90473,-138.24873 c 4.78107,-8.78007 2.73215,-19.60985 -4.77951,-25.56129 z m -296.98429,100.783 c -77.17335,0 -139.907,-62.73365 -139.907,-139.90622 0,-77.17257 62.73365,-139.907 139.907,-139.907 77.17335,0 139.907,62.73365 139.907,139.907 0,77.17335 -62.73365,139.90622 -139.907,139.90622 z m 0,0"
     p-id="3205"
     id="path1"
     style="stroke-width:0.892502" />
</svg>
