<?xml version="1.0" encoding="UTF-8" standalone="no"?>
<svg
   t="1779617562379"
   class="icon"
   viewBox="0 0 1024 1024"
   version="1.1"
   p-id="5095"
   width="128"
   height="128"
   id="svg2"
   sodipodi:docname="setting-line.svg"
   inkscape:version="1.4.3 (0d15f75, 2025-12-25)"
   xmlns:inkscape="http://www.inkscape.org/namespaces/inkscape"
   xmlns:sodipodi="http://sodipodi.sourceforge.net/DTD/sodipodi-0.dtd"
   xmlns="http://www.w3.org/2000/svg"
   xmlns:svg="http://www.w3.org/2000/svg">
  <defs
     id="defs2" />
  <sodipodi:namedview
     id="namedview2"
     pagecolor="#ffffff"
     bordercolor="#000000"
     borderopacity="0.25"
     inkscape:showpageshadow="2"
     inkscape:pageopacity="0.0"
     inkscape:pagecheckerboard="0"
     inkscape:deskcolor="#d1d1d1"
     inkscape:zoom="8.8828125"
     inkscape:cx="63.943712"
     inkscape:cy="64"
     inkscape:window-width="2560"
     inkscape:window-height="1351"
     inkscape:window-x="-9"
     inkscape:window-y="-9"
     inkscape:window-maximized="1"
     inkscape:current-layer="svg2" />
  <path
     d="m 511.99831,626.49027 c -63.14138,0 -114.49027,-51.34889 -114.49027,-114.49027 0,-63.14138 51.34889,-114.49027 114.49027,-114.49027 63.14138,0 114.49027,51.34889 114.49027,114.49027 0,63.14138 -51.34889,114.49027 -114.49027,114.49027 m 0,-286.22567 a 171.7354,171.7354 0 0 0 0,343.4708 171.7354,171.7354 0 0 0 0,-343.4708"
     fill="#111111"
     p-id="5096"
     id="path1"
     style="stroke-width:0.894455" />
  <path
     d="m 674.08791,711.95725 a 260.95194,260.95194 0 0 1 -36.23617,24.61541 c -1.08766,0.57245 -2.11807,1.31664 -3.23435,1.91771 a 255.88575,255.88575 0 0 1 -30.45441,13.76746 l -17.48839,65.28807 -8.30055,30.941 c -0.5152,0.11449 -1.03041,0.28622 -1.57424,0.34347 l -7.81396,1.45975 c -3.14848,0.57245 -6.35421,0.97317 -9.53131,1.43113 a 319.45647,319.45647 0 0 1 -47.45622,3.34884 c -4.66548,0 -9.35958,-0.11449 -14.02506,-0.28623 l -7.72809,-0.42933 a 318.36881,318.36881 0 0 1 -25.70307,-2.63328 c -3.14848,-0.45796 -6.32558,-0.85868 -9.50269,-1.43113 a 374.32593,374.32593 0 0 1 -7.81396,-1.43113 l -1.57424,-0.37209 -8.30054,-30.91237 -17.51701,-65.3167 a 256.51545,256.51545 0 0 1 -42.79074,-21.26657 257.14514,257.14514 0 0 1 -27.10557,-19.03401 l -65.25946,17.48839 -30.91237,8.30055 -1.05903,-1.23077 a 212.43669,212.43669 0 0 1 -5.18069,-6.01074 c -2.06082,-2.49017 -4.03578,-5.0662 -6.03936,-7.61361 a 282.50474,282.50474 0 0 1 -15.14134,-20.95171 c -1.43113,-2.08945 -2.77639,-4.26477 -4.15027,-6.41146 a 302.25431,302.25431 0 0 1 -14.02506,-24.30056 389.83936,389.83936 0 0 1 -3.52057,-6.86942 c -1.37389,-2.77638 -2.74777,-5.55277 -4.03579,-8.35778 a 324.60853,324.60853 0 0 1 -6.52594,-15.22721 c -1.20215,-2.97675 -2.4043,-5.95349 -3.5492,-8.93024 l -2.6619,-7.55636 -0.45796,-1.517 22.52596,-22.52596 47.91418,-47.97142 a 261.89649,261.89649 0 0 1 -3.2916,-36.92311 c 0,-1.1449 -0.17173,-2.23256 -0.17173,-3.34884 0,-1.1449 0.17173,-2.20394 0.17173,-3.34884 a 261.89649,261.89649 0 0 1 3.2916,-36.92311 L 209.94436,423.75663 187.4184,401.23067 a 392.35815,392.35815 0 0 1 3.11986,-9.07336 c 1.1449,-3.00537 2.34705,-5.98212 3.5492,-8.98748 a 336.02894,336.02894 0 0 1 28.10736,-54.72635 l 4.17889,-6.4687 a 327.47079,327.47079 0 0 1 15.11272,-20.89448 c 2.00358,-2.54741 3.97854,-5.09481 6.01074,-7.58498 1.71735,-2.00358 3.43471,-4.00716 5.20931,-6.01074 l 1.05903,-1.23077 30.91237,8.30055 65.25946,17.45976 c 8.55814,-6.95528 17.66012,-13.16638 27.10557,-19.034 l 3.63506,-2.20394 a 253.73906,253.73906 0 0 1 39.15568,-19.03401 l 17.51701,-65.3167 8.30054,-30.91237 1.57424,-0.37209 c 2.57603,-0.48659 5.15206,-1.00179 7.78534,-1.43113 3.14848,-0.54383 6.41146,-1.00179 9.61718,-1.43113 5.43829,-0.77281 10.87658,-1.43113 16.40073,-1.97496 a 324.46542,324.46542 0 0 1 17.00181,-1.05903 c 4.63685,-0.20036 9.30233,-0.34347 13.96781,-0.34347 4.66548,0 9.35958,0.14311 13.99644,0.34347 a 324.46542,324.46542 0 0 1 17.0018,1.05903 c 5.43829,0.51521 10.93382,1.20215 16.37211,2.00358 3.23435,0.40072 6.44008,0.85868 9.6458,1.37389 l 7.78534,1.45975 1.57424,0.34347 8.30055,30.94099 17.45976,65.28808 c 10.47586,4.03578 20.72274,8.47228 30.48304,13.76745 1.11628,0.60108 2.14669,1.34526 3.23435,1.94634 12.79429,7.21289 24.90163,15.39894 36.23617,24.61541 l 65.25945,-17.51701 30.88375,-8.27193 1.08766,1.20215 c 1.71735,2.00358 3.49195,4.00716 5.15206,6.03936 2.06083,2.46154 4.00716,5.03757 6.01074,7.55636 3.43471,4.35063 6.75493,8.75851 9.96065,13.28087 1.7746,2.51879 3.49196,5.09482 5.20931,7.64223 l 4.1789,6.4687 a 319.7427,319.7427 0 0 1 17.54563,31.1986 355.2633,355.2633 0 0 1 10.5331,23.55637 c 1.20215,2.97674 2.43292,5.95349 3.57783,8.98748 0.91592,2.49017 1.77459,4.98033 2.63327,7.49912 0.17174,0.5152 0.28623,1.03041 0.48659,1.54562 l -22.52597,22.52596 -47.9428,47.9428 c 1.71736,10.7907 2.77639,21.78177 3.11986,33.00182 0.0573,2.43291 0.34348,4.86583 0.34348,7.29875 0,2.43292 -0.28623,4.86584 -0.34348,7.29875 a 260.40812,260.40812 0 0 1 -3.14848,32.9732 l 47.97142,47.97142 22.52597,22.52596 -0.48659,1.517 c -0.85868,2.51879 -1.71735,5.00895 -2.63327,7.49911 -1.14491,3.034 -2.34706,6.01074 -3.57783,9.01611 a 336.60139,336.60139 0 0 1 -10.5331,23.55637 389.83936,389.83936 0 0 1 -10.24688,19.17712 c -2.34705,4.06441 -4.80859,8.04295 -7.29875,12.02148 -1.37389,2.11807 -2.74777,4.29339 -4.15028,6.38284 a 282.50474,282.50474 0 0 1 -15.16996,20.98034 c -2.00358,2.57603 -4.00716,5.09481 -6.01074,7.55635 -1.71735,2.06083 -3.4347,4.03579 -5.18068,6.03937 -0.34347,0.42934 -0.71556,0.80143 -1.08766,1.20214 l -30.91237,-8.27192 z M 401.17173,836.57991 c -2.34705,-0.80143 -4.72272,-1.54562 -7.04115,-2.40429 l -2.97675,-1.08766 -2.97674,-1.1449 c 4.37925,1.71735 8.81575,3.20572 13.25224,4.6941 z m -106.81942,-59.3632 -2.37567,-2.00358 c -1.91771,-1.63149 -3.77818,-3.32022 -5.66727,-4.98033 a 299.56379,299.56379 0 0 0 10.59035,9.01611 l -2.57603,-2.00358 z m 557.9397,-219.73545 -0.17173,-0.14311 -0.0859,-0.11449 h -0.0286 L 825.902,531.09125 c 0.3721,-6.35421 0.94455,-12.65117 0.94455,-19.09125 0,-6.4687 -0.57245,-12.76566 -0.94455,-19.11987 l 26.10379,-26.10379 0.11449,-0.11449 0.17173,-0.17173 48.94459,-48.94459 a 397.16674,397.16674 0 0 0 -16.45797,-51.32026 c -7.27014,-18.51881 -15.48481,-36.83725 -25.76031,-54.58324 -10.27551,-17.74599 -21.98214,-34.06085 -34.37571,-49.60291 a 401.63186,401.63186 0 0 0 -36.20755,-39.92848 l -66.86231,17.91773 -0.0573,0.0286 -0.20036,0.0572 -0.14311,0.0286 h -0.0286 l -35.263,9.44544 a 311.67113,311.67113 0 0 0 -33.51703,-19.11987 l -9.50269,-35.49198 -0.0286,-0.0573 -0.0286,-0.14311 -0.0572,-0.20036 v -0.0572 l -17.91773,-66.86232 a 400.42971,400.42971 0 0 0 -52.66552,-11.39178 400.83043,400.83043 0 0 0 -60.16464,-4.98033 c -20.49376,0 -40.47231,2.00358 -60.13601,4.98033 -17.97497,2.71914 -35.57785,6.38283 -52.66553,11.39178 l -17.91772,66.86232 -0.0286,0.0572 -0.0572,0.20036 -0.0286,0.14311 v 0.0573 l -9.53132,35.49198 c -11.56352,5.78176 -22.81218,12.0501 -33.51702,19.17712 l -35.23438,-9.44545 -0.0573,-0.0572 h -0.14311 l -0.20036,-0.0859 h -0.0572 l -66.83369,-17.94635 c -12.90878,12.3077 -24.90163,25.76031 -36.20755,39.92848 -12.42219,15.54206 -24.15744,31.85692 -34.40432,49.60291 -10.24688,17.74599 -18.49018,36.06443 -25.76031,54.58324 a 402.9485,402.9485 0 0 0 -16.4866,51.32026 l 48.94459,48.94459 v 0.0572 l 0.20036,0.14312 0.0859,0.11449 v 0.0286 l 26.13241,26.10378 c -0.3721,6.32559 -0.94455,12.62255 -0.94455,19.06263 0,6.44008 0.57245,12.70842 0.97317,19.06263 l -26.10378,26.10378 -0.0286,0.0286 -0.0859,0.11449 -0.17174,0.17174 -0.0286,0.0286 -48.97321,48.94459 c 4.20752,17.28803 9.84616,34.40433 16.45797,51.29164 7.27014,18.5188 15.51344,36.86587 25.76031,54.61186 10.24688,17.74599 21.98214,34.06085 34.40433,49.57429 11.33454,14.19679 23.29877,27.62077 36.20755,39.92848 l 66.83369,-17.91773 h 0.0573 l 0.20036,-0.0572 0.14311,-0.0572 h 0.0572 l 35.20576,-9.44545 c 10.73346,7.0984 21.98213,13.33812 33.54565,19.11988 l 9.53131,35.5206 v 0.20036 l 0.0859,0.20036 v 0.0286 l 17.94635,66.86232 c 17.08767,5.00895 34.69055,8.70126 52.66553,11.39178 a 400.42971,400.42971 0 0 0 60.10739,5.00895 c 20.551,0 40.50093,-2.00358 60.19325,-5.00895 a 395.8501,395.8501 0 0 0 52.66553,-11.39178 l 17.91773,-66.86232 0.0572,-0.22898 0.0573,-0.17173 9.50269,-35.49199 c 11.56352,-5.81038 22.81218,-12.07872 33.4884,-19.17712 l 35.29163,9.44545 v 0.0286 l 0.17173,0.0286 0.20036,0.0572 h 0.0572 l 66.86231,17.91773 c 12.88016,-12.30771 24.87301,-25.73169 36.20755,-39.92848 12.39357,-15.54206 24.15745,-31.8283 34.40433,-49.57429 10.24687,-17.74599 18.46155,-36.06443 25.73168,-54.61186 6.64044,-16.88731 12.27908,-33.97499 16.4866,-51.29164 l -48.94459,-48.94459 z"
     fill="#111111"
     p-id="5097"
     id="path2"
     style="stroke-width:0.894455" />
</svg>
