<?xml version="1.0" encoding="UTF-8" standalone="no"?>
<svg
   t="1779625958660"
   class="icon"
   viewBox="0 0 1024 1024"
   version="1.1"
   p-id="37615"
   width="128"
   height="128"
   id="svg2"
   sodipodi:docname="start.svg"
   inkscape:version="1.4.3 (0d15f75, 2025-12-25)"
   xmlns:inkscape="http://www.inkscape.org/namespaces/inkscape"
   xmlns:sodipodi="http://sodipodi.sourceforge.net/DTD/sodipodi-0.dtd"
   xmlns="http://www.w3.org/2000/svg"
   xmlns:svg="http://www.w3.org/2000/svg">
  <defs
     id="defs2" />
  <sodipodi:namedview
     id="namedview2"
     pagecolor="#ffffff"
     bordercolor="#000000"
     borderopacity="0.25"
     inkscape:showpageshadow="2"
     inkscape:pageopacity="0.0"
     inkscape:pagecheckerboard="0"
     inkscape:deskcolor="#d1d1d1"
     inkscape:zoom="8.8828125"
     inkscape:cx="63.943712"
     inkscape:cy="64"
     inkscape:window-width="2560"
     inkscape:window-height="1351"
     inkscape:window-x="-9"
     inkscape:window-y="-9"
     inkscape:window-maximized="1"
     inkscape:current-layer="svg2" />
  <path
     id="path1"
     style="stroke-width:0.802513"
     d="m 421.26562,314.07617 c -9.67545,0.19879 -19.07143,3.9553 -26.70083,9.81476 -9.45046,7.00648 -17.08114,16.83014 -20.31822,28.24047 -1.52489,5.26125 -1.95762,10.7756 -1.79345,16.23305 0.003,96.54486 -0.008,193.08997 0.0193,289.63467 0.21072,11.58101 5.0665,22.85046 12.78831,31.40883 5.27257,5.94121 11.70006,10.8872 18.85552,14.34719 10.60412,4.9037 23.06465,5.19542 34.08196,1.49179 4.11846,-1.32281 8.00117,-3.28391 11.65213,-5.58936 16.49519,-9.63856 33.03394,-19.2024 49.54491,-28.81493 67.64089,-39.31342 135.28533,-78.62189 202.91431,-117.95509 9.81478,-6.55029 18.05854,-15.87681 22.09602,-27.07022 3.18548,-8.82037 3.90815,-18.73345 0.97725,-27.72358 -2.51371,-7.69022 -7.44944,-14.38124 -13.3372,-19.84418 -4.23488,-3.94923 -8.88289,-7.46593 -13.84429,-10.45078 -83.90066,-48.77127 -167.80996,-97.52854 -251.70523,-146.30856 -7.43775,-4.86565 -16.31329,-7.64606 -25.23047,-7.41406 z m 8.75,48.99414 c 85.05666,49.43516 170.11375,98.86957 255.17383,148.29883 -89.06771,51.76273 -178.13309,103.52946 -267.19922,155.29492 0.001,-103.52669 0.005,-207.05338 0.006,-310.58008 4.00651,2.32878 8.01302,4.65756 12.01953,6.98633 z" />
  <path
     id="path2"
     style="stroke-width:0.802513"
     d="m 509.56836,121.60352 c -21.22491,0.12663 -42.43856,1.96108 -63.36914,5.48632 -0.24532,0.0478 -1.18178,0.2061 -1.69335,0.29646 -39.70263,6.84154 -78.31739,19.93795 -113.99116,38.65886 -36.61781,19.18049 -70.14599,44.23644 -98.91331,73.92166 -29.39795,30.28528 -53.85226,65.36479 -72.02302,103.46367 -16.57479,34.67693 -27.94481,71.83184 -33.61231,109.84639 -8.30443,55.45321 -4.7702,112.69228 10.64941,166.61998 12.38526,43.52442 32.53065,84.80799 59.09662,121.43479 26.43692,36.48371 59.24763,68.33272 96.5082,93.66366 35.07265,23.87942 74.07673,41.98079 114.98417,53.25857 2.92055,0.81297 6.27092,1.68731 8.94928,2.36179 19.39591,4.86761 39.16551,8.23803 59.07672,10.08941 0.38474,0.0311 1.19595,0.10702 1.74394,0.15529 2.66636,0.23724 5.33566,0.44011 8.00606,0.62596 0.37786,0.0276 1.19819,0.0781 1.74545,0.11444 1.85732,0.12206 3.71608,0.22034 5.57486,0.3172 0.37815,0.0139 1.19947,0.0551 1.74729,0.0795 1.86102,0.0849 3.72283,0.15146 5.58474,0.21351 0.37879,0.0139 1.20025,0.0341 1.74851,0.0504 1.84069,0.0516 3.97872,0.087 5.63274,0.11069 5.68894,0.0694 11.3792,0.0153 17.06602,-0.1533 0.40417,-0.0167 1.20001,-0.0399 1.75411,-0.0591 2.67424,-0.0918 5.34737,-0.21532 8.01933,-0.35887 0.38629,-0.0201 1.19869,-0.0697 1.7481,-0.10112 9.18011,-0.54436 18.34082,-1.4114 27.46088,-2.59224 0.38185,-0.0477 1.19031,-0.15783 1.73547,-0.22942 8.30494,-1.1122 16.57327,-2.49621 24.78992,-4.13777 0.3663,-0.0716 1.17654,-0.23984 1.71282,-0.34846 1.82452,-0.3721 3.64541,-0.76154 5.46491,-1.15739 0.36526,-0.085 1.17191,-0.26157 1.70616,-0.38163 5.7875,-1.29976 11.54539,-2.73164 17.2665,-4.29806 0.57692,-0.15607 1.47836,-0.40819 2.17975,-0.6011 35.68845,-9.98257 69.92164,-25.12647 101.33584,-44.78241 35.48106,-22.18076 67.33501,-50.13449 93.97543,-82.39953 27.83715,-33.66215 49.9452,-72.04955 65.05746,-113.03447 13.52577,-36.53868 21.40308,-75.13485 23.52127,-114.03111 0.0416,-0.72877 0.0645,-1.0878 0.0889,-1.68628 0.0565,-1.21754 0.11297,-2.43507 0.16946,-3.6526 0.0112,-0.24484 0.0436,-1.19872 0.063,-1.7168 1.07072,-28.87536 -1.02047,-57.86749 -6.24462,-86.28711 -0.0567,-0.27686 -0.22322,-1.17924 -0.32213,-1.6965 -0.53687,-2.86998 -1.11937,-5.73117 -1.71889,-8.58866 -0.0541,-0.26407 -0.25468,-1.17263 -0.36513,-1.68462 -2.34557,-10.82558 -5.16377,-21.54744 -8.41612,-32.13569 -0.0819,-0.2441 -0.35915,-1.14475 -0.51627,-1.64162 -14.83457,-47.48849 -38.98261,-92.02176 -70.55247,-130.46401 -30.3127,-36.96024 -67.47948,-68.27918 -109.05799,-91.8643 -31.47529,-17.8762 -65.46482,-31.31317 -100.65727,-39.78511 -1.52229,-0.37081 -3.05057,-0.71667 -4.57538,-1.07699 -0.24652,-0.0503 -1.17091,-0.26102 -1.67852,-0.37311 -16.47034,-3.697 -33.1862,-6.28506 -49.9953,-7.8222 -0.32631,-0.0321 -1.19603,-0.10486 -1.73069,-0.15255 -12.21178,-1.05976 -24.473,-1.54419 -36.73025,-1.4744 z m 2.42578,45.52929 c 28.28916,-0.003 56.57975,3.44482 84.02219,10.32346 39.13849,9.765 76.4837,26.58759 109.81316,49.29992 35.6168,24.22834 66.63269,55.18348 90.95038,90.73789 18.44628,26.91809 33.02554,56.47818 43.14749,87.50088 18.92266,57.84642 22.02232,120.72948 9.13959,180.19758 -7.75426,35.98636 -21.40282,70.68522 -40.18818,102.34096 -19.15752,32.34608 -43.64242,61.52087 -72.15404,86.02189 -29.80891,25.66996 -64.04168,46.18957 -100.75121,60.33441 -35.6256,13.77494 -73.57881,21.43532 -111.7443,22.76116 -34.84978,1.22858 -69.88899,-2.78947 -103.52265,-12.01564 -41.77215,-11.40153 -81.29104,-30.89613 -115.87189,-56.94159 -40.97293,-30.80508 -74.98689,-70.82357 -98.6939,-116.27927 -17.8811,-34.1968 -29.93764,-71.43178 -35.42845,-109.63108 -6.43913,-44.49474 -4.18723,-90.24723 6.75821,-133.86055 9.6728,-38.71395 26.23627,-75.67871 48.5925,-108.72652 26.01435,-38.55791 59.91388,-71.75755 98.97641,-97.00356 38.28875,-24.77806 81.55296,-41.85742 126.47671,-49.76085 19.95303,-3.53478 40.21527,-5.29155 60.47798,-5.29909 z" />
</svg>
