<?xml version="1.0" encoding="UTF-8" standalone="no"?>
<svg
   t="1779625958660"
   class="icon"
   viewBox="0 0 1024 1024"
   version="1.1"
   p-id="37615"
   width="128"
   height="128"
   id="svg2"
   sodipodi:docname="play.svg"
   inkscape:version="1.4.3 (0d15f75, 2025-12-25)"
   xmlns:inkscape="http://www.inkscape.org/namespaces/inkscape"
   xmlns:sodipodi="http://sodipodi.sourceforge.net/DTD/sodipodi-0.dtd"
   xmlns="http://www.w3.org/2000/svg"
   xmlns:svg="http://www.w3.org/2000/svg">
  <defs
     id="defs2" />
  <sodipodi:namedview
     id="namedview2"
     pagecolor="#ffffff"
     bordercolor="#000000"
     borderopacity="0.25"
     inkscape:showpageshadow="2"
     inkscape:pageopacity="0.0"
     inkscape:pagecheckerboard="0"
     inkscape:deskcolor="#d1d1d1"
     inkscape:zoom="8.8828125"
     inkscape:cx="63.943712"
     inkscape:cy="64"
     inkscape:window-width="2560"
     inkscape:window-height="1351"
     inkscape:window-x="-9"
     inkscape:window-y="-9"
     inkscape:window-maximized="1"
     inkscape:current-layer="svg2" />
  <path
     id="path1"
     style="stroke-width:0.802513"
     d="m 421.14453,306.07617 c -10.9324,0.2158 -21.62185,4.21512 -30.38235,10.68471 -10.39048,7.45004 -18.90938,17.80756 -23.17424,29.94308 -2.39451,6.66605 -3.33518,13.79561 -3.13482,20.86049 0.003,96.75128 -0.008,193.50266 0.0124,290.25387 0.15279,12.63899 4.99485,25.0438 13.00072,34.7721 5.91901,7.28379 13.37287,13.31125 21.6885,17.65347 10.37112,5.26537 22.51031,6.70535 33.90279,4.57867 7.08907,-1.34757 13.964,-3.94345 20.06798,-7.8099 6.64871,-3.93451 13.35763,-7.76867 20.02785,-11.66754 77.77463,-45.20372 155.55542,-90.39778 233.32057,-135.61722 11.19869,-7.40354 20.56156,-17.99387 25.26534,-30.67359 3.45394,-9.24578 4.50947,-19.48788 2.42001,-29.17131 -2.07142,-9.36829 -7.19503,-17.86672 -13.84477,-24.70605 -5.04826,-5.25174 -10.84429,-9.75391 -16.986,-13.65192 -84.17144,-48.92516 -168.34844,-97.8412 -252.51641,-146.77206 -8.75183,-5.71044 -19.18751,-8.93603 -29.66758,-8.6768 z m 128.51563,135.78321 c 39.86914,23.16992 79.73828,46.33984 119.60742,69.50976 -81.09245,47.13086 -162.1849,94.26172 -243.27735,141.39258 -0.003,-94.25846 -0.001,-188.51693 0.006,-282.77539 41.22136,23.95768 82.44271,47.91536 123.66407,71.87305 z" />
  <path
     id="path2"
     style="stroke-width:0.802513"
     d="m 509.47852,113.60352 c -46.1322,0.26685 -92.23382,8.47774 -135.53254,24.43003 -43.86715,16.12004 -84.82528,40.09131 -120.3957,70.40205 -34.87947,29.69923 -64.60989,65.43841 -87.37436,105.19731 -20.29043,35.37372 -35.08025,73.89563 -43.63155,113.77047 -9.6723,45.02855 -11.49924,91.7182 -5.50088,137.37673 4.93767,37.55155 15.24163,74.40011 30.60874,109.02126 19.09344,43.11797 45.95636,82.77281 78.89527,116.51666 33.4259,34.31885 73.10586,62.52718 116.52072,82.78528 40.55535,18.9748 84.36402,30.92352 128.91571,35.3264 52.94812,5.24076 106.95764,0.0443 157.82247,-15.63424 46.11627,-14.16241 89.58062,-36.87256 127.58434,-66.58375 40.89216,-31.91337 75.46663,-71.89341 101.09225,-116.99636 20.71575,-36.40064 35.6204,-76.10237 43.91886,-117.15652 9.01615,-44.50158 10.4147,-90.52969 4.19283,-135.50411 C 901.3865,418.86731 890.75369,381.92935 875.03981,347.27729 855.75335,304.66664 828.85925,265.51974 796.0167,232.21901 763.96139,199.65618 726.26352,172.65683 685.07578,152.86434 646.33067,134.1905 604.51411,121.93569 561.83012,116.66796 c -17.35956,-2.15359 -34.85921,-3.1721 -52.3516,-3.06444 z M 512,175.13281 c 4.17793,0.0113 8.35608,0.076 12.53125,0.23047 1.20927,0.0506 2.67168,0.0973 3.97812,0.1692 39.74268,1.90242 79.14663,10.89418 115.72587,26.56361 40.44004,17.2707 77.40953,42.58561 108.18383,73.99178 30.195,30.73937 54.46264,67.29606 70.92995,107.12107 3.86741,9.32497 7.30314,18.82804 10.31504,28.46294 0.0714,0.22016 0.35168,1.14647 0.50365,1.63906 0.17318,0.571 0.4709,1.52629 0.55581,1.82406 8.11864,27.04399 12.75526,55.12088 13.87414,83.3318 0.0451,1.20939 0.10239,2.67125 0.13402,3.97918 0.20218,7.36018 0.17295,14.72712 -0.095,22.08527 -0.0506,1.20927 -0.0973,2.67168 -0.1692,3.97812 -1.90713,39.84254 -10.93958,79.34467 -26.68151,116.00173 -17.26803,40.33236 -42.53913,77.20363 -73.87388,107.90797 -11.0341,10.83365 -22.81649,20.90281 -35.22072,30.13562 -0.17715,0.12318 -0.96648,0.70926 -1.38012,1.01126 -29.91407,22.03056 -63.5148,39.04145 -98.98317,50.09811 -0.22016,0.0714 -1.14647,0.35168 -1.63906,0.50365 -0.571,0.17318 -1.52629,0.4709 -1.82406,0.55581 -27.04392,8.11917 -55.12093,12.75437 -83.3318,13.87414 -1.20939,0.0451 -2.67125,0.10239 -3.97918,0.13402 -7.36018,0.20218 -14.72712,0.17295 -22.08527,-0.095 -1.20927,-0.0506 -2.67168,-0.0973 -3.97812,-0.1692 -39.84258,-1.90701 -79.34454,-10.94031 -116.00173,-26.68151 -38.26774,-16.3849 -73.42087,-39.97239 -103.14571,-69.11081 -12.64853,-12.39412 -24.32728,-25.776 -34.89788,-39.98379 -0.12318,-0.17715 -0.70926,-0.96648 -1.01126,-1.38012 -22.03045,-29.91415 -39.04186,-63.51462 -50.09811,-98.98317 -0.0713,-0.22016 -0.35168,-1.14647 -0.50365,-1.63906 -0.17318,-0.571 -0.4709,-1.52629 -0.55581,-1.82406 -8.11917,-27.04392 -12.75437,-55.12093 -13.87414,-83.3318 -0.0451,-1.20939 -0.10239,-2.67125 -0.13402,-3.97918 -0.20218,-7.36018 -0.17295,-14.72712 0.095,-22.08527 0.0506,-1.20927 0.0973,-2.67168 0.1692,-3.97812 1.90713,-39.84254 10.93958,-79.34467 26.68151,-116.00173 17.26803,-40.33236 42.53913,-77.20363 73.87388,-107.90797 11.0341,-10.83365 22.81649,-20.90281 35.22072,-30.13562 0.17715,-0.12318 0.96648,-0.70926 1.38012,-1.01126 29.91407,-22.03056 63.5148,-39.04145 98.98317,-50.09811 0.22016,-0.0713 1.14647,-0.35168 1.63906,-0.50365 0.571,-0.17318 1.52629,-0.4709 1.82406,-0.55581 27.04392,-8.11917 55.12093,-12.75437 83.3318,-13.87414 1.20939,-0.0452 2.67121,-0.1029 3.9792,-0.13306 3.18382,-0.0907 6.36898,-0.12639 9.554,-0.13647 z" />
</svg>
