<?xml version="1.0" encoding="UTF-8" standalone="no"?>
<svg
   t="1779626477686"
   class="icon"
   viewBox="0 0 1024 1024"
   version="1.1"
   p-id="41689"
   width="128"
   height="128"
   id="svg1"
   sodipodi:docname="stop.svg"
   inkscape:version="1.4.3 (0d15f75, 2025-12-25)"
   xmlns:inkscape="http://www.inkscape.org/namespaces/inkscape"
   xmlns:sodipodi="http://sodipodi.sourceforge.net/DTD/sodipodi-0.dtd"
   xmlns="http://www.w3.org/2000/svg"
   xmlns:svg="http://www.w3.org/2000/svg">
  <defs
     id="defs1" />
  <sodipodi:namedview
     id="namedview1"
     pagecolor="#ffffff"
     bordercolor="#000000"
     borderopacity="0.25"
     inkscape:showpageshadow="2"
     inkscape:pageopacity="0.0"
     inkscape:pagecheckerboard="0"
     inkscape:deskcolor="#d1d1d1"
     inkscape:zoom="8.8828125"
     inkscape:cx="63.943712"
     inkscape:cy="64"
     inkscape:window-width="2560"
     inkscape:window-height="1351"
     inkscape:window-x="-9"
     inkscape:window-y="-9"
     inkscape:window-maximized="1"
     inkscape:current-layer="svg1" />
  <path
     id="path1"
     style="stroke-width:0.816984"
     d="m 509.5625,122.0332 c -16.90462,0.10202 -33.80088,1.29987 -50.55273,3.56836 -0.23164,0.0377 -1.18737,0.16866 -1.69828,0.24232 -33.44849,4.67949 -66.2792,13.75446 -97.37204,26.94518 -0.21514,0.098 -1.10148,0.47447 -1.57545,0.67985 -28.71787,12.31974 -55.93563,28.1251 -80.88939,46.93343 -0.18815,0.13846 -0.95417,0.72649 -1.36522,1.03835 -21.68537,16.49082 -41.6319,35.26114 -59.43556,55.88158 -0.15107,0.17135 -0.77917,0.91149 -1.11431,1.30233 -3.46753,4.03819 -6.83153,8.16368 -10.13569,12.33634 -0.12849,0.17493 -0.73618,0.94617 -1.04978,1.35144 -28.43323,36.37649 -50.30813,77.86184 -64.22823,121.88519 -11.56484,36.44877 -17.60869,74.62149 -18.08723,112.85126 5e-5,0.36196 -0.0106,1.20068 -0.0147,1.74523 -0.0236,2.79648 -0.0155,5.59317 0.0186,8.38953 0.004,0.36192 0.02,1.20057 0.0285,1.74506 0.10781,6.17313 0.36296,12.34348 0.75661,18.50494 0.0286,0.36086 0.0819,1.19794 0.11998,1.74118 0.1333,1.9487 0.28555,3.89604 0.44447,5.84281 0.0289,0.35957 0.10419,1.1962 0.15085,1.73848 0.69409,7.82925 1.61888,15.63825 2.78079,23.41191 0.0588,0.4057 0.18028,1.18704 0.26307,1.73653 0.29228,1.92604 0.61133,3.84789 0.93224,5.76933 0.0628,0.38659 0.20363,1.18332 0.2963,1.72691 0.11135,0.65891 0.17966,1.01419 0.30195,1.70272 0.68439,3.84513 1.42998,7.67925 2.22988,11.50201 0.0718,0.31567 0.25276,1.17368 0.36643,1.69733 0.10888,0.51309 0.30662,1.41419 0.36013,1.68548 1.52478,6.90958 3.23218,13.77861 5.12109,20.59766 0.0827,0.27356 0.32708,1.15479 0.47189,1.66186 1.43261,5.10238 2.99263,10.16825 4.63358,15.20728 0.0819,0.25536 0.37866,1.13864 0.54322,1.63556 0.9271,2.80367 1.90008,5.59204 2.88452,8.37616 0.091,0.23567 0.41039,1.12729 0.58934,1.6156 6.21283,17.13438 13.64284,33.82729 22.20753,49.91565 0.14274,0.27248 0.56847,1.05733 0.81982,1.52644 19.46722,36.19544 44.72173,69.25478 74.43995,97.63762 0.14663,0.12957 0.87225,0.82148 1.24298,1.16871 26.49514,25.09015 56.53325,46.42591 88.9328,63.2102 0.19465,0.0924 1.06795,0.54458 1.52479,0.77597 20.85235,10.70035 42.69025,19.47121 65.13341,26.22207 0.26113,0.0721 1.15115,0.33891 1.65417,0.4859 31.9646,9.45022 65.15117,14.74286 98.46693,15.75434 0.2945,0.003 1.19992,0.0312 1.72905,0.0439 6.24437,0.17903 12.9361,0.18107 18.90216,0.0589 41.84177,-0.88197 83.55335,-8.46511 122.95777,-22.58884 14.61037,-5.22546 28.90187,-11.33853 42.78406,-18.26984 0.24635,-0.12081 1.07122,-0.54094 1.54004,-0.77685 39.62974,-19.99853 75.76053,-46.86915 106.40225,-78.98044 30.13791,-31.52249 54.9459,-68.13035 73.00568,-107.82902 11.33447,-24.87937 20.02895,-50.96027 25.86844,-77.66955 0.0727,-0.3239 0.25286,-1.17371 0.36676,-1.69921 8.68459,-40.55281 10.83128,-82.48616 6.4516,-123.72267 -0.0345,-0.34124 -0.13132,-1.19348 -0.18971,-1.73053 -0.38428,-3.50141 -0.82333,-6.99661 -1.30248,-10.48626 -0.0441,-0.33049 -0.16824,-1.1888 -0.24303,-1.72162 -0.20174,-1.45739 -0.42903,-2.91105 -0.64564,-4.36627 -0.0562,-0.32992 -0.18794,-1.18586 -0.2731,-1.7174 -1.83316,-11.58002 -4.20132,-23.07508 -7.07846,-34.44081 -0.0865,-0.31877 -0.29968,-1.16263 -0.43473,-1.68271 -9.82787,-38.15057 -25.58346,-74.75175 -46.41098,-108.18643 -0.11223,-0.18534 -0.63911,-1.01425 -0.91151,-1.44819 -9.54744,-15.18221 -20.15537,-29.69578 -31.692,-43.42681 -0.14609,-0.17681 -0.77646,-0.91382 -1.10942,-1.30679 -0.53254,-0.62625 -1.06507,-1.2525 -1.59761,-1.87876 -0.16161,-0.17753 -0.7869,-0.90519 -1.12727,-1.29481 -12.40412,-14.31189 -25.85719,-27.71224 -40.19305,-40.088 -0.17149,-0.1509 -0.91189,-0.77869 -1.30292,-1.11361 -29.95238,-25.63573 -63.81569,-46.69213 -100.07012,-62.18522 -0.25746,-0.11209 -1.10561,-0.46688 -1.59012,-0.67226 -35.04412,-14.82305 -72.29084,-24.40115 -110.12966,-28.38581 -3.00368,-0.32315 -6.01259,-0.595 -9.02241,-0.85403 -0.27608,-0.0169 -1.19649,-0.0929 -1.7203,-0.13253 -11.02999,-0.87022 -22.09674,-1.25738 -33.16056,-1.19365 z m 2.44336,47.92383 c 32.73173,-0.001 65.47119,4.64279 96.86809,13.91346 38.03031,11.19409 74.05154,29.13406 105.93945,52.68344 36.00084,26.51592 66.72082,60.15562 89.89347,98.39269 21.45504,35.34298 36.38313,74.63221 43.77657,115.31289 8.03281,44.14114 7.36029,89.85818 -2.03162,133.73331 -8.76923,41.02016 -25.24132,80.37212 -48.286,115.42093 -23.50289,35.845 -53.79231,67.21741 -88.79338,91.9599 -35.21878,24.97226 -75.22843,43.16801 -117.21827,53.22279 -47.68231,11.45774 -97.82367,12.48121 -145.95521,3.12293 -40.2841,-7.8355 -79.11278,-23.06116 -113.98918,-44.69025 -35.12358,-21.73175 -66.26122,-49.87161 -91.43583,-82.61542 -22.86552,-29.69072 -40.82223,-63.15893 -52.82717,-98.66264 -11.60135,-34.20757 -17.63809,-70.27488 -17.96976,-106.38874 -0.34792,-35.03128 4.63681,-70.12536 14.91251,-103.62421 12.53263,-41.01098 32.9462,-79.58138 59.73599,-113.06197 23.47952,-29.40452 51.82011,-54.91763 83.53977,-75.16297 34.42179,-22.00566 72.83469,-37.753 112.81602,-46.17087 23.33054,-4.93303 47.1802,-7.38361 71.02455,-7.38527 z m 128.10156,161.21485 c -86.52833,0.0186 -173.05684,-0.003 -259.5851,0.0154 -11.74318,0.17773 -23.36662,4.63117 -32.1909,12.38836 -9.79401,8.52834 -16.09079,20.98053 -16.98231,33.95224 -0.34062,4.44794 -0.11243,8.91256 -0.17713,13.36826 0.004,84.22444 -0.004,168.44905 0.0178,252.67338 0.20025,12.03097 4.90065,23.92564 13.02122,32.81111 8.50056,9.39272 20.66485,15.39607 33.31676,16.27095 4.51489,0.33912 9.04585,0.11226 13.56831,0.17649 84.15647,-0.004 168.31311,0.004 252.46947,-0.0179 12.03103,-0.19874 23.92388,-4.89847 32.81129,-13.01611 9.36679,-8.48239 15.37007,-20.60394 16.26798,-33.22397 0.34815,-4.54512 0.11826,-9.10755 0.18308,-13.66068 -0.006,-84.15569 0.002,-168.31155 -0.0177,-252.46713 -0.19951,-12.19109 -5.02244,-24.24151 -13.33551,-33.16812 -8.50867,-9.21621 -20.56712,-15.09282 -33.09831,-15.93314 -2.08495,-0.16293 -4.17838,-0.20658 -6.26899,-0.16911 z m 4.77735,47.93164 c 0.0241,88.5957 3.9e-4,177.1914 0.004,265.7871 -88.59245,0.001 -177.18489,0.003 -265.77734,0.004 -0.009,-88.59505 -0.0102,-177.1901 -0.002,-265.78515 88.59179,-0.002 177.18359,-0.004 265.77539,-0.006 z" />
</svg>
