<?xml version="1.0" encoding="UTF-8" standalone="no"?>
<svg
   t="1779626477686"
   class="icon"
   viewBox="0 0 1024 1024"
   version="1.1"
   p-id="41689"
   width="128"
   height="128"
   id="svg1"
   sodipodi:docname="stop.svg"
   inkscape:version="1.4.3 (0d15f75, 2025-12-25)"
   xmlns:inkscape="http://www.inkscape.org/namespaces/inkscape"
   xmlns:sodipodi="http://sodipodi.sourceforge.net/DTD/sodipodi-0.dtd"
   xmlns="http://www.w3.org/2000/svg"
   xmlns:svg="http://www.w3.org/2000/svg">
  <defs
     id="defs1" />
  <sodipodi:namedview
     id="namedview1"
     pagecolor="#ffffff"
     bordercolor="#000000"
     borderopacity="0.25"
     inkscape:showpageshadow="2"
     inkscape:pageopacity="0.0"
     inkscape:pagecheckerboard="0"
     inkscape:deskcolor="#d1d1d1"
     inkscape:zoom="8.8828125"
     inkscape:cx="63.943712"
     inkscape:cy="64"
     inkscape:window-width="2560"
     inkscape:window-height="1351"
     inkscape:window-x="-9"
     inkscape:window-y="-9"
     inkscape:window-maximized="1"
     inkscape:current-layer="svg1" />
  <path
     id="path1"
     style="stroke-width:0.816984"
     d="m 509.47656,114.0332 c -42.39196,0.251 -84.7501,7.25433 -124.91425,20.83854 -42.80964,14.45566 -83.09451,36.32183 -118.58072,64.28871 -37.80398,29.75429 -70.1767,66.38982 -95.01301,107.59445 -22.90706,37.96425 -39.39459,79.79671 -48.46888,123.2012 -11.30994,53.97683 -11.2896,110.29549 0.0335,164.26851 7.89446,37.56162 21.28816,73.96086 39.63845,107.67297 23.39646,43.02663 54.81095,81.66598 92.12883,113.38217 36.75553,31.27677 79.22911,55.8318 124.73289,71.93183 38.65538,13.70749 79.45232,21.32471 120.44517,22.56229 44.83371,1.40866 89.91598,-4.71558 132.68486,-18.26869 39.48859,-12.487 76.9809,-31.23703 110.69158,-55.29404 37.00293,-26.39393 69.46187,-59.1411 95.50087,-96.39638 28.09281,-40.13992 48.68776,-85.52041 60.27827,-133.12915 15.89111,-65.07085 15.07897,-134.15295 -2.42924,-198.8128 C 883.80019,361.88239 862.93886,318.20749 835.08171,279.57521 808.49078,242.64516 775.52316,210.32952 738.09495,184.44694 706.27992,162.43206 671.23048,145.10051 634.41094,133.21517 594.14465,120.18484 551.78997,113.75912 509.47656,114.0332 Z M 512,177.95703 c 9.34539,0.001 18.69019,0.38773 28.00391,1.15625 0.31795,0.0316 1.19601,0.10441 1.7288,0.15181 5.00199,0.43579 9.99311,0.99443 14.97041,1.65483 0.3375,0.0499 1.14153,0.15332 1.66236,0.22895 7.76196,1.07586 15.4854,2.42765 23.1521,4.0484 0.34942,0.0798 1.17378,0.25297 1.70511,0.36853 0.54279,0.11365 1.04582,0.22778 1.69862,0.37282 1.78413,0.39358 3.56243,0.8129 5.34041,1.23326 0.33752,0.0869 1.16653,0.28445 1.69235,0.41375 2.33716,0.57434 4.66776,1.17513 6.9932,1.79523 0.33337,0.0951 1.15824,0.31647 1.67993,0.45994 17.74844,4.8638 35.08443,11.2241 51.77905,18.96584 0.3383,0.15467 1.08785,0.50829 1.58361,0.73913 30.46804,14.32027 58.72313,33.30911 83.54766,56.04488 30.24293,27.68 55.36321,60.94653 73.63826,97.64958 0.27182,0.54065 0.68783,1.38382 1.00777,2.04332 0.29871,0.61295 0.55438,1.13321 0.80474,1.65919 7.52604,15.57481 13.82656,31.74121 18.83007,48.29945 0.1069,0.36986 0.34368,1.15049 0.5003,1.6776 0.68128,2.29256 1.3314,4.59423 1.96454,6.90052 0.0933,0.33387 0.31187,1.15949 0.45316,1.68177 3.11699,11.65046 5.59122,23.47235 7.4238,35.39245 0.0608,0.38119 0.17904,1.1873 0.26183,1.73116 0.0828,0.54406 0.15097,1.05521 0.24686,1.71194 0.24275,1.67795 0.43936,3.16249 0.6532,4.85016 0.55082,4.2857 1.01057,8.58283 1.3967,12.88643 0.0314,0.33478 0.10222,1.1963 0.14873,1.73297 0.18746,2.18338 0.33859,4.36969 0.48604,6.55609 0.0142,0.31024 0.0713,1.19837 0.10192,1.73037 0.18379,3.07751 0.33707,6.50956 0.4242,9.3696 0.0245,0.91199 0.049,1.82398 0.0735,2.73597 0.009,0.33666 0.0233,1.20043 0.0343,1.73913 0.19252,10.50029 -0.11472,21.00909 -0.89953,31.48157 -0.0238,0.33473 -0.0938,1.19699 -0.13531,1.73391 -0.47026,5.86478 -1.09814,11.71685 -1.8725,17.54929 -0.0499,0.3375 -0.15332,1.14153 -0.22895,1.66236 -1.07575,7.76196 -2.42762,15.4854 -4.0484,23.1521 -0.0798,0.34942 -0.25297,1.17378 -0.36853,1.70511 -0.11365,0.54279 -0.22778,1.04582 -0.37282,1.69862 -0.39358,1.78413 -0.8129,3.56243 -1.23326,5.34041 -0.0869,0.33752 -0.28445,1.16653 -0.41375,1.69235 -0.57434,2.33716 -1.17513,4.66776 -1.79523,6.9932 -0.0951,0.33337 -0.31647,1.15824 -0.45994,1.67993 -4.86383,17.7484 -11.22411,35.08445 -18.96584,51.77905 -0.15467,0.3383 -0.50829,1.08785 -0.73913,1.58361 -15.63128,33.26171 -36.83205,63.88125 -62.38832,90.28711 -26.36162,27.24666 -57.36615,49.99819 -91.30614,66.89881 -0.54115,0.27084 -1.38387,0.68762 -2.0431,1.00822 -14.08455,6.89884 -28.65938,12.79498 -43.57605,17.63827 -0.3322,0.10204 -1.14341,0.36646 -1.65914,0.53072 -1.57097,0.50001 -3.14618,0.98631 -4.72367,1.46537 -0.36986,0.1069 -1.15049,0.34368 -1.6776,0.5003 -2.29256,0.68128 -4.59423,1.3314 -6.90052,1.96454 -0.33387,0.0933 -1.15949,0.31187 -1.68177,0.45316 -11.65061,3.11647 -23.47211,5.59249 -35.39245,7.4238 -0.38119,0.0608 -1.1873,0.17904 -1.73116,0.26183 -0.54406,0.0828 -1.05521,0.15097 -1.71194,0.24686 -1.67795,0.24275 -3.16249,0.43936 -4.85016,0.6532 -4.2857,0.55082 -8.58283,1.01057 -12.88643,1.3967 -0.33478,0.0314 -1.1963,0.10222 -1.73297,0.14873 -2.18338,0.18746 -4.36969,0.33859 -6.55609,0.48604 -0.31024,0.0142 -1.19837,0.0713 -1.73037,0.10192 -3.07751,0.18379 -6.50956,0.33707 -9.3696,0.4242 -0.91199,0.0245 -1.82398,0.049 -2.73597,0.0735 -0.33666,0.009 -1.20043,0.0233 -1.73913,0.0343 -10.50029,0.19252 -21.00909,-0.11472 -31.48157,-0.89953 -0.33473,-0.0238 -1.19699,-0.0938 -1.73391,-0.13531 -5.86478,-0.47026 -11.71685,-1.09814 -17.54929,-1.8725 -0.3375,-0.0499 -1.14153,-0.15332 -1.66236,-0.22895 -7.76196,-1.07575 -15.4854,-2.42762 -23.1521,-4.0484 -0.34942,-0.0798 -1.17378,-0.25297 -1.70511,-0.36853 -0.54279,-0.11365 -1.04582,-0.22778 -1.69862,-0.37282 -4.69984,-1.04435 -9.37462,-2.1999 -14.02596,-3.44224 -0.33337,-0.0951 -1.15824,-0.31647 -1.67993,-0.45994 -17.74844,-4.8638 -35.08443,-11.2241 -51.77905,-18.96584 -0.3383,-0.15467 -1.08785,-0.50829 -1.58361,-0.73913 -31.21336,-14.66975 -60.10233,-34.24147 -85.36258,-57.71835 -29.43369,-27.34338 -53.91501,-60.01002 -71.82334,-95.97611 -0.27084,-0.54115 -0.68762,-1.38387 -1.00822,-2.0431 -7.87758,-16.08718 -14.45524,-32.8113 -19.63436,-49.95886 -0.1069,-0.36986 -0.34368,-1.15049 -0.5003,-1.6776 -0.68128,-2.29256 -1.3314,-4.59423 -1.96454,-6.90052 -0.0933,-0.33387 -0.31187,-1.15949 -0.45316,-1.68177 -3.11647,-11.65061 -5.59249,-23.47211 -7.4238,-35.39245 -0.0608,-0.38119 -0.17904,-1.1873 -0.26183,-1.73116 -0.0828,-0.54406 -0.15097,-1.05521 -0.24686,-1.71194 -0.24275,-1.67795 -0.43936,-3.16249 -0.6532,-4.85016 -0.55082,-4.2857 -1.01057,-8.58283 -1.3967,-12.88643 -0.0314,-0.33478 -0.10222,-1.1963 -0.14873,-1.73297 -0.18746,-2.18338 -0.33859,-4.36969 -0.48604,-6.55609 -0.0142,-0.31024 -0.0713,-1.19837 -0.10192,-1.73037 -0.18379,-3.07751 -0.33707,-6.50956 -0.4242,-9.3696 -0.0245,-0.91199 -0.049,-1.82398 -0.0735,-2.73597 -0.009,-0.33666 -0.0233,-1.20043 -0.0343,-1.73913 -0.19246,-10.50029 0.11365,-21.00912 0.89953,-31.48157 0.0238,-0.33473 0.0938,-1.19699 0.13531,-1.73391 0.46921,-5.86487 1.09914,-11.71678 1.8725,-17.54929 0.0499,-0.3375 0.15332,-1.14153 0.22895,-1.66236 1.07586,-7.76196 2.42765,-15.4854 4.0484,-23.1521 0.0798,-0.34942 0.25297,-1.17378 0.36853,-1.70511 0.11365,-0.54279 0.22778,-1.04582 0.37282,-1.69862 0.39358,-1.78413 0.8129,-3.56243 1.23326,-5.34041 0.0869,-0.33752 0.28445,-1.16653 0.41375,-1.69235 0.57434,-2.33716 1.17513,-4.66776 1.79523,-6.9932 0.0951,-0.33337 0.31647,-1.15824 0.45994,-1.67993 4.8638,-17.74844 11.2241,-35.08443 18.96584,-51.77905 0.15467,-0.3383 0.50829,-1.08785 0.73913,-1.58361 5.29346,-11.24625 11.21392,-22.19678 17.72376,-32.78553 0.21075,-0.33343 0.63205,-1.02089 0.9234,-1.48984 22.74461,-36.55536 52.60509,-68.66097 87.42812,-93.97994 15.02886,-10.95005 30.97633,-20.63685 47.61918,-28.93061 0.54115,-0.27084 1.38387,-0.68762 2.0431,-1.00822 16.08699,-7.87773 32.81158,-14.45463 49.95886,-19.63436 0.36986,-0.1069 1.15049,-0.34368 1.6776,-0.5003 2.29256,-0.68128 4.59423,-1.3314 6.90052,-1.96454 0.33387,-0.0933 1.15949,-0.31187 1.68177,-0.45316 11.65063,-3.11624 23.47206,-5.59284 35.39245,-7.4238 0.38119,-0.0608 1.1873,-0.17904 1.73116,-0.26183 0.54406,-0.0828 1.05521,-0.15097 1.71194,-0.24686 1.67796,-0.24268 3.16248,-0.43951 4.85018,-0.65305 1.52045,-0.198 3.04337,-0.37559 4.5661,-0.55505 0.30829,-0.0371 1.19328,-0.13135 1.72286,-0.19039 12.12642,-1.32388 24.32515,-1.97212 36.52323,-1.97563 z m 126.35156,145.2207 c -85.86208,-0.005 -171.72429,-0.004 -257.5863,0.004 -11.6843,0.11763 -23.30952,3.82761 -32.85452,10.57735 -11.02323,7.68469 -19.18529,19.33506 -22.68313,32.30632 -1.62218,5.82625 -2.16295,11.89848 -2.05666,17.93109 0.0121,86.45044 -0.007,172.90119 0.012,259.35151 0.14071,11.71311 3.89233,23.35899 10.69124,32.90472 7.68556,10.94083 19.28455,19.03897 32.1916,22.5193 5.82618,1.62239 11.89851,2.16286 17.93109,2.05666 86.45044,-0.0121 172.90119,0.007 259.35151,-0.012 11.61594,-0.14002 23.16556,-3.83021 32.66653,-10.52344 11.05929,-7.68627 19.25258,-19.35793 22.75749,-32.3594 1.61008,-5.79243 2.16049,-11.82747 2.05588,-17.82524 -0.0106,-86.48118 0.006,-172.96262 -0.0128,-259.4437 -0.13433,-11.75472 -3.91523,-23.43922 -10.75167,-33.00758 -7.68764,-10.89484 -19.25744,-18.95889 -32.12959,-22.4301 -5.82453,-1.62131 -11.89452,-2.16353 -17.92524,-2.05554 -0.55247,0.002 -1.10495,0.004 -1.65743,0.006 z m -1.45508,100.71289 c 1.7e-4,71.00001 0.002,142.00001 -0.008,213 -83.25911,0.001 -166.51823,0.003 -249.77734,0.004 -0.0159,-83.26172 -0.007,-166.52344 -0.002,-249.78515 83.25911,-0.002 166.51822,-0.004 249.77734,-0.006 0.003,12.26237 0.007,24.52474 0.01,36.7871 z" />
</svg>
