<?xml version="1.0" standalone="no"?>
<!DOCTYPE svg PUBLIC "-//W3C//DTD SVG 1.1//EN" "http://www.w3.org/Graphics/SVG/1.1/DTD/svg11.dtd">
<svg t="1779626477686" class="icon" viewBox="0 0 1024 1024" version="1.1" xmlns="http://www.w3.org/2000/svg" p-id="41689" xmlns:xlink="http://www.w3.org/1999/xlink" width="128" height="128">
	<path d="M512 42.666667C252.793333 42.666667 42.666667 252.793333 42.666667 512s210.126667 469.333333 469.333333 469.333333 469.333333-210.126667 469.333333-469.333333S771.206667 42.666667 512 42.666667z m0 896c-235.64 0-426.666667-191.026667-426.666667-426.666667s191.026667-426.666667 426.666667-426.666667 426.666667 191.026667 426.666667 426.666667-191.026667 426.666667-426.666667 426.666667z m160-213.333334H352a53.393333 53.393333 0 0 1-53.333333-53.333333V352a53.393333 53.393333 0 0 1 53.333333-53.333333h320a53.393333 53.393333 0 0 1 53.333333 53.333333v320a53.393333 53.393333 0 0 1-53.333333 53.333333zM352 341.333333a10.666667 10.666667 0 0 0-10.666667 10.666667v320a10.666667 10.666667 0 0 0 10.666667 10.666667h320a10.666667 10.666667 0 0 0 10.666667-10.666667V352a10.666667 10.666667 0 0 0-10.666667-10.666667z" fill="#111111" p-id="41690">
	</path>
</svg>
