<?xml version="1.0" encoding="UTF-8" standalone="no"?>
<svg
   class="icon"
   viewBox="0 0 1024 1024"
   version="1.1"
   width="128"
   height="128"
   id="svg2"
   sodipodi:docname="zoom.svg"
   inkscape:version="1.4.3 (0d15f75, 2025-12-25)"
   xmlns:inkscape="http://www.inkscape.org/namespaces/inkscape"
   xmlns:sodipodi="http://sodipodi.sourceforge.net/DTD/sodipodi-0.dtd"
   xmlns="http://www.w3.org/2000/svg"
   xmlns:svg="http://www.w3.org/2000/svg">
  <defs
     id="defs2" />
  <sodipodi:namedview
     id="namedview2"
     pagecolor="#ffffff"
     bordercolor="#000000"
     borderopacity="0.25"
     inkscape:showpageshadow="2"
     inkscape:pageopacity="0.0"
     inkscape:pagecheckerboard="0"
     inkscape:deskcolor="#d1d1d1"
     inkscape:zoom="8.8828125"
     inkscape:cx="63.943712"
     inkscape:cy="64"
     inkscape:window-width="2560"
     inkscape:window-height="1351"
     inkscape:window-x="-9"
     inkscape:window-y="-9"
     inkscape:window-maximized="1"
     inkscape:current-layer="svg2" />
  <path
     d="M 944.5258,865.15181 C 892.94241,813.55576 841.34477,761.9597 789.74555,710.36206 917.51536,540.90615 892.41183,301.46605 732.24819,162.19773 572.08613,22.930977 331.48192,31.322049 181.40245,181.40152 31.319808,331.46833 22.942992,572.08203 162.19707,732.22826 c 139.26991,160.16206 378.71317,185.28142 548.18334,57.49894 51.59764,51.59765 103.17944,103.1937 154.79134,154.78976 21.91054,21.91054 57.44033,21.91054 79.35247,0 21.92638,-21.91055 21.92638,-57.45461 10e-4,-79.36515 z M 467.11539,803.81685 c -185.9688,0 -336.72298,-150.75101 -336.72298,-336.70556 0,-185.96563 150.75418,-336.71981 336.72298,-336.71981 185.9688,0 336.72298,150.75418 336.72299,336.71981 0,185.95455 -150.75419,336.70556 -336.72299,336.70556 z"
     id="path1"
     style="stroke-width:0.87687" />
  <path
     d="m 321.20136,500.77852 h 112.24521 v 112.24521 c 0,23.80164 9.86719,33.66883 33.66882,33.66883 23.81429,0 33.66881,-9.86719 33.66881,-33.66883 V 500.77852 h 112.24522 c 23.80004,0 33.66881,-9.86719 33.66881,-33.66723 0,-23.81429 -9.86719,-33.68148 -33.66881,-33.68148 H 500.7842 V 321.20043 c 0,-23.81588 -9.85452,-33.66723 -33.66881,-33.66723 -23.80004,0 -33.66882,9.85294 -33.66882,33.66723 V 433.42981 H 321.20136 c -23.80005,0 -33.66881,9.86719 -33.66881,33.68148 0,23.80004 9.86718,33.66723 33.66881,33.66723 z"
     id="path2"
     style="stroke-width:0.87687" />
</svg>
