<?xml version="1.0" encoding="UTF-8" standalone="no"?>
<svg
   class="icon"
   viewBox="0 0 1024 1024"
   version="1.1"
   width="128"
   height="128"
   id="svg2"
   sodipodi:docname="zoom.svg"
   inkscape:version="1.4.3 (0d15f75, 2025-12-25)"
   xmlns:inkscape="http://www.inkscape.org/namespaces/inkscape"
   xmlns:sodipodi="http://sodipodi.sourceforge.net/DTD/sodipodi-0.dtd"
   xmlns="http://www.w3.org/2000/svg"
   xmlns:svg="http://www.w3.org/2000/svg">
  <defs
     id="defs2" />
  <sodipodi:namedview
     id="namedview2"
     pagecolor="#ffffff"
     bordercolor="#000000"
     borderopacity="0.25"
     inkscape:showpageshadow="2"
     inkscape:pageopacity="0.0"
     inkscape:pagecheckerboard="0"
     inkscape:deskcolor="#d1d1d1"
     inkscape:zoom="8.8828125"
     inkscape:cx="63.943712"
     inkscape:cy="64"
     inkscape:window-width="2560"
     inkscape:window-height="1351"
     inkscape:window-x="-9"
     inkscape:window-y="-9"
     inkscape:window-maximized="1"
     inkscape:current-layer="svg2" />
  <path
     d="M 888.12984,819.10397 C 843.27245,774.23556 798.40266,729.36715 753.5315,684.49736 864.64131,537.13693 842.81105,328.91759 703.53126,207.80856 564.25284,86.700899 355.02118,93.997853 224.51068,224.50836 93.997417,355.00785 86.71286,564.24776 207.8095,703.51241 c 121.11041,139.27842 329.3325,161.12245 476.70533,50.00162 44.86979,44.86979 89.7258,89.7382 134.60799,134.60661 19.05361,19.05361 49.95065,19.05361 69.00565,0 19.06738,-19.05362 19.06738,-49.96306 10e-4,-69.01667 z M 472.96931,765.76652 c -161.7202,0 -292.81744,-131.09448 -292.81744,-292.80229 0,-161.71744 131.09724,-292.81468 292.81744,-292.81468 161.7202,0 292.81743,131.09724 292.81744,292.81468 0,161.70781 -131.09724,292.80229 -292.81744,292.80229 z"
     id="path1"
     style="stroke-width:0.762534" />
  <path
     d="m 346.08111,502.24157 h 97.60948 v 97.60948 c 0,20.69812 8.5806,29.27872 29.27872,29.27872 20.70913,0 29.27871,-8.5806 29.27871,-29.27872 v -97.60948 h 97.60949 c 20.69673,0 29.27871,-8.5806 29.27871,-29.27734 0,-20.70913 -8.5806,-29.28973 -29.27871,-29.28973 h -97.60949 v -97.59571 c 0,-20.71051 -8.56958,-29.27734 -29.27871,-29.27734 -20.69674,0 -29.27872,8.56821 -29.27872,29.27734 v 97.59571 h -97.60948 c -20.69674,0 -29.27871,8.5806 -29.27871,29.28973 0,20.69674 8.58059,29.27734 29.27871,29.27734 z"
     id="path2"
     style="stroke-width:0.762534" />
</svg>
